<?xml version="1.0" encoding="UTF-8"?>
<svg width="401px" height="309px" viewBox="0 0 401 309" version="1.1" xmlns="http://www.w3.org/2000/svg" xmlns:xlink="http://www.w3.org/1999/xlink">
    <!-- Generator: Sketch 51.1 (57501) - http://www.bohemiancoding.com/sketch -->
    <title>Group 31</title>
    <desc>Created with Sketch.</desc>
    <defs>
        <rect id="path-1" x="0" y="0" width="393" height="49" rx="4"></rect>
        <filter x="-1.7%" y="-11.2%" width="103.3%" height="126.5%" filterUnits="objectBoundingBox" id="filter-2">
            <feOffset dx="0" dy="1" in="SourceAlpha" result="shadowOffsetOuter1"></feOffset>
            <feGaussianBlur stdDeviation="2" in="shadowOffsetOuter1" result="shadowBlurOuter1"></feGaussianBlur>
            <feColorMatrix values="0 0 0 0 0   0 0 0 0 0   0 0 0 0 0  0 0 0 0.18580163 0" type="matrix" in="shadowBlurOuter1"></feColorMatrix>
        </filter>
        <rect id="path-3" x="0" y="0" width="393" height="49" rx="4"></rect>
        <filter x="-1.7%" y="-11.2%" width="103.3%" height="126.5%" filterUnits="objectBoundingBox" id="filter-4">
            <feOffset dx="0" dy="1" in="SourceAlpha" result="shadowOffsetOuter1"></feOffset>
            <feGaussianBlur stdDeviation="2" in="shadowOffsetOuter1" result="shadowBlurOuter1"></feGaussianBlur>
            <feColorMatrix values="0 0 0 0 0   0 0 0 0 0   0 0 0 0 0  0 0 0 0.18580163 0" type="matrix" in="shadowBlurOuter1"></feColorMatrix>
        </filter>
        <rect id="path-5" x="0" y="0.074200237" width="393" height="48.6522512" rx="4"></rect>
        <filter x="-1.7%" y="-11.3%" width="103.3%" height="126.7%" filterUnits="objectBoundingBox" id="filter-6">
            <feOffset dx="0" dy="1" in="SourceAlpha" result="shadowOffsetOuter1"></feOffset>
            <feGaussianBlur stdDeviation="2" in="shadowOffsetOuter1" result="shadowBlurOuter1"></feGaussianBlur>
            <feColorMatrix values="0 0 0 0 0   0 0 0 0 0   0 0 0 0 0  0 0 0 0.18580163 0" type="matrix" in="shadowBlurOuter1"></feColorMatrix>
        </filter>
        <rect id="path-7" x="0" y="57.237263" width="393" height="48.6522512" rx="4"></rect>
        <filter x="-1.7%" y="-11.3%" width="103.3%" height="126.7%" filterUnits="objectBoundingBox" id="filter-8">
            <feOffset dx="0" dy="1" in="SourceAlpha" result="shadowOffsetOuter1"></feOffset>
            <feGaussianBlur stdDeviation="2" in="shadowOffsetOuter1" result="shadowBlurOuter1"></feGaussianBlur>
            <feColorMatrix values="0 0 0 0 0   0 0 0 0 0   0 0 0 0 0  0 0 0 0.18580163 0" type="matrix" in="shadowBlurOuter1"></feColorMatrix>
        </filter>
        <rect id="path-9" x="0" y="114.400326" width="393" height="48.6522512" rx="4"></rect>
        <filter x="-1.7%" y="-11.3%" width="103.3%" height="126.7%" filterUnits="objectBoundingBox" id="filter-10">
            <feOffset dx="0" dy="1" in="SourceAlpha" result="shadowOffsetOuter1"></feOffset>
            <feGaussianBlur stdDeviation="2" in="shadowOffsetOuter1" result="shadowBlurOuter1"></feGaussianBlur>
            <feColorMatrix values="0 0 0 0 0   0 0 0 0 0   0 0 0 0 0  0 0 0 0.18580163 0" type="matrix" in="shadowBlurOuter1"></feColorMatrix>
        </filter>
    </defs>
    <g id="Page-1" stroke="none" stroke-width="1" fill="none" fill-rule="evenodd">
        <g id="3-copy" transform="translate(-759.000000, -233.000000)">
            <g id="Group-16" transform="translate(284.000000, 118.000000)">
                <g id="Group-26" transform="translate(479.000000, 0.000000)">
                    <g id="Group-28">
                        <g id="Group-29">
                            <g id="Group-31" transform="translate(0.000000, 118.000000)">
                                <g id="Group-30">
                                    <g id="Group">
                                        <g id="Group-25" transform="translate(0.000000, 80.000000)">
                                            <g id="Rectangle-2">
                                                <use fill="black" fill-opacity="1" filter="url(#filter-2)" xlink:href="#path-1"></use>
                                                <use fill="#FFFFFF" fill-rule="evenodd" xlink:href="#path-1"></use>
                                            </g>
                                            <polygon id="arrow-icon" fill="#697095" transform="translate(372.071391, 24.900000) rotate(-90.000000) translate(-372.071391, -24.900000) " points="369 24.898352 372.071391 29.8 375.015171 29.8 371.924138 24.8983518 375.142782 20 372.071391 20"></polygon>
                                        </g>
                                        <g id="Rectangle-2">
                                            <use fill="black" fill-opacity="1" filter="url(#filter-4)" xlink:href="#path-3"></use>
                                            <use fill="#BCA692" fill-rule="evenodd" xlink:href="#path-3"></use>
                                        </g>
                                        <path d="M24.712,101.488 C24.2853312,101.039998 23.7893362,100.690668 23.224,100.44 C22.6586638,100.189332 22.0773363,100.064 21.48,100.064 C20.6906627,100.064 19.9653366,100.255998 19.304,100.64 C18.6426634,101.024002 18.1200019,101.543997 17.736,102.2 C17.3519981,102.856003 17.16,103.578663 17.16,104.368 C17.16,105.146671 17.3519981,105.866663 17.736,106.528 C18.1200019,107.189337 18.6426634,107.711998 19.304,108.096 C19.9653366,108.480002 20.6906627,108.672 21.48,108.672 C22.0666696,108.672 22.6426638,108.552001 23.208,108.312 C23.7733362,108.071999 24.2746645,107.744002 24.712,107.328 L25.64,108.336 C25.0746638,108.890669 24.4186704,109.325332 23.672,109.64 C22.9253296,109.954668 22.1680038,110.112 21.4,110.112 C20.333328,110.112 19.3573378,109.858669 18.472,109.352 C17.5866622,108.845331 16.8880026,108.154671 16.376,107.28 C15.8639974,106.405329 15.608,105.440005 15.608,104.384 C15.608,103.338661 15.8666641,102.381338 16.384,101.512 C16.9013359,100.642662 17.6079955,99.9573358 18.504,99.456 C19.4000045,98.9546642 20.3866613,98.704 21.464,98.704 C22.2426706,98.704 22.9973297,98.8506652 23.728,99.144 C24.4586703,99.4373348 25.090664,99.850664 25.624,100.384 L24.712,101.488 Z M32.44,101.488 C33.432005,101.488 34.2106638,101.778664 34.776,102.36 C35.3413362,102.941336 35.624,103.743995 35.624,104.768 L35.624,110 L34.136,110 L34.136,105.168 C34.136,104.45333 33.936002,103.896002 33.536,103.496 C33.135998,103.095998 32.5840035,102.896 31.88,102.896 C31.0586626,102.906667 30.4080024,103.183997 29.928,103.728 C29.4479976,104.272003 29.208,104.975996 29.208,105.84 L29.208,110 L27.72,110 L27.72,98.128 L29.208,98.128 L29.208,103.36 C29.7733362,102.133327 30.8506587,101.509333 32.44,101.488 Z M41.8,101.488 C42.6426709,101.488 43.3919967,101.669332 44.048,102.032 C44.7040033,102.394668 45.2159982,102.898663 45.584,103.544 C45.9520018,104.189337 46.136,104.927996 46.136,105.76 C46.136,106.592004 45.9520018,107.33333 45.584,107.984 C45.2159982,108.63467 44.7040033,109.141332 44.048,109.504 C43.3919967,109.866668 42.6426709,110.048 41.8,110.048 C40.9466624,110.048 40.1920033,109.866668 39.536,109.504 C38.8799967,109.141332 38.3680018,108.637337 38,107.992 C37.6319982,107.346663 37.448,106.602671 37.448,105.76 C37.448,104.927996 37.6319982,104.189337 38,103.544 C38.3680018,102.898663 38.8799967,102.394668 39.536,102.032 C40.1920033,101.669332 40.9466624,101.488 41.8,101.488 Z M41.8,102.784 C41.2453306,102.784 40.7520022,102.911999 40.32,103.168 C39.8879978,103.424001 39.5520012,103.778664 39.312,104.232 C39.0719988,104.685336 38.952,105.199997 38.952,105.776 C38.952,106.36267 39.0719988,106.885331 39.312,107.344 C39.5520012,107.802669 39.8879978,108.157332 40.32,108.408 C40.7520022,108.658668 41.2453306,108.784 41.8,108.784 C42.3440027,108.784 42.8319978,108.658668 43.264,108.408 C43.6960022,108.157332 44.0319988,107.802669 44.272,107.344 C44.5120012,106.885331 44.632,106.36267 44.632,105.776 C44.632,105.199997 44.5120012,104.685336 44.272,104.232 C44.0319988,103.778664 43.6960022,103.424001 43.264,103.168 C42.8319978,102.911999 42.3440027,102.784 41.8,102.784 Z M51.736,101.488 C52.5786709,101.488 53.3279967,101.669332 53.984,102.032 C54.6400033,102.394668 55.1519982,102.898663 55.52,103.544 C55.8880018,104.189337 56.072,104.927996 56.072,105.76 C56.072,106.592004 55.8880018,107.33333 55.52,107.984 C55.1519982,108.63467 54.6400033,109.141332 53.984,109.504 C53.3279967,109.866668 52.5786709,110.048 51.736,110.048 C50.8826624,110.048 50.1280033,109.866668 49.472,109.504 C48.8159967,109.141332 48.3040018,108.637337 47.936,107.992 C47.5679982,107.346663 47.384,106.602671 47.384,105.76 C47.384,104.927996 47.5679982,104.189337 47.936,103.544 C48.3040018,102.898663 48.8159967,102.394668 49.472,102.032 C50.1280033,101.669332 50.8826624,101.488 51.736,101.488 Z M51.736,102.784 C51.1813306,102.784 50.6880022,102.911999 50.256,103.168 C49.8239978,103.424001 49.4880012,103.778664 49.248,104.232 C49.0079988,104.685336 48.888,105.199997 48.888,105.776 C48.888,106.36267 49.0079988,106.885331 49.248,107.344 C49.4880012,107.802669 49.8239978,108.157332 50.256,108.408 C50.6880022,108.658668 51.1813306,108.784 51.736,108.784 C52.2800027,108.784 52.7679978,108.658668 53.2,108.408 C53.6320022,108.157332 53.9679988,107.802669 54.208,107.344 C54.4480012,106.885331 54.568,106.36267 54.568,105.776 C54.568,105.199997 54.4480012,104.685336 54.208,104.232 C53.9679988,103.778664 53.6320022,103.424001 53.2,103.168 C52.7679978,102.911999 52.2800027,102.784 51.736,102.784 Z M62.776,103.408 C62.4239982,103.194666 62.0373354,103.024001 61.616,102.896 C61.1946646,102.767999 60.7920019,102.704 60.408,102.704 C59.9599978,102.704 59.6000014,102.786666 59.328,102.952 C59.0559986,103.117334 58.92,103.370665 58.92,103.712 C58.92,104.053335 59.0719985,104.311999 59.376,104.488 C59.6800015,104.664001 60.1413302,104.842666 60.76,105.024 C61.3466696,105.194668 61.8266648,105.365332 62.2,105.536 C62.5733352,105.706668 62.8906654,105.957332 63.152,106.288 C63.4133346,106.618668 63.544,107.055997 63.544,107.6 C63.544,108.400004 63.2426697,109.007998 62.64,109.424 C62.0373303,109.840002 61.2880045,110.048 60.392,110.048 C59.7626635,110.048 59.152003,109.946668 58.56,109.744 C57.967997,109.541332 57.4693354,109.253335 57.064,108.88 L57.624,107.792 C57.9760018,108.112002 58.4106641,108.367999 58.928,108.56 C59.4453359,108.752001 59.9493309,108.848 60.44,108.848 C60.9306691,108.848 61.3253318,108.757334 61.624,108.576 C61.9226682,108.394666 62.072,108.117335 62.072,107.744 C62.072,107.359998 61.9146682,107.072001 61.6,106.88 C61.2853318,106.687999 60.8080032,106.496001 60.168,106.304 C59.6026638,106.143999 59.1413351,105.981334 58.784,105.816 C58.4266649,105.650666 58.1226679,105.408002 57.872,105.088 C57.6213321,104.767998 57.496,104.352003 57.496,103.84 C57.496,103.050663 57.7839971,102.458669 58.36,102.064 C58.9360029,101.669331 59.6559957,101.472 60.52,101.472 C61.0320026,101.472 61.5359975,101.543999 62.032,101.688 C62.5280025,101.832001 62.9573315,102.026665 63.32,102.272 L62.776,103.408 Z M68.904,101.488 C70.2160066,101.488 71.2079966,101.874663 71.88,102.648 C72.5520034,103.421337 72.888,104.495993 72.888,105.872 C72.888,106.085334 72.8826667,106.245333 72.872,106.352 L66.184,106.352 C66.3013339,107.109337 66.6186641,107.711998 67.136,108.16 C67.6533359,108.608002 68.2906629,108.832 69.048,108.832 C69.5493358,108.832 70.0159978,108.741334 70.448,108.56 C70.8800022,108.378666 71.2559984,108.122668 71.576,107.792 L72.392,108.64 C71.9759979,109.088002 71.4746696,109.434665 70.888,109.68 C70.3013304,109.925335 69.6506702,110.048 68.936,110.048 C68.1039958,110.048 67.3653366,109.869335 66.72,109.512 C66.0746634,109.154665 65.5733351,108.65067 65.216,108 C64.8586649,107.34933 64.68,106.608004 64.68,105.776 C64.68,104.943996 64.8586649,104.205337 65.216,103.56 C65.5733351,102.914663 66.0719968,102.408002 66.712,102.04 C67.3520032,101.671998 68.0826626,101.488 68.904,101.488 Z M71.544,105.2 C71.5013331,104.431996 71.2453357,103.826669 70.776,103.384 C70.3066643,102.941331 69.6880038,102.72 68.92,102.72 C68.1733296,102.72 67.5520025,102.943998 67.056,103.392 C66.5599975,103.840002 66.2640005,104.442663 66.168,105.2 L71.544,105.2 Z M84.28,110 L84.28,108.816 C83.6506635,109.648004 82.6640067,110.064 81.32,110.064 C80.7333304,110.064 80.2186689,109.952001 79.776,109.728 C79.3333311,109.503999 78.9920012,109.194669 78.752,108.8 C78.5119988,108.405331 78.392,107.962669 78.392,107.472 C78.392,106.714663 78.6719972,106.114669 79.232,105.672 C79.7920028,105.229331 80.5733283,105.002667 81.576,104.992 L84.264,104.992 L84.264,104.592 C84.264,103.994664 84.0800018,103.533335 83.712,103.208 C83.3439982,102.882665 82.8080035,102.72 82.104,102.72 C81.2506624,102.72 80.3813378,103.023997 79.496,103.632 L78.872,102.608 C79.480003,102.213331 80.0426641,101.928001 80.56,101.752 C81.0773359,101.575999 81.6933298,101.488 82.408,101.488 C83.4640053,101.488 84.2799971,101.746664 84.856,102.264 C85.4320029,102.781336 85.7253333,103.503995 85.736,104.432 L85.752,110 L84.28,110 Z M81.624,108.832 C82.3173368,108.832 82.9066642,108.664002 83.392,108.328 C83.8773358,107.991998 84.1679995,107.546669 84.264,106.992 L84.264,106.144 L81.784,106.144 C81.1119966,106.144 80.613335,106.245332 80.288,106.448 C79.962665,106.650668 79.8,106.970664 79.8,107.408 C79.8,107.845336 79.9653317,108.191999 80.296,108.448 C80.6266683,108.704001 81.0693306,108.832 81.624,108.832 Z M97.224,103.408 C96.8719982,103.194666 96.4853354,103.024001 96.064,102.896 C95.6426646,102.767999 95.2400019,102.704 94.856,102.704 C94.4079978,102.704 94.0480014,102.786666 93.776,102.952 C93.5039986,103.117334 93.368,103.370665 93.368,103.712 C93.368,104.053335 93.5199985,104.311999 93.824,104.488 C94.1280015,104.664001 94.5893302,104.842666 95.208,105.024 C95.7946696,105.194668 96.2746648,105.365332 96.648,105.536 C97.0213352,105.706668 97.3386654,105.957332 97.6,106.288 C97.8613346,106.618668 97.992,107.055997 97.992,107.6 C97.992,108.400004 97.6906697,109.007998 97.088,109.424 C96.4853303,109.840002 95.7360045,110.048 94.84,110.048 C94.2106635,110.048 93.600003,109.946668 93.008,109.744 C92.415997,109.541332 91.9173354,109.253335 91.512,108.88 L92.072,107.792 C92.4240018,108.112002 92.8586641,108.367999 93.376,108.56 C93.8933359,108.752001 94.3973309,108.848 94.888,108.848 C95.3786691,108.848 95.7733318,108.757334 96.072,108.576 C96.3706682,108.394666 96.52,108.117335 96.52,107.744 C96.52,107.359998 96.3626682,107.072001 96.048,106.88 C95.7333318,106.687999 95.2560032,106.496001 94.616,106.304 C94.0506638,106.143999 93.5893351,105.981334 93.232,105.816 C92.8746649,105.650666 92.5706679,105.408002 92.32,105.088 C92.0693321,104.767998 91.944,104.352003 91.944,103.84 C91.944,103.050663 92.2319971,102.458669 92.808,102.064 C93.3840029,101.669331 94.1039957,101.472 94.968,101.472 C95.4800026,101.472 95.9839975,101.543999 96.48,101.688 C96.9760025,101.832001 97.4053315,102.026665 97.768,102.272 L97.224,103.408 Z M104.504,109.44 C103.85333,109.856002 103.192003,110.064 102.52,110.064 C101.847997,110.064 101.304002,109.864002 100.888,109.464 C100.471998,109.063998 100.264,108.458671 100.264,107.648 L100.264,102.96 L99.064,102.96 L99.064,101.824 L100.264,101.824 L100.264,99.552 L101.768,99.552 L101.768,101.824 L104.36,101.824 L104.36,102.96 L101.768,102.96 L101.768,107.376 C101.768,107.845336 101.853332,108.181332 102.024,108.384 C102.194668,108.586668 102.450665,108.688 102.792,108.688 C103.197335,108.688 103.634664,108.554668 104.104,108.288 L104.504,109.44 Z M111.48,110 L111.48,108.816 C110.850664,109.648004 109.864007,110.064 108.52,110.064 C107.93333,110.064 107.418669,109.952001 106.976,109.728 C106.533331,109.503999 106.192001,109.194669 105.952,108.8 C105.711999,108.405331 105.592,107.962669 105.592,107.472 C105.592,106.714663 105.871997,106.114669 106.432,105.672 C106.992003,105.229331 107.773328,105.002667 108.776,104.992 L111.464,104.992 L111.464,104.592 C111.464,103.994664 111.280002,103.533335 110.912,103.208 C110.543998,102.882665 110.008004,102.72 109.304,102.72 C108.450662,102.72 107.581338,103.023997 106.696,103.632 L106.072,102.608 C106.680003,102.213331 107.242664,101.928001 107.76,101.752 C108.277336,101.575999 108.89333,101.488 109.608,101.488 C110.664005,101.488 111.479997,101.746664 112.056,102.264 C112.632003,102.781336 112.925333,103.503995 112.936,104.432 L112.952,110 L111.48,110 Z M108.824,108.832 C109.517337,108.832 110.106664,108.664002 110.592,108.328 C111.077336,107.991998 111.368,107.546669 111.464,106.992 L111.464,106.144 L108.984,106.144 C108.311997,106.144 107.813335,106.245332 107.488,106.448 C107.162665,106.650668 107,106.970664 107,107.408 C107,107.845336 107.165332,108.191999 107.496,108.448 C107.826668,108.704001 108.269331,108.832 108.824,108.832 Z M120.152,109.44 C119.50133,109.856002 118.840003,110.064 118.168,110.064 C117.495997,110.064 116.952002,109.864002 116.536,109.464 C116.119998,109.063998 115.912,108.458671 115.912,107.648 L115.912,102.96 L114.712,102.96 L114.712,101.824 L115.912,101.824 L115.912,99.552 L117.416,99.552 L117.416,101.824 L120.008,101.824 L120.008,102.96 L117.416,102.96 L117.416,107.376 C117.416,107.845336 117.501332,108.181332 117.672,108.384 C117.842668,108.586668 118.098665,108.688 118.44,108.688 C118.845335,108.688 119.282664,108.554668 119.752,108.288 L120.152,109.44 Z M121.96,101.536 L123.448,101.536 L123.448,110 L121.96,110 L121.96,101.536 Z M122.696,98.16 C122.962668,98.16 123.183999,98.2506658 123.36,98.432 C123.536001,98.6133342 123.624,98.8426653 123.624,99.12 C123.624,99.3973347 123.536001,99.6266658 123.36,99.808 C123.183999,99.9893342 122.962668,100.08 122.696,100.08 C122.429332,100.08 122.208001,99.9893342 122.032,99.808 C121.855999,99.6266658 121.768,99.3973347 121.768,99.12 C121.768,98.8426653 121.855999,98.6133342 122.032,98.432 C122.208001,98.2506658 122.429332,98.16 122.696,98.16 Z M129.864,101.488 C130.706671,101.488 131.455997,101.669332 132.112,102.032 C132.768003,102.394668 133.279998,102.898663 133.648,103.544 C134.016002,104.189337 134.2,104.927996 134.2,105.76 C134.2,106.592004 134.016002,107.33333 133.648,107.984 C133.279998,108.63467 132.768003,109.141332 132.112,109.504 C131.455997,109.866668 130.706671,110.048 129.864,110.048 C129.010662,110.048 128.256003,109.866668 127.6,109.504 C126.943997,109.141332 126.432002,108.637337 126.064,107.992 C125.695998,107.346663 125.512,106.602671 125.512,105.76 C125.512,104.927996 125.695998,104.189337 126.064,103.544 C126.432002,102.898663 126.943997,102.394668 127.6,102.032 C128.256003,101.669332 129.010662,101.488 129.864,101.488 Z M129.864,102.784 C129.309331,102.784 128.816002,102.911999 128.384,103.168 C127.951998,103.424001 127.616001,103.778664 127.376,104.232 C127.135999,104.685336 127.016,105.199997 127.016,105.776 C127.016,106.36267 127.135999,106.885331 127.376,107.344 C127.616001,107.802669 127.951998,108.157332 128.384,108.408 C128.816002,108.658668 129.309331,108.784 129.864,108.784 C130.408003,108.784 130.895998,108.658668 131.328,108.408 C131.760002,108.157332 132.095999,107.802669 132.336,107.344 C132.576001,106.885331 132.696,106.36267 132.696,105.776 C132.696,105.199997 132.576001,104.685336 132.336,104.232 C132.095999,103.778664 131.760002,103.424001 131.328,103.168 C130.895998,102.911999 130.408003,102.784 129.864,102.784 Z M140.984,101.488 C141.976005,101.488 142.754664,101.778664 143.32,102.36 C143.885336,102.941336 144.168,103.743995 144.168,104.768 L144.168,110 L142.68,110 L142.68,105.168 C142.68,104.45333 142.480002,103.896002 142.08,103.496 C141.679998,103.095998 141.128004,102.896 140.424,102.896 C139.666663,102.906667 139.050669,103.149331 138.576,103.624 C138.101331,104.098669 137.832,104.714663 137.768,105.472 L137.768,110 L136.28,110 L136.28,101.536 L137.768,101.536 L137.768,103.328 C138.333336,102.122661 139.405325,101.509333 140.984,101.488 Z" id="Choose-a-station" fill="#363A4F"></path>
                                        <g id="Group-15" transform="translate(84.000000, 16.000000)" fill="#FFFFFF">
                                            <g id="Group-12">
                                                <path d="M10.1231878,13.3204047 C8.80858451,14.8806327 7.15178016,16.25 6.5,16.25 C5.84821984,16.25 4.19141549,14.8806327 2.87681222,13.3204047 C1.092695,11.2029372 0,8.87367069 0,6.5 C0,2.91014913 2.91014913,0 6.5,0 C10.0898509,0 13,2.91014913 13,6.5 C13,8.87367069 11.907305,11.2029372 10.1231878,13.3204047 Z M5.95110082,14.1002865 C6.19215377,14.2995195 6.5,14.5229303 6.5,14.5229303 C6.5,14.5229303 6.84236823,14.2709867 7.04889918,14.1002865 C7.64823068,13.6049324 8.29229301,12.9714458 8.88049245,12.2733453 C10.4400599,10.4223832 11.375,8.42939833 11.375,6.5 C11.375,3.80761184 9.19238816,1.625 6.5,1.625 C3.80761184,1.625 1.625,3.80761184 1.625,6.5 C1.625,8.42939833 2.55994006,10.4223832 4.11950755,12.2733453 C4.70770699,12.9714458 5.35176932,13.6049324 5.95110082,14.1002865 Z M4.0625,6.5 C4.0625,5.15380592 5.15380592,4.0625 6.5,4.0625 C7.84619408,4.0625 8.9375,5.15380592 8.9375,6.5 C8.9375,7.84619408 7.84619408,8.9375 6.5,8.9375 C5.15380592,8.9375 4.0625,7.84619408 4.0625,6.5 Z M7.3125,6.5 C7.3125,6.05126864 6.94873136,5.6875 6.5,5.6875 C6.05126864,5.6875 5.6875,6.05126864 5.6875,6.5 C5.6875,6.94873136 6.05126864,7.3125 6.5,7.3125 C6.94873136,7.3125 7.3125,6.94873136 7.3125,6.5 Z" id="Combined-Shape" fill-rule="nonzero"></path>
                                                <path d="M27.376,2.8 L35.104,2.8 L35.088,4.672 L29.52,4.672 L29.52,7.696 L34.592,7.696 L34.592,9.568 L29.52,9.568 L29.52,14 L27.376,14 L27.376,2.8 Z M36.624,5.44 L38.704,5.44 L38.704,14 L36.624,14 L36.624,5.44 Z M37.648,1.76 C37.989335,1.76 38.2719989,1.87733216 38.496,2.112 C38.7200011,2.34666784 38.832,2.64533152 38.832,3.008 C38.832,3.36000176 38.7200011,3.65333216 38.496,3.888 C38.2719989,4.12266784 37.989335,4.24 37.648,4.24 C37.306665,4.24 37.0240011,4.12266784 36.8,3.888 C36.5759989,3.65333216 36.464,3.36000176 36.464,3.008 C36.464,2.64533152 36.5759989,2.34666784 36.8,2.112 C37.0240011,1.87733216 37.306665,1.76 37.648,1.76 Z M46.432,5.36 C47.4133382,5.36 48.1866638,5.65599704 48.752,6.248 C49.3173362,6.84000296 49.6,7.6426616 49.6,8.656 L49.6,14 L47.504,14 L47.504,9.264 C47.504,8.66666368 47.333335,8.1946684 46.992,7.848 C46.650665,7.5013316 46.1866696,7.328 45.6,7.328 C44.9066632,7.33866672 44.360002,7.57333104 43.96,8.032 C43.559998,8.49066896 43.36,9.07732976 43.36,9.792 L43.36,14 L41.28,14 L41.28,5.44 L43.36,5.44 L43.36,7.04 C43.9466696,5.94132784 44.9706594,5.38133344 46.432,5.36 Z M60.192,2.128 L60.192,14 L58.112,14 L58.112,12.624 C57.8026651,13.1040024 57.4053358,13.4693321 56.92,13.72 C56.4346642,13.9706679 55.8720032,14.096 55.232,14.096 C54.4213293,14.096 53.7093364,13.9120018 53.096,13.544 C52.4826636,13.1759982 52.005335,12.65867 51.664,11.992 C51.322665,11.32533 51.152,10.5600043 51.152,9.696 C51.152,8.8426624 51.3199983,8.08800328 51.656,7.432 C51.9920017,6.77599672 52.4666636,6.26666848 53.08,5.904 C53.6933364,5.54133152 54.3946627,5.36 55.184,5.36 C55.8346699,5.36 56.4053309,5.48799872 56.896,5.744 C57.3866691,6.00000128 57.7919984,6.3679976 58.112,6.848 L58.112,2.128 L60.192,2.128 Z M55.68,12.352 C56.3946702,12.352 56.9786644,12.1093358 57.432,11.624 C57.8853356,11.1386642 58.112,10.5120038 58.112,9.744 C58.112,8.97599616 57.8853356,8.34933576 57.432,7.864 C56.9786644,7.37866424 56.3946702,7.136 55.68,7.136 C54.9653298,7.136 54.3840022,7.37866424 53.936,7.864 C53.4879978,8.34933576 53.2586667,8.97599616 53.248,9.744 C53.2586667,10.5120038 53.4879978,11.1386642 53.936,11.624 C54.3840022,12.1093358 54.9653298,12.352 55.68,12.352 Z M71.792,13.472 C71.1093299,13.8880021 70.3946704,14.096 69.648,14.096 C68.9119963,14.096 68.3093357,13.8800022 67.84,13.448 C67.3706643,13.0159978 67.136,12.3786709 67.136,11.536 L67.136,7.312 L65.936,7.312 L65.92,5.792 L67.136,5.792 L67.136,3.44 L69.2,3.44 L69.2,5.792 L71.648,5.792 L71.648,7.312 L69.2,7.312 L69.2,11.168 C69.2,11.5626686 69.2746659,11.8426658 69.424,12.008 C69.5733341,12.1733342 69.7973318,12.256 70.096,12.256 C70.4160016,12.256 70.8213309,12.1386678 71.312,11.904 L71.792,13.472 Z M78.672,5.36 C79.6533382,5.36 80.4266638,5.65599704 80.992,6.248 C81.5573362,6.84000296 81.84,7.6426616 81.84,8.656 L81.84,14 L79.744,14 L79.744,9.264 C79.744,8.66666368 79.573335,8.1946684 79.232,7.848 C78.890665,7.5013316 78.4266696,7.328 77.84,7.328 C77.1466632,7.33866672 76.5973354,7.57333104 76.192,8.032 C75.7866646,8.49066896 75.584,9.07732976 75.584,9.792 L75.584,14 L73.504,14 L73.504,2.128 L75.584,2.128 L75.584,7.072 C76.1706696,5.9519944 77.1999926,5.38133344 78.672,5.36 Z M87.744,5.376 C89.1093402,5.376 90.1359966,5.76532944 90.824,6.544 C91.5120034,7.32267056 91.856,8.41599296 91.856,9.824 C91.856,10.1013347 91.8506667,10.3093326 91.84,10.448 L85.52,10.448 C85.6586674,11.056003 85.9439978,11.5333316 86.376,11.88 C86.8080022,12.2266684 87.3386635,12.4 87.968,12.4 C88.4053355,12.4 88.823998,12.3173342 89.224,12.152 C89.624002,11.9866658 89.9733318,11.7493349 90.272,11.44 L91.392,12.608 C90.9653312,13.0773357 90.4453364,13.4399987 89.832,13.696 C89.2186636,13.9520013 88.5386704,14.08 87.792,14.08 C86.917329,14.08 86.14667,13.8986685 85.48,13.536 C84.81333,13.1733315 84.2986685,12.6640033 83.936,12.008 C83.5733315,11.3519967 83.392,10.5973376 83.392,9.744 C83.392,8.8906624 83.5759982,8.13333664 83.944,7.472 C84.3120018,6.81066336 84.8266634,6.29600184 85.488,5.928 C86.1493366,5.55999816 86.9013291,5.376 87.744,5.376 Z M89.952,9.056 C89.9306666,8.42666352 89.7226686,7.9253352 89.328,7.552 C88.9333314,7.1786648 88.4106699,6.992 87.76,6.992 C87.151997,6.992 86.6426687,7.17599816 86.232,7.544 C85.8213313,7.91200184 85.5680005,8.4159968 85.472,9.056 L89.952,9.056 Z M102.72,5.36 C103.701338,5.36 104.474664,5.65599704 105.04,6.248 C105.605336,6.84000296 105.888,7.6426616 105.888,8.656 L105.888,14 L103.792,14 L103.792,9.264 C103.792,8.66666368 103.621335,8.1946684 103.28,7.848 C102.938665,7.5013316 102.47467,7.328 101.888,7.328 C101.194663,7.33866672 100.648002,7.57333104 100.248,8.032 C99.847998,8.49066896 99.648,9.07732976 99.648,9.792 L99.648,14 L97.568,14 L97.568,5.44 L99.648,5.44 L99.648,7.04 C100.23467,5.94132784 101.258659,5.38133344 102.72,5.36 Z M111.792,5.376 C113.15734,5.376 114.183997,5.76532944 114.872,6.544 C115.560003,7.32267056 115.904,8.41599296 115.904,9.824 C115.904,10.1013347 115.898667,10.3093326 115.888,10.448 L109.568,10.448 C109.706667,11.056003 109.991998,11.5333316 110.424,11.88 C110.856002,12.2266684 111.386664,12.4 112.016,12.4 C112.453336,12.4 112.871998,12.3173342 113.272,12.152 C113.672002,11.9866658 114.021332,11.7493349 114.32,11.44 L115.44,12.608 C115.013331,13.0773357 114.493336,13.4399987 113.88,13.696 C113.266664,13.9520013 112.58667,14.08 111.84,14.08 C110.965329,14.08 110.19467,13.8986685 109.528,13.536 C108.86133,13.1733315 108.346668,12.6640033 107.984,12.008 C107.621332,11.3519967 107.44,10.5973376 107.44,9.744 C107.44,8.8906624 107.623998,8.13333664 107.992,7.472 C108.360002,6.81066336 108.874663,6.29600184 109.536,5.928 C110.197337,5.55999816 110.949329,5.376 111.792,5.376 Z M114,9.056 C113.978667,8.42666352 113.770669,7.9253352 113.376,7.552 C112.981331,7.1786648 112.45867,6.992 111.808,6.992 C111.199997,6.992 110.690669,7.17599816 110.28,7.544 C109.869331,7.91200184 109.616,8.4159968 109.52,9.056 L114,9.056 Z M122.752,14 L122.752,12.96 C122.453332,13.3333352 122.069336,13.615999 121.6,13.808 C121.130664,14.000001 120.592003,14.096 119.984,14.096 C119.386664,14.096 118.861336,13.9813345 118.408,13.752 C117.954664,13.5226655 117.605335,13.2053354 117.36,12.8 C117.114665,12.3946646 116.992,11.9413358 116.992,11.44 C116.992,10.639996 117.274664,10.0133356 117.84,9.56 C118.405336,9.1066644 119.205328,8.87466672 120.24,8.864 L122.736,8.864 L122.736,8.64 C122.736,8.13866416 122.570668,7.74933472 122.24,7.472 C121.909332,7.19466528 121.429336,7.056 120.8,7.056 C119.989329,7.056 119.141338,7.322664 118.256,7.856 L117.504,6.416 C118.176003,6.0426648 118.786664,5.77333416 119.336,5.608 C119.885336,5.44266584 120.527996,5.36 121.264,5.36 C122.373339,5.36 123.234664,5.626664 123.848,6.16 C124.461336,6.693336 124.773333,7.4399952 124.784,8.4 L124.8,14 L122.752,14 Z M120.48,12.496 C121.077336,12.496 121.589331,12.3546681 122.016,12.072 C122.442669,11.7893319 122.682666,11.4400021 122.736,11.024 L122.736,10.256 L120.576,10.256 C120.021331,10.256 119.613335,10.3386658 119.352,10.504 C119.090665,10.6693342 118.96,10.9386648 118.96,11.312 C118.96,11.6746685 119.095999,11.9626656 119.368,12.176 C119.640001,12.3893344 120.010664,12.496 120.48,12.496 Z M129.216,7.088 C129.504001,6.53333056 129.895998,6.1093348 130.392,5.816 C130.888002,5.5226652 131.466663,5.37066672 132.128,5.36 L132.128,7.376 C131.242662,7.3226664 130.536003,7.52799768 130.008,7.992 C129.479997,8.45600232 129.216,9.08266272 129.216,9.872 L129.216,14 L127.136,14 L127.136,5.44 L129.216,5.44 L129.216,7.088 Z M137.152,5.376 C138.51734,5.376 139.543997,5.76532944 140.232,6.544 C140.920003,7.32267056 141.264,8.41599296 141.264,9.824 C141.264,10.1013347 141.258667,10.3093326 141.248,10.448 L134.928,10.448 C135.066667,11.056003 135.351998,11.5333316 135.784,11.88 C136.216002,12.2266684 136.746664,12.4 137.376,12.4 C137.813336,12.4 138.231998,12.3173342 138.632,12.152 C139.032002,11.9866658 139.381332,11.7493349 139.68,11.44 L140.8,12.608 C140.373331,13.0773357 139.853336,13.4399987 139.24,13.696 C138.626664,13.9520013 137.94667,14.08 137.2,14.08 C136.325329,14.08 135.55467,13.8986685 134.888,13.536 C134.22133,13.1733315 133.706668,12.6640033 133.344,12.008 C132.981332,11.3519967 132.8,10.5973376 132.8,9.744 C132.8,8.8906624 132.983998,8.13333664 133.352,7.472 C133.720002,6.81066336 134.234663,6.29600184 134.896,5.928 C135.557337,5.55999816 136.309329,5.376 137.152,5.376 Z M139.36,9.056 C139.338667,8.42666352 139.130669,7.9253352 138.736,7.552 C138.341331,7.1786648 137.81867,6.992 137.168,6.992 C136.559997,6.992 136.050669,7.17599816 135.64,7.544 C135.229331,7.91200184 134.976,8.4159968 134.88,9.056 L139.36,9.056 Z M148.128,7.76 C147.711998,7.51466544 147.282669,7.32266736 146.84,7.184 C146.397331,7.04533264 145.989335,6.976 145.616,6.976 C145.263998,6.976 144.984001,7.03733272 144.776,7.16 C144.567999,7.28266728 144.464,7.47199872 144.464,7.728 C144.464,7.994668 144.594665,8.19999928 144.856,8.344 C145.117335,8.48800072 145.530664,8.6399992 146.096,8.8 C146.693336,8.98133424 147.183998,9.15999912 147.568,9.336 C147.952002,9.51200088 148.285332,9.7733316 148.568,10.12 C148.850668,10.4666684 148.992,10.9226638 148.992,11.488 C148.992,12.3200042 148.672003,12.9599978 148.032,13.408 C147.391997,13.8560022 146.586672,14.08 145.616,14.08 C144.954663,14.08 144.309336,13.976001 143.68,13.768 C143.050664,13.559999 142.517336,13.2640019 142.08,12.88 L142.8,11.424 C143.184002,11.7546683 143.642664,12.0133324 144.176,12.2 C144.709336,12.3866676 145.215998,12.48 145.696,12.48 C146.080002,12.48 146.386666,12.413334 146.616,12.28 C146.845334,12.146666 146.96,11.946668 146.96,11.68 C146.96,11.3813318 146.826668,11.1573341 146.56,11.008 C146.293332,10.8586659 145.861336,10.6933342 145.264,10.512 C144.687997,10.3413325 144.218668,10.1733342 143.856,10.008 C143.493332,9.84266584 143.178668,9.59200168 142.912,9.256 C142.645332,8.91999832 142.512,8.48000272 142.512,7.936 C142.512,7.09332912 142.818664,6.45066888 143.432,6.008 C144.045336,5.56533112 144.815995,5.344 145.744,5.344 C146.309336,5.344 146.866664,5.4239992 147.416,5.584 C147.965336,5.7440008 148.453331,5.96799856 148.88,6.256 L148.128,7.76 Z M155.776,13.472 C155.09333,13.8880021 154.37867,14.096 153.632,14.096 C152.895996,14.096 152.293336,13.8800022 151.824,13.448 C151.354664,13.0159978 151.12,12.3786709 151.12,11.536 L151.12,7.312 L149.92,7.312 L149.904,5.792 L151.12,5.792 L151.12,3.44 L153.184,3.44 L153.184,5.792 L155.632,5.792 L155.632,7.312 L153.184,7.312 L153.184,11.168 C153.184,11.5626686 153.258666,11.8426658 153.408,12.008 C153.557334,12.1733342 153.781332,12.256 154.08,12.256 C154.400002,12.256 154.805331,12.1386678 155.296,11.904 L155.776,13.472 Z M161.408,2.128 L163.488,2.128 L163.488,14 L161.408,14 L161.408,2.128 Z M169.904,5.376 C170.789338,5.376 171.570663,5.55733152 172.248,5.92 C172.925337,6.28266848 173.453331,6.79199672 173.832,7.448 C174.210669,8.10400328 174.4,8.8586624 174.4,9.712 C174.4,10.5760043 174.210669,11.3386634 173.832,12 C173.453331,12.6613366 172.925337,13.1733315 172.248,13.536 C171.570663,13.8986685 170.789338,14.08 169.904,14.08 C169.007996,14.08 168.21867,13.8986685 167.536,13.536 C166.85333,13.1733315 166.322669,12.6613366 165.944,12 C165.565331,11.3386634 165.376,10.5760043 165.376,9.712 C165.376,8.8586624 165.565331,8.10400328 165.944,7.448 C166.322669,6.79199672 166.85333,6.28266848 167.536,5.92 C168.21867,5.55733152 169.007996,5.376 169.904,5.376 Z M169.904,7.152 C169.178663,7.152 168.592002,7.3919976 168.144,7.872 C167.695998,8.3520024 167.472,8.97599616 167.472,9.744 C167.472,10.5120038 167.695998,11.1359976 168.144,11.616 C168.592002,12.0960024 169.178663,12.336 169.904,12.336 C170.608004,12.336 171.183998,12.0960024 171.632,11.616 C172.080002,11.1359976 172.304,10.5120038 172.304,9.744 C172.304,8.97599616 172.080002,8.3520024 171.632,7.872 C171.183998,7.3919976 170.608004,7.152 169.904,7.152 Z M182.096,8.144 C181.519997,7.51466352 180.773338,7.2 179.856,7.2 C179.162663,7.2 178.600002,7.43466432 178.168,7.904 C177.735998,8.37333568 177.52,8.9813296 177.52,9.728 C177.52,10.4960038 177.735998,11.1146643 178.168,11.584 C178.600002,12.0533357 179.162663,12.288 179.856,12.288 C180.880005,12.288 181.647997,11.9520034 182.16,11.28 L183.456,12.352 C183.071998,12.9066694 182.565336,13.3333318 181.936,13.632 C181.306664,13.9306682 180.576004,14.08 179.744,14.08 C178.901329,14.08 178.152003,13.8986685 177.496,13.536 C176.839997,13.1733315 176.330668,12.6640033 175.968,12.008 C175.605332,11.3519967 175.424,10.5973376 175.424,9.744 C175.424,8.87999568 175.607998,8.11733664 175.976,7.456 C176.344002,6.79466336 176.855997,6.28266848 177.512,5.92 C178.168003,5.55733152 178.922662,5.376 179.776,5.376 C180.554671,5.376 181.250664,5.51199864 181.864,5.784 C182.477336,6.05600136 182.975998,6.44266416 183.36,6.944 L182.096,8.144 Z M190.288,14 L190.288,12.96 C189.989332,13.3333352 189.605336,13.615999 189.136,13.808 C188.666664,14.000001 188.128003,14.096 187.52,14.096 C186.922664,14.096 186.397336,13.9813345 185.944,13.752 C185.490664,13.5226655 185.141335,13.2053354 184.896,12.8 C184.650665,12.3946646 184.528,11.9413358 184.528,11.44 C184.528,10.639996 184.810664,10.0133356 185.376,9.56 C185.941336,9.1066644 186.741328,8.87466672 187.776,8.864 L190.272,8.864 L190.272,8.64 C190.272,8.13866416 190.106668,7.74933472 189.776,7.472 C189.445332,7.19466528 188.965336,7.056 188.336,7.056 C187.525329,7.056 186.677338,7.322664 185.792,7.856 L185.04,6.416 C185.712003,6.0426648 186.322664,5.77333416 186.872,5.608 C187.421336,5.44266584 188.063996,5.36 188.8,5.36 C189.909339,5.36 190.770664,5.626664 191.384,6.16 C191.997336,6.693336 192.309333,7.4399952 192.32,8.4 L192.336,14 L190.288,14 Z M188.016,12.496 C188.613336,12.496 189.125331,12.3546681 189.552,12.072 C189.978669,11.7893319 190.218666,11.4400021 190.272,11.024 L190.272,10.256 L188.112,10.256 C187.557331,10.256 187.149335,10.3386658 186.888,10.504 C186.626665,10.6693342 186.496,10.9386648 186.496,11.312 C186.496,11.6746685 186.631999,11.9626656 186.904,12.176 C187.176001,12.3893344 187.546664,12.496 188.016,12.496 Z M199.68,13.472 C198.99733,13.8880021 198.28267,14.096 197.536,14.096 C196.799996,14.096 196.197336,13.8800022 195.728,13.448 C195.258664,13.0159978 195.024,12.3786709 195.024,11.536 L195.024,7.312 L193.824,7.312 L193.808,5.792 L195.024,5.792 L195.024,3.44 L197.088,3.44 L197.088,5.792 L199.536,5.792 L199.536,7.312 L197.088,7.312 L197.088,11.168 C197.088,11.5626686 197.162666,11.8426658 197.312,12.008 C197.461334,12.1733342 197.685332,12.256 197.984,12.256 C198.304002,12.256 198.709331,12.1386678 199.2,11.904 L199.68,13.472 Z M201.312,5.44 L203.392,5.44 L203.392,14 L201.312,14 L201.312,5.44 Z M202.336,1.76 C202.677335,1.76 202.959999,1.87733216 203.184,2.112 C203.408001,2.34666784 203.52,2.64533152 203.52,3.008 C203.52,3.36000176 203.408001,3.65333216 203.184,3.888 C202.959999,4.12266784 202.677335,4.24 202.336,4.24 C201.994665,4.24 201.712001,4.12266784 201.488,3.888 C201.263999,3.65333216 201.152,3.36000176 201.152,3.008 C201.152,2.64533152 201.263999,2.34666784 201.488,2.112 C201.712001,1.87733216 201.994665,1.76 202.336,1.76 Z M209.712,5.376 C210.597338,5.376 211.378663,5.55733152 212.056,5.92 C212.733337,6.28266848 213.261331,6.79199672 213.64,7.448 C214.018669,8.10400328 214.208,8.8586624 214.208,9.712 C214.208,10.5760043 214.018669,11.3386634 213.64,12 C213.261331,12.6613366 212.733337,13.1733315 212.056,13.536 C211.378663,13.8986685 210.597338,14.08 209.712,14.08 C208.815996,14.08 208.02667,13.8986685 207.344,13.536 C206.66133,13.1733315 206.130669,12.6613366 205.752,12 C205.373331,11.3386634 205.184,10.5760043 205.184,9.712 C205.184,8.8586624 205.373331,8.10400328 205.752,7.448 C206.130669,6.79199672 206.66133,6.28266848 207.344,5.92 C208.02667,5.55733152 208.815996,5.376 209.712,5.376 Z M209.712,7.152 C208.986663,7.152 208.400002,7.3919976 207.952,7.872 C207.503998,8.3520024 207.28,8.97599616 207.28,9.744 C207.28,10.5120038 207.503998,11.1359976 207.952,11.616 C208.400002,12.0960024 208.986663,12.336 209.712,12.336 C210.416004,12.336 210.991998,12.0960024 211.44,11.616 C211.888002,11.1359976 212.112,10.5120038 212.112,9.744 C212.112,8.97599616 211.888002,8.3520024 211.44,7.872 C210.991998,7.3919976 210.416004,7.152 209.712,7.152 Z M221.168,5.36 C222.149338,5.36 222.922664,5.65599704 223.488,6.248 C224.053336,6.84000296 224.336,7.6426616 224.336,8.656 L224.336,14 L222.24,14 L222.24,9.264 C222.24,8.66666368 222.069335,8.1946684 221.728,7.848 C221.386665,7.5013316 220.92267,7.328 220.336,7.328 C219.642663,7.33866672 219.096002,7.57333104 218.696,8.032 C218.295998,8.49066896 218.096,9.07732976 218.096,9.792 L218.096,14 L216.016,14 L216.016,5.44 L218.096,5.44 L218.096,7.04 C218.68267,5.94132784 219.706659,5.38133344 221.168,5.36 Z" id="Find-the-nearest-loc"></path>
                                            </g>
                                        </g>
                                    </g>
                                    <g id="Group-10">
                                        <g id="Group-6" transform="translate(0.000000, 137.436611)"></g>
                                    </g>
                                </g>
                                <g id="Group-19" opacity="0.5" transform="translate(0.000000, 137.436611)">
                                    <g id="Rectangle-2">
                                        <use fill="black" fill-opacity="1" filter="url(#filter-6)" xlink:href="#path-5"></use>
                                        <use fill="#FFFFFF" fill-rule="evenodd" xlink:href="#path-5"></use>
                                    </g>
                                    <path d="M24.92,29.8909953 L23.736,27.1709953 L17.832,27.1709953 L16.664,29.8909953 L15.048,29.8909953 L20.024,18.6909953 L21.624,18.6909953 L26.584,29.8909953 L24.92,29.8909953 Z M18.44,25.7789953 L23.144,25.7789953 L20.776,20.3389953 L18.44,25.7789953 Z M32.776,21.3789953 C33.5653373,21.3789953 34.2693302,21.5603268 34.888,21.9229953 C35.5066698,22.2856637 35.986665,22.7923253 36.328,23.4429953 C36.669335,24.0936652 36.84,24.8403244 36.84,25.6829953 C36.84,26.5149994 36.6720017,27.2536587 36.336,27.8989953 C35.9999983,28.5443318 35.5253364,29.0456601 34.912,29.4029953 C34.2986636,29.7603304 33.5973373,29.9389953 32.808,29.9389953 C32.0933298,29.9389953 31.4640027,29.7896634 30.92,29.4909953 C30.3759973,29.1923271 29.9493349,28.7656647 29.64,28.2109953 L29.64,32.9949953 L28.152,32.9949953 L28.152,21.4269953 L29.64,21.4269953 L29.64,23.1069953 C29.9493349,22.5523258 30.3733306,22.1256634 30.912,21.8269953 C31.4506694,21.5283271 32.0719965,21.3789953 32.776,21.3789953 Z M32.488,28.6429953 C33.0320027,28.6429953 33.5199978,28.5149965 33.952,28.2589953 C34.3840022,28.002994 34.7199988,27.6456642 34.96,27.1869953 C35.2000012,26.7283263 35.32,26.2109981 35.32,25.6349953 C35.32,25.0696591 35.1973346,24.5576642 34.952,24.0989953 C34.7066654,23.6403263 34.3706688,23.2829965 33.944,23.0269953 C33.5173312,22.770994 33.0320027,22.6429953 32.488,22.6429953 C31.9439973,22.6429953 31.4560022,22.770994 31.024,23.0269953 C30.5919978,23.2829965 30.2533346,23.6403263 30.008,24.0989953 C29.7626654,24.5576642 29.64,25.0696591 29.64,25.6349953 C29.64,26.2216649 29.7626654,26.7416597 30.008,27.1949953 C30.2533346,27.6483309 30.5919978,28.002994 31.024,28.2589953 C31.4560022,28.5149965 31.9439973,28.6429953 32.488,28.6429953 Z M43.624,21.3789953 C44.4133373,21.3789953 45.1173302,21.5603268 45.736,21.9229953 C46.3546698,22.2856637 46.834665,22.7923253 47.176,23.4429953 C47.517335,24.0936652 47.688,24.8403244 47.688,25.6829953 C47.688,26.5149994 47.5200017,27.2536587 47.184,27.8989953 C46.8479983,28.5443318 46.3733364,29.0456601 45.76,29.4029953 C45.1466636,29.7603304 44.4453373,29.9389953 43.656,29.9389953 C42.9413298,29.9389953 42.3120027,29.7896634 41.768,29.4909953 C41.2239973,29.1923271 40.7973349,28.7656647 40.488,28.2109953 L40.488,32.9949953 L39,32.9949953 L39,21.4269953 L40.488,21.4269953 L40.488,23.1069953 C40.7973349,22.5523258 41.2213306,22.1256634 41.76,21.8269953 C42.2986694,21.5283271 42.9199965,21.3789953 43.624,21.3789953 Z M43.336,28.6429953 C43.8800027,28.6429953 44.3679978,28.5149965 44.8,28.2589953 C45.2320022,28.002994 45.5679988,27.6456642 45.808,27.1869953 C46.0480012,26.7283263 46.168,26.2109981 46.168,25.6349953 C46.168,25.0696591 46.0453346,24.5576642 45.8,24.0989953 C45.5546654,23.6403263 45.2186688,23.2829965 44.792,23.0269953 C44.3653312,22.770994 43.8800027,22.6429953 43.336,22.6429953 C42.7919973,22.6429953 42.3040022,22.770994 41.872,23.0269953 C41.4399978,23.2829965 41.1013346,23.6403263 40.856,24.0989953 C40.6106654,24.5576642 40.488,25.0696591 40.488,25.6349953 C40.488,26.2216649 40.6106654,26.7416597 40.856,27.1949953 C41.1013346,27.6483309 41.4399978,28.002994 41.872,28.2589953 C42.3040022,28.5149965 42.7919973,28.6429953 43.336,28.6429953 Z M53.288,21.3789953 C54.1306709,21.3789953 54.8799967,21.5603268 55.536,21.9229953 C56.1920033,22.2856637 56.7039982,22.7896587 57.072,23.4349953 C57.4400018,24.0803318 57.624,24.8189911 57.624,25.6509953 C57.624,26.4829994 57.4400018,27.2243253 57.072,27.8749953 C56.7039982,28.5256652 56.1920033,29.0323268 55.536,29.3949953 C54.8799967,29.7576637 54.1306709,29.9389953 53.288,29.9389953 C52.4346624,29.9389953 51.6800033,29.7576637 51.024,29.3949953 C50.3679967,29.0323268 49.8560018,28.5283318 49.488,27.8829953 C49.1199982,27.2376587 48.936,26.4936661 48.936,25.6509953 C48.936,24.8189911 49.1199982,24.0803318 49.488,23.4349953 C49.8560018,22.7896587 50.3679967,22.2856637 51.024,21.9229953 C51.6800033,21.5603268 52.4346624,21.3789953 53.288,21.3789953 Z M53.288,22.6749953 C52.7333306,22.6749953 52.2400022,22.802994 51.808,23.0589953 C51.3759978,23.3149965 51.0400012,23.6696597 50.8,24.1229953 C50.5599988,24.5763309 50.44,25.0909924 50.44,25.6669953 C50.44,26.2536649 50.5599988,26.7763263 50.8,27.2349953 C51.0400012,27.6936642 51.3759978,28.0483273 51.808,28.2989953 C52.2400022,28.5496632 52.7333306,28.6749953 53.288,28.6749953 C53.8320027,28.6749953 54.3199978,28.5496632 54.752,28.2989953 C55.1840022,28.0483273 55.5199988,27.6936642 55.76,27.2349953 C56.0000012,26.7763263 56.12,26.2536649 56.12,25.6669953 C56.12,25.0909924 56.0000012,24.5763309 55.76,24.1229953 C55.5199988,23.6696597 55.1840022,23.3149965 54.752,23.0589953 C54.3199978,22.802994 53.8320027,22.6749953 53.288,22.6749953 Z M59.704,21.4269953 L61.192,21.4269953 L61.192,29.8909953 L59.704,29.8909953 L59.704,21.4269953 Z M60.44,18.0509953 C60.706668,18.0509953 60.9279991,18.141661 61.104,18.3229953 C61.2800009,18.5043295 61.368,18.7336605 61.368,19.0109953 C61.368,19.28833 61.2800009,19.517661 61.104,19.6989953 C60.9279991,19.8803295 60.706668,19.9709953 60.44,19.9709953 C60.173332,19.9709953 59.9520009,19.8803295 59.776,19.6989953 C59.5999991,19.517661 59.512,19.28833 59.512,19.0109953 C59.512,18.7336605 59.5999991,18.5043295 59.776,18.3229953 C59.9520009,18.141661 60.173332,18.0509953 60.44,18.0509953 Z M68.792,21.3789953 C69.784005,21.3789953 70.5626638,21.669659 71.128,22.2509953 C71.6933362,22.8323315 71.976,23.6349901 71.976,24.6589953 L71.976,29.8909953 L70.488,29.8909953 L70.488,25.0589953 C70.488,24.344325 70.288002,23.7869973 69.888,23.3869953 C69.487998,22.9869933 68.9360035,22.7869953 68.232,22.7869953 C67.4746629,22.797662 66.858669,23.0403262 66.384,23.5149953 C65.909331,23.9896643 65.6400003,24.6056581 65.576,25.3629953 L65.576,29.8909953 L64.088,29.8909953 L64.088,21.4269953 L65.576,21.4269953 L65.576,23.2189953 C66.1413362,22.0136559 67.2133254,21.4003287 68.792,21.3789953 Z M79.176,29.3309953 C78.5253301,29.7469973 77.8640034,29.9549953 77.192,29.9549953 C76.5199966,29.9549953 75.9760021,29.7549973 75.56,29.3549953 C75.1439979,28.9549933 74.936,28.349666 74.936,27.5389953 L74.936,22.8509953 L73.736,22.8509953 L73.736,21.7149953 L74.936,21.7149953 L74.936,19.4429953 L76.44,19.4429953 L76.44,21.7149953 L79.032,21.7149953 L79.032,22.8509953 L76.44,22.8509953 L76.44,27.2669953 C76.44,27.7363309 76.5253325,28.0723276 76.696,28.2749953 C76.8666675,28.4776629 77.122665,28.5789953 77.464,28.5789953 C77.8693354,28.5789953 78.3066643,28.4456633 78.776,28.1789953 L79.176,29.3309953 Z M91.912,21.3789953 C92.8826715,21.3789953 93.6453306,21.6723257 94.2,22.2589953 C94.7546694,22.8456649 95.032,23.6456569 95.032,24.6589953 L95.032,29.8909953 L93.528,29.8909953 L93.528,25.0589953 C93.528,24.344325 93.3333353,23.7843306 92.944,23.3789953 C92.5546647,22.9736599 92.0186701,22.7709953 91.336,22.7709953 C90.535996,22.7923287 89.906669,23.0749925 89.448,23.6189953 C88.989331,24.162998 88.76,24.8616577 88.76,25.7149953 L88.76,29.8909953 L87.256,29.8909953 L87.256,25.0589953 C87.256,24.344325 87.0640019,23.7843306 86.68,23.3789953 C86.2959981,22.9736599 85.7573368,22.7709953 85.064,22.7709953 C84.263996,22.7923287 83.6320023,23.0749925 83.168,23.6189953 C82.7039977,24.162998 82.472,24.8616577 82.472,25.7149953 L82.472,29.8909953 L80.984,29.8909953 L80.984,21.4269953 L82.472,21.4269953 L82.472,23.2029953 C83.0266694,22.0083226 84.0773256,21.4003287 85.624,21.3789953 C86.4026706,21.3789953 87.0506641,21.5656601 87.568,21.9389953 C88.0853359,22.3123305 88.4346658,22.8349919 88.616,23.5069953 C89.1386693,22.1096549 90.237325,21.4003287 91.912,21.3789953 Z M101.08,21.3789953 C102.392007,21.3789953 103.383997,21.7656581 104.056,22.5389953 C104.728003,23.3123325 105.064,24.3869884 105.064,25.7629953 C105.064,25.9763297 105.058667,26.1363281 105.048,26.2429953 L98.36,26.2429953 C98.4773339,27.0003324 98.7946641,27.602993 99.312,28.0509953 C99.8293359,28.4989975 100.466663,28.7229953 101.224,28.7229953 C101.725336,28.7229953 102.191998,28.6323295 102.624,28.4509953 C103.056002,28.269661 103.431998,28.0136636 103.752,27.6829953 L104.568,28.5309953 C104.151998,28.9789975 103.65067,29.3256607 103.064,29.5709953 C102.47733,29.8163298 101.82667,29.9389953 101.112,29.9389953 C100.279996,29.9389953 99.5413366,29.7603304 98.896,29.4029953 C98.2506634,29.0456601 97.7493351,28.5416652 97.392,27.8909953 C97.0346649,27.2403253 96.856,26.4989994 96.856,25.6669953 C96.856,24.8349911 97.0346649,24.0963318 97.392,23.4509953 C97.7493351,22.8056587 98.2479968,22.2989971 98.888,21.9309953 C99.5280032,21.5629934 100.258663,21.3789953 101.08,21.3789953 Z M103.72,25.0909953 C103.677333,24.3229914 103.421336,23.7176641 102.952,23.2749953 C102.482664,22.8323264 101.864004,22.6109953 101.096,22.6109953 C100.34933,22.6109953 99.7280025,22.834993 99.232,23.2829953 C98.7359975,23.7309975 98.4400005,24.3336581 98.344,25.0909953 L103.72,25.0909953 Z M111.8,21.3789953 C112.792005,21.3789953 113.570664,21.669659 114.136,22.2509953 C114.701336,22.8323315 114.984,23.6349901 114.984,24.6589953 L114.984,29.8909953 L113.496,29.8909953 L113.496,25.0589953 C113.496,24.344325 113.296002,23.7869973 112.896,23.3869953 C112.495998,22.9869933 111.944004,22.7869953 111.24,22.7869953 C110.482663,22.797662 109.866669,23.0403262 109.392,23.5149953 C108.917331,23.9896643 108.648,24.6056581 108.584,25.3629953 L108.584,29.8909953 L107.096,29.8909953 L107.096,21.4269953 L108.584,21.4269953 L108.584,23.2189953 C109.149336,22.0136559 110.221325,21.4003287 111.8,21.3789953 Z M122.184,29.3309953 C121.53333,29.7469973 120.872003,29.9549953 120.2,29.9549953 C119.527997,29.9549953 118.984002,29.7549973 118.568,29.3549953 C118.151998,28.9549933 117.944,28.349666 117.944,27.5389953 L117.944,22.8509953 L116.744,22.8509953 L116.744,21.7149953 L117.944,21.7149953 L117.944,19.4429953 L119.448,19.4429953 L119.448,21.7149953 L122.04,21.7149953 L122.04,22.8509953 L119.448,22.8509953 L119.448,27.2669953 C119.448,27.7363309 119.533332,28.0723276 119.704,28.2749953 C119.874668,28.4776629 120.130665,28.5789953 120.472,28.5789953 C120.877335,28.5789953 121.314664,28.4456633 121.784,28.1789953 L122.184,29.3309953 Z M132.808,23.2989953 C132.455998,23.0856609 132.069335,22.9149959 131.648,22.7869953 C131.226665,22.6589946 130.824002,22.5949953 130.44,22.5949953 C129.991998,22.5949953 129.632001,22.6776611 129.36,22.8429953 C129.087999,23.0083294 128.952,23.2616602 128.952,23.6029953 C128.952,23.9443303 129.103998,24.2029944 129.408,24.3789953 C129.712002,24.5549961 130.17333,24.733661 130.792,24.9149953 C131.37867,25.0856628 131.858665,25.2563277 132.232,25.4269953 C132.605335,25.5976628 132.922665,25.8483269 133.184,26.1789953 C133.445335,26.5096636 133.576,26.9469925 133.576,27.4909953 C133.576,28.2909993 133.27467,28.8989932 132.672,29.3149953 C132.06933,29.7309973 131.320004,29.9389953 130.424,29.9389953 C129.794664,29.9389953 129.184003,29.8376629 128.592,29.6349953 C127.999997,29.4323276 127.501335,29.1443305 127.096,28.7709953 L127.656,27.6829953 C128.008002,28.0029969 128.442664,28.2589943 128.96,28.4509953 C129.477336,28.6429962 129.981331,28.7389953 130.472,28.7389953 C130.962669,28.7389953 131.357332,28.6483295 131.656,28.4669953 C131.954668,28.285661 132.104,28.0083305 132.104,27.6349953 C132.104,27.2509933 131.946668,26.9629962 131.632,26.7709953 C131.317332,26.5789943 130.840003,26.3869962 130.2,26.1949953 C129.634664,26.0349945 129.173335,25.8723294 128.816,25.7069953 C128.458665,25.5416611 128.154668,25.2989969 127.904,24.9789953 C127.653332,24.6589937 127.528,24.2429978 127.528,23.7309953 C127.528,22.941658 127.815997,22.3496639 128.392,21.9549953 C128.968003,21.5603266 129.687996,21.3629953 130.552,21.3629953 C131.064003,21.3629953 131.567998,21.4349945 132.064,21.5789953 C132.560002,21.722996 132.989332,21.9176607 133.352,22.1629953 L132.808,23.2989953 Z M135.624,18.0189953 L137.112,18.0189953 L137.112,29.8909953 L135.624,29.8909953 L135.624,18.0189953 Z M143.624,21.3789953 C144.466671,21.3789953 145.215997,21.5603268 145.872,21.9229953 C146.528003,22.2856637 147.039998,22.7896587 147.408,23.4349953 C147.776002,24.0803318 147.96,24.8189911 147.96,25.6509953 C147.96,26.4829994 147.776002,27.2243253 147.408,27.8749953 C147.039998,28.5256652 146.528003,29.0323268 145.872,29.3949953 C145.215997,29.7576637 144.466671,29.9389953 143.624,29.9389953 C142.770662,29.9389953 142.016003,29.7576637 141.36,29.3949953 C140.703997,29.0323268 140.192002,28.5283318 139.824,27.8829953 C139.455998,27.2376587 139.272,26.4936661 139.272,25.6509953 C139.272,24.8189911 139.455998,24.0803318 139.824,23.4349953 C140.192002,22.7896587 140.703997,22.2856637 141.36,21.9229953 C142.016003,21.5603268 142.770662,21.3789953 143.624,21.3789953 Z M143.624,22.6749953 C143.069331,22.6749953 142.576002,22.802994 142.144,23.0589953 C141.711998,23.3149965 141.376001,23.6696597 141.136,24.1229953 C140.895999,24.5763309 140.776,25.0909924 140.776,25.6669953 C140.776,26.2536649 140.895999,26.7763263 141.136,27.2349953 C141.376001,27.6936642 141.711998,28.0483273 142.144,28.2989953 C142.576002,28.5496632 143.069331,28.6749953 143.624,28.6749953 C144.168003,28.6749953 144.655998,28.5496632 145.088,28.2989953 C145.520002,28.0483273 145.855999,27.6936642 146.096,27.2349953 C146.336001,26.7763263 146.456,26.2536649 146.456,25.6669953 C146.456,25.0909924 146.336001,24.5763309 146.096,24.1229953 C145.855999,23.6696597 145.520002,23.3149965 145.088,23.0589953 C144.655998,22.802994 144.168003,22.6749953 143.624,22.6749953 Z M154.584,29.3309953 C153.93333,29.7469973 153.272003,29.9549953 152.6,29.9549953 C151.927997,29.9549953 151.384002,29.7549973 150.968,29.3549953 C150.551998,28.9549933 150.344,28.349666 150.344,27.5389953 L150.344,22.8509953 L149.144,22.8509953 L149.144,21.7149953 L150.344,21.7149953 L150.344,19.4429953 L151.848,19.4429953 L151.848,21.7149953 L154.44,21.7149953 L154.44,22.8509953 L151.848,22.8509953 L151.848,27.2669953 C151.848,27.7363309 151.933332,28.0723276 152.104,28.2749953 C152.274668,28.4776629 152.530665,28.5789953 152.872,28.5789953 C153.277335,28.5789953 153.714664,28.4456633 154.184,28.1789953 L154.584,29.3309953 Z" id="Appointment-slot" fill="#363A4F"></path>
                                    <g id="Rectangle-2">
                                        <use fill="black" fill-opacity="1" filter="url(#filter-8)" xlink:href="#path-7"></use>
                                        <use fill="#FFFFFF" fill-rule="evenodd" xlink:href="#path-7"></use>
                                    </g>
                                    <path d="M25.032,75.1276066 L20.84,82.4876066 L20.84,86.3276066 L19.304,86.3276066 L19.304,82.5516066 L15.048,75.1276066 L16.616,75.1276066 L20.072,80.8396066 L23.464,75.1276066 L25.032,75.1276066 Z M30.056,77.8156066 C30.8986709,77.8156066 31.6479967,77.9969382 32.304,78.3596066 C32.9600033,78.7222751 33.4719982,79.2262701 33.84,79.8716066 C34.2080018,80.5169432 34.392,81.2556025 34.392,82.0876066 C34.392,82.9196108 34.2080018,83.6609367 33.84,84.3116066 C33.4719982,84.9622766 32.9600033,85.4689382 32.304,85.8316066 C31.6479967,86.1942751 30.8986709,86.3756066 30.056,86.3756066 C29.2026624,86.3756066 28.4480033,86.1942751 27.792,85.8316066 C27.1359967,85.4689382 26.6240018,84.9649432 26.256,84.3196066 C25.8879982,83.6742701 25.704,82.9302775 25.704,82.0876066 C25.704,81.2556025 25.8879982,80.5169432 26.256,79.8716066 C26.6240018,79.2262701 27.1359967,78.7222751 27.792,78.3596066 C28.4480033,77.9969382 29.2026624,77.8156066 30.056,77.8156066 Z M30.056,79.1116066 C29.5013306,79.1116066 29.0080022,79.2396054 28.576,79.4956066 C28.1439978,79.7516079 27.8080012,80.106271 27.568,80.5596066 C27.3279988,81.0129422 27.208,81.5276038 27.208,82.1036066 C27.208,82.6902762 27.3279988,83.2129377 27.568,83.6716066 C27.8080012,84.1302756 28.1439978,84.4849387 28.576,84.7356066 C29.0080022,84.9862746 29.5013306,85.1116066 30.056,85.1116066 C30.6000027,85.1116066 31.0879978,84.9862746 31.52,84.7356066 C31.9520022,84.4849387 32.2879988,84.1302756 32.528,83.6716066 C32.7680012,83.2129377 32.888,82.6902762 32.888,82.1036066 C32.888,81.5276038 32.7680012,81.0129422 32.528,80.5596066 C32.2879988,80.106271 31.9520022,79.7516079 31.52,79.4956066 C31.0879978,79.2396054 30.6000027,79.1116066 30.056,79.1116066 Z M43.96,77.8636066 L43.96,86.3276066 L42.456,86.3276066 L42.456,84.5356066 C41.9013306,85.740946 40.8560077,86.3542732 39.32,86.3756066 C38.3386618,86.3756066 37.5706694,86.0849429 37.016,85.5036066 C36.4613306,84.9222704 36.184,84.1196118 36.184,83.0956066 L36.184,77.8636066 L37.688,77.8636066 L37.688,82.6956066 C37.688,83.4102769 37.8826647,83.9676046 38.272,84.3676066 C38.6613353,84.7676086 39.1973299,84.9676066 39.88,84.9676066 C40.6693373,84.9569399 41.2959977,84.6769427 41.76,84.1276066 C42.2240023,83.5782706 42.456,82.8769442 42.456,82.0236066 L42.456,77.8636066 L43.96,77.8636066 Z M48.344,79.6876066 C48.6213347,79.0796036 49.0159974,78.6182749 49.528,78.3036066 C50.0400026,77.9889384 50.6479965,77.8262734 51.352,77.8156066 L51.352,79.2556066 C50.4879957,79.2236065 49.789336,79.4476042 49.256,79.9276066 C48.722664,80.407609 48.418667,81.0529359 48.344,81.8636066 L48.344,86.3276066 L46.856,86.3276066 L46.856,77.8636066 L48.344,77.8636066 L48.344,79.6876066 Z M60.28,75.6876066 C59.8959981,75.6876066 59.5760013,75.8049388 59.32,76.0396066 C59.0639987,76.2742745 58.936,76.6102711 58.936,77.0476066 L58.936,78.1516066 L61.272,78.1516066 L61.272,79.2876066 L58.936,79.2876066 L58.936,86.3276066 L57.448,86.3276066 L57.448,79.2876066 L56.344,79.2876066 L56.344,78.1516066 L57.448,78.1516066 L57.448,77.2396066 C57.448,76.6209369 57.5786654,76.0956088 57.84,75.6636066 C58.1013346,75.2316045 58.4453312,74.9062744 58.872,74.6876066 C59.2986688,74.4689389 59.7573309,74.3596066 60.248,74.3596066 C60.7173357,74.3596066 61.2079974,74.4876054 61.72,74.7436066 L61.368,75.9596066 C60.9839981,75.7782724 60.621335,75.6876066 60.28,75.6876066 Z M62.632,77.8636066 L64.12,77.8636066 L64.12,86.3276066 L62.632,86.3276066 L62.632,77.8636066 Z M63.368,74.4876066 C63.634668,74.4876066 63.8559991,74.5782724 64.032,74.7596066 C64.2080009,74.9409409 64.296,75.1702719 64.296,75.4476066 C64.296,75.7249414 64.2080009,75.9542724 64.032,76.1356066 C63.8559991,76.3169409 63.634668,76.4076066 63.368,76.4076066 C63.101332,76.4076066 62.8800009,76.3169409 62.704,76.1356066 C62.5279991,75.9542724 62.44,75.7249414 62.44,75.4476066 C62.44,75.1702719 62.5279991,74.9409409 62.704,74.7596066 C62.8800009,74.5782724 63.101332,74.4876066 63.368,74.4876066 Z M68.504,79.6876066 C68.7813347,79.0796036 69.1759974,78.6182749 69.688,78.3036066 C70.2000026,77.9889384 70.8079965,77.8262734 71.512,77.8156066 L71.512,79.2556066 C70.6479957,79.2236065 69.949336,79.4476042 69.416,79.9276066 C68.882664,80.407609 68.578667,81.0529359 68.504,81.8636066 L68.504,86.3276066 L67.016,86.3276066 L67.016,77.8636066 L68.504,77.8636066 L68.504,79.6876066 Z M77.752,79.7356066 C77.3999982,79.5222722 77.0133354,79.3516073 76.592,79.2236066 C76.1706646,79.095606 75.7680019,79.0316066 75.384,79.0316066 C74.9359978,79.0316066 74.5760014,79.1142725 74.304,79.2796066 C74.0319986,79.4449408 73.896,79.6982716 73.896,80.0396066 C73.896,80.3809417 74.0479985,80.6396058 74.352,80.8156066 C74.6560015,80.9916075 75.1173302,81.1702724 75.736,81.3516066 C76.3226696,81.5222742 76.8026648,81.6929391 77.176,81.8636066 C77.5493352,82.0342742 77.8666654,82.2849383 78.128,82.6156066 C78.3893346,82.946275 78.52,83.3836039 78.52,83.9276066 C78.52,84.7276106 78.2186697,85.3356046 77.616,85.7516066 C77.0133303,86.1676087 76.2640045,86.3756066 75.368,86.3756066 C74.7386635,86.3756066 74.128003,86.2742743 73.536,86.0716066 C72.943997,85.868939 72.4453354,85.5809418 72.04,85.2076066 L72.6,84.1196066 C72.9520018,84.4396082 73.3866641,84.6956057 73.904,84.8876066 C74.4213359,85.0796076 74.9253309,85.1756066 75.416,85.1756066 C75.9066691,85.1756066 76.3013318,85.0849409 76.6,84.9036066 C76.8986682,84.7222724 77.048,84.4449418 77.048,84.0716066 C77.048,83.6876047 76.8906682,83.3996076 76.576,83.2076066 C76.2613318,83.0156057 75.7840032,82.8236076 75.144,82.6316066 C74.5786638,82.4716058 74.1173351,82.3089408 73.76,82.1436066 C73.4026649,81.9782725 73.0986679,81.7356082 72.848,81.4156066 C72.5973321,81.095605 72.472,80.6796092 72.472,80.1676066 C72.472,79.3782694 72.7599971,78.7862753 73.336,78.3916066 C73.9120029,77.996938 74.6319957,77.7996066 75.496,77.7996066 C76.0080026,77.7996066 76.5119975,77.8716059 77.008,78.0156066 C77.5040025,78.1596074 77.9333315,78.3542721 78.296,78.5996066 L77.752,79.7356066 Z M85.032,85.7676066 C84.3813301,86.1836087 83.7200034,86.3916066 83.048,86.3916066 C82.3759966,86.3916066 81.8320021,86.1916086 81.416,85.7916066 C80.9999979,85.3916046 80.792,84.7862774 80.792,83.9756066 L80.792,79.2876066 L79.592,79.2876066 L79.592,78.1516066 L80.792,78.1516066 L80.792,75.8796066 L82.296,75.8796066 L82.296,78.1516066 L84.888,78.1516066 L84.888,79.2876066 L82.296,79.2876066 L82.296,83.7036066 C82.296,84.1729423 82.3813325,84.508939 82.552,84.7116066 C82.7226675,84.9142743 82.978665,85.0156066 83.32,85.0156066 C83.7253354,85.0156066 84.1626643,84.8822746 84.632,84.6156066 L85.032,85.7676066 Z M95.736,77.8156066 C96.728005,77.8156066 97.5066638,78.1062704 98.072,78.6876066 C98.6373362,79.2689429 98.92,80.0716015 98.92,81.0956066 L98.92,86.3276066 L97.432,86.3276066 L97.432,81.4956066 C97.432,80.7809364 97.232002,80.2236086 96.832,79.8236066 C96.431998,79.4236046 95.8800035,79.2236066 95.176,79.2236066 C94.4186629,79.2342734 93.802669,79.4769376 93.328,79.9516066 C92.853331,80.4262757 92.5840003,81.0422695 92.52,81.7996066 L92.52,86.3276066 L91.032,86.3276066 L91.032,77.8636066 L92.52,77.8636066 L92.52,79.6556066 C93.0853362,78.4502673 94.1573254,77.8369401 95.736,77.8156066 Z M106.744,86.3276066 L106.744,85.1436066 C106.114664,85.9756108 105.128007,86.3916066 103.784,86.3916066 C103.19733,86.3916066 102.682669,86.2796078 102.24,86.0556066 C101.797331,85.8316055 101.456001,85.5222753 101.216,85.1276066 C100.975999,84.732938 100.856,84.2902758 100.856,83.7996066 C100.856,83.0422695 101.135997,82.4422755 101.696,81.9996066 C102.256003,81.5569378 103.037328,81.3302734 104.04,81.3196066 L106.728,81.3196066 L106.728,80.9196066 C106.728,80.3222703 106.544002,79.8609416 106.176,79.5356066 C105.807998,79.2102717 105.272004,79.0476066 104.568,79.0476066 C103.714662,79.0476066 102.845338,79.3516036 101.96,79.9596066 L101.336,78.9356066 C101.944003,78.540938 102.506664,78.2556075 103.024,78.0796066 C103.541336,77.9036058 104.15733,77.8156066 104.872,77.8156066 C105.928005,77.8156066 106.743997,78.0742707 107.32,78.5916066 C107.896003,79.1089426 108.189333,79.831602 108.2,80.7596066 L108.216,86.3276066 L106.744,86.3276066 Z M104.088,85.1596066 C104.781337,85.1596066 105.370664,84.9916083 105.856,84.6556066 C106.341336,84.319605 106.632,83.8742761 106.728,83.3196066 L106.728,82.4716066 L104.248,82.4716066 C103.575997,82.4716066 103.077335,82.572939 102.752,82.7756066 C102.426665,82.9782743 102.264,83.2982711 102.264,83.7356066 C102.264,84.1729422 102.429332,84.5196054 102.76,84.7756066 C103.090668,85.0316079 103.533331,85.1596066 104.088,85.1596066 Z M121.8,77.8156066 C122.770672,77.8156066 123.533331,78.108937 124.088,78.6956066 C124.642669,79.2822762 124.92,80.0822682 124.92,81.0956066 L124.92,86.3276066 L123.416,86.3276066 L123.416,81.4956066 C123.416,80.7809364 123.221335,80.220942 122.832,79.8156066 C122.442665,79.4102713 121.90667,79.2076066 121.224,79.2076066 C120.423996,79.2289401 119.794669,79.5116039 119.336,80.0556066 C118.877331,80.5996094 118.648,81.298269 118.648,82.1516066 L118.648,86.3276066 L117.144,86.3276066 L117.144,81.4956066 C117.144,80.7809364 116.952002,80.220942 116.568,79.8156066 C116.183998,79.4102713 115.645337,79.2076066 114.952,79.2076066 C114.151996,79.2289401 113.520002,79.5116039 113.056,80.0556066 C112.591998,80.5996094 112.36,81.298269 112.36,82.1516066 L112.36,86.3276066 L110.872,86.3276066 L110.872,77.8636066 L112.36,77.8636066 L112.36,79.6396066 C112.914669,78.444934 113.965326,77.8369401 115.512,77.8156066 C116.290671,77.8156066 116.938664,78.0022714 117.456,78.3756066 C117.973336,78.7489418 118.322666,79.2716033 118.504,79.9436066 C119.026669,78.5462663 120.125325,77.8369401 121.8,77.8156066 Z M130.968,77.8156066 C132.280007,77.8156066 133.271997,78.2022694 133.944,78.9756066 C134.616003,79.7489438 134.952,80.8235998 134.952,82.1996066 C134.952,82.412941 134.946667,82.5729394 134.936,82.6796066 L128.248,82.6796066 C128.365334,83.4369438 128.682664,84.0396044 129.2,84.4876066 C129.717336,84.9356089 130.354663,85.1596066 131.112,85.1596066 C131.613336,85.1596066 132.079998,85.0689409 132.512,84.8876066 C132.944002,84.7062724 133.319998,84.450275 133.64,84.1196066 L134.456,84.9676066 C134.039998,85.4156089 133.53867,85.7622721 132.952,86.0076066 C132.36533,86.2529412 131.71467,86.3756066 131,86.3756066 C130.167996,86.3756066 129.429337,86.1969418 128.784,85.8396066 C128.138663,85.4822715 127.637335,84.9782766 127.28,84.3276066 C126.922665,83.6769367 126.744,82.9356108 126.744,82.1036066 C126.744,81.2716025 126.922665,80.5329432 127.28,79.8876066 C127.637335,79.2422701 128.135997,78.7356085 128.776,78.3676066 C129.416003,77.9996048 130.146663,77.8156066 130.968,77.8156066 Z M133.608,81.5276066 C133.565333,80.7596028 133.309336,80.1542755 132.84,79.7116066 C132.370664,79.2689378 131.752004,79.0476066 130.984,79.0476066 C130.23733,79.0476066 129.616002,79.2716044 129.12,79.7196066 C128.623998,80.1676089 128.328,80.7702695 128.232,81.5276066 L133.608,81.5276066 Z" id="Your-first-name" fill="#363A4F"></path>
                                    <g id="Rectangle-2">
                                        <use fill="black" fill-opacity="1" filter="url(#filter-10)" xlink:href="#path-9"></use>
                                        <use fill="#FFFFFF" fill-rule="evenodd" xlink:href="#path-9"></use>
                                    </g>
                                    <path d="M20.92,132.564218 C22.3173403,132.564218 23.3973295,132.894881 24.16,133.556218 C24.9226705,134.217555 25.304,135.145545 25.304,136.340218 C25.304,137.588224 24.9200038,138.556215 24.152,139.244218 C23.3839962,139.932221 22.3066736,140.276218 20.92,140.276218 L18.136,140.276218 L18.136,143.764218 L16.6,143.764218 L16.6,132.564218 L20.92,132.564218 Z M20.856,138.884218 C21.8160048,138.884218 22.5519974,138.673553 23.064,138.252218 C23.5760026,137.830883 23.832,137.209555 23.832,136.388218 C23.832,135.588214 23.5760026,134.982887 23.064,134.572218 C22.5519974,134.161549 21.8160048,133.956218 20.856,133.956218 L18.136,133.972218 L18.136,138.884218 L20.856,138.884218 Z M31.992,135.252218 C32.984005,135.252218 33.7626638,135.542882 34.328,136.124218 C34.8933362,136.705554 35.176,137.508213 35.176,138.532218 L35.176,143.764218 L33.688,143.764218 L33.688,138.932218 C33.688,138.217548 33.488002,137.66022 33.088,137.260218 C32.687998,136.860216 32.1360035,136.660218 31.432,136.660218 C30.6106626,136.670885 29.9600024,136.948215 29.48,137.492218 C28.9999976,138.036221 28.76,138.740214 28.76,139.604218 L28.76,143.764218 L27.272,143.764218 L27.272,131.892218 L28.76,131.892218 L28.76,137.124218 C29.3253362,135.897545 30.4026587,135.273551 31.992,135.252218 Z M41.352,135.252218 C42.1946709,135.252218 42.9439967,135.43355 43.6,135.796218 C44.2560033,136.158886 44.7679982,136.662881 45.136,137.308218 C45.5040018,137.953555 45.688,138.692214 45.688,139.524218 C45.688,140.356222 45.5040018,141.097548 45.136,141.748218 C44.7679982,142.398888 44.2560033,142.90555 43.6,143.268218 C42.9439967,143.630886 42.1946709,143.812218 41.352,143.812218 C40.4986624,143.812218 39.7440033,143.630886 39.088,143.268218 C38.4319967,142.90555 37.9200018,142.401555 37.552,141.756218 C37.1839982,141.110881 37,140.366889 37,139.524218 C37,138.692214 37.1839982,137.953555 37.552,137.308218 C37.9200018,136.662881 38.4319967,136.158886 39.088,135.796218 C39.7440033,135.43355 40.4986624,135.252218 41.352,135.252218 Z M41.352,136.548218 C40.7973306,136.548218 40.3040022,136.676217 39.872,136.932218 C39.4399978,137.188219 39.1040012,137.542882 38.864,137.996218 C38.6239988,138.449554 38.504,138.964215 38.504,139.540218 C38.504,140.126888 38.6239988,140.649549 38.864,141.108218 C39.1040012,141.566887 39.4399978,141.92155 39.872,142.172218 C40.3040022,142.422886 40.7973306,142.548218 41.352,142.548218 C41.8960027,142.548218 42.3839978,142.422886 42.816,142.172218 C43.2480022,141.92155 43.5839988,141.566887 43.824,141.108218 C44.0640012,140.649549 44.184,140.126888 44.184,139.540218 C44.184,138.964215 44.0640012,138.449554 43.824,137.996218 C43.5839988,137.542882 43.2480022,137.188219 42.816,136.932218 C42.3839978,136.676217 41.8960027,136.548218 41.352,136.548218 Z M52.472,135.252218 C53.464005,135.252218 54.2426638,135.542882 54.808,136.124218 C55.3733362,136.705554 55.656,137.508213 55.656,138.532218 L55.656,143.764218 L54.168,143.764218 L54.168,138.932218 C54.168,138.217548 53.968002,137.66022 53.568,137.260218 C53.167998,136.860216 52.6160035,136.660218 51.912,136.660218 C51.1546629,136.670885 50.538669,136.913549 50.064,137.388218 C49.589331,137.862887 49.3200003,138.478881 49.256,139.236218 L49.256,143.764218 L47.768,143.764218 L47.768,135.300218 L49.256,135.300218 L49.256,137.092218 C49.8213362,135.886879 50.8933254,135.273551 52.472,135.252218 Z M61.704,135.252218 C63.0160066,135.252218 64.0079966,135.638881 64.68,136.412218 C65.3520034,137.185555 65.688,138.260211 65.688,139.636218 C65.688,139.849552 65.6826667,140.009551 65.672,140.116218 L58.984,140.116218 C59.1013339,140.873555 59.4186641,141.476216 59.936,141.924218 C60.4533359,142.37222 61.0906629,142.596218 61.848,142.596218 C62.3493358,142.596218 62.8159978,142.505552 63.248,142.324218 C63.6800022,142.142884 64.0559984,141.886886 64.376,141.556218 L65.192,142.404218 C64.7759979,142.85222 64.2746696,143.198883 63.688,143.444218 C63.1013304,143.689553 62.4506702,143.812218 61.736,143.812218 C60.9039958,143.812218 60.1653366,143.633553 59.52,143.276218 C58.8746634,142.918883 58.3733351,142.414888 58.016,141.764218 C57.6586649,141.113548 57.48,140.372222 57.48,139.540218 C57.48,138.708214 57.6586649,137.969555 58.016,137.324218 C58.3733351,136.678881 58.8719968,136.17222 59.512,135.804218 C60.1520032,135.436216 60.8826626,135.252218 61.704,135.252218 Z M64.344,138.964218 C64.3013331,138.196214 64.0453357,137.590887 63.576,137.148218 C63.1066643,136.705549 62.4880038,136.484218 61.72,136.484218 C60.9733296,136.484218 60.3520025,136.708216 59.856,137.156218 C59.3599975,137.60422 59.0640005,138.206881 58.968,138.964218 L64.344,138.964218 Z" id="Phone" fill="#363A4F"></path>
                                    <polygon id="arrow-icon" fill="#697095" transform="translate(372.207555, 22.326126) rotate(-90.000000) translate(-372.207555, -22.326126) " points="369.130136 22.3244892 372.207555 27.1913507 375.157113 27.1913507 372.060013 22.3244891 375.284975 17.4609005 372.207555 17.4609005"></polygon>
                                    <polygon id="arrow-icon" fill="#697095" transform="translate(372.207555, 78.762737) rotate(-90.000000) translate(-372.207555, -78.762737) " points="369.130136 78.7611006 372.207555 83.6279621 375.157113 83.6279621 372.060013 78.7611004 375.284975 73.8975118 372.207555 73.8975118"></polygon>
                                    <polygon id="arrow-icon" fill="#697095" transform="translate(372.207555, 136.199348) rotate(-90.000000) translate(-372.207555, -136.199348) " points="369.130136 136.197712 372.207555 141.064573 375.157113 141.064573 372.060013 136.197712 375.284975 131.334123 372.207555 131.334123"></polygon>
                                </g>
                            </g>
                        </g>
                    </g>
                </g>
            </g>
        </g>
    </g>
</svg>