<?xml version="1.0" encoding="UTF-8"?>
<svg width="326px" height="190px" viewBox="0 0 326 190" version="1.1" xmlns="http://www.w3.org/2000/svg" xmlns:xlink="http://www.w3.org/1999/xlink">
    <!-- Generator: Sketch 51.1 (57501) - http://www.bohemiancoding.com/sketch -->
    <title>Group 29</title>
    <desc>Created with Sketch.</desc>
    <defs>
        <path d="M218,136 L318,136 C320.209139,136 322,137.790861 322,140 L322,181 C322,183.209139 320.209139,185 318,185 L218,185 L218,136 Z" id="path-1"></path>
        <filter x="-6.2%" y="-11.2%" width="112.5%" height="126.5%" filterUnits="objectBoundingBox" id="filter-2">
            <feOffset dx="0" dy="1" in="SourceAlpha" result="shadowOffsetOuter1"></feOffset>
            <feGaussianBlur stdDeviation="2" in="shadowOffsetOuter1" result="shadowBlurOuter1"></feGaussianBlur>
            <feColorMatrix values="0 0 0 0 0   0 0 0 0 0   0 0 0 0 0  0 0 0 0.18580163 0" type="matrix" in="shadowBlurOuter1"></feColorMatrix>
        </filter>
    </defs>
    <g id="Page-1" stroke="none" stroke-width="1" fill="none" fill-rule="evenodd">
        <g id="4-copy-6" transform="translate(-336.000000, -359.000000)">
            <g id="Group-24" transform="translate(284.000000, 118.000000)">
                <g id="Group-23">
                    <g id="Group-16">
                        <g id="Navigate-Card" transform="translate(0.000000, 2.000000)">
                            <g id="Group-2">
                                <g id="Group-28" transform="translate(0.000000, 228.000000)">
                                    <g id="Group-29" transform="translate(52.000000, 11.000000)">
                                        <path d="M12.924,1.6 C13.7800043,1.6 14.4539975,1.78599814 14.946,2.158 C15.4380025,2.53000186 15.684,3.04399672 15.684,3.7 C15.684,4.1800024 15.5480014,4.58599834 15.276,4.918 C15.0039986,5.25000166 14.6320024,5.47199944 14.16,5.584 C14.7440029,5.67200044 15.2019983,5.9059981 15.534,6.286 C15.8660017,6.6660019 16.032,7.13999716 16.032,7.708 C16.032,8.4280036 15.7620027,8.98999798 15.222,9.394 C14.6819973,9.79800202 13.9360048,10 12.984,10 L9.336,10 L9.336,1.6 L12.924,1.6 Z M12.864,5.164 C13.3840026,5.164 13.7859986,5.0540011 14.07,4.834 C14.3540014,4.6139989 14.496,4.30000204 14.496,3.892 C14.496,3.491998 14.3540014,3.18400108 14.07,2.968 C13.7859986,2.75199892 13.3840026,2.64799996 12.864,2.656 L10.488,2.656 L10.488,5.164 L12.864,5.164 Z M12.864,8.944 C13.4880031,8.95200004 13.9759982,8.83400122 14.328,8.59 C14.6800018,8.34599878 14.856,8.0040022 14.856,7.564 C14.856,7.13999788 14.6800018,6.8080012 14.328,6.568 C13.9759982,6.3279988 13.4880031,6.208 12.864,6.208 L10.488,6.208 L10.488,8.944 L12.864,8.944 Z M21.648,10 L21.648,9.112 C21.1759976,9.73600312 20.436005,10.048 19.428,10.048 C18.9879978,10.048 18.6020017,9.96400084 18.27,9.796 C17.9379983,9.62799916 17.6820009,9.39600148 17.502,9.1 C17.3219991,8.80399852 17.232,8.47200184 17.232,8.104 C17.232,7.53599716 17.4419979,7.08600166 17.862,6.754 C18.2820021,6.42199834 18.8679962,6.25200004 19.62,6.244 L21.636,6.244 L21.636,5.944 C21.636,5.49599776 21.4980014,5.15000122 21.222,4.906 C20.9459986,4.66199878 20.5440026,4.54 20.016,4.54 C19.3759968,4.54 18.7240033,4.76799772 18.06,5.224 L17.592,4.456 C18.0480023,4.15999852 18.4699981,3.94600066 18.858,3.814 C19.2460019,3.68199934 19.7079973,3.616 20.244,3.616 C21.036004,3.616 21.6479978,3.80999806 22.08,4.198 C22.5120022,4.58600194 22.732,5.12799652 22.74,5.824 L22.752,10 L21.648,10 Z M19.656,9.124 C20.1760026,9.124 20.6179982,8.99800126 20.982,8.746 C21.3460018,8.49399874 21.5639996,8.16000208 21.636,7.744 L21.636,7.108 L19.776,7.108 C19.2719975,7.108 18.8980012,7.18399924 18.654,7.336 C18.4099988,7.48800076 18.288,7.72799836 18.288,8.056 C18.288,8.38400164 18.4119988,8.64399904 18.66,8.836 C18.9080012,9.02800096 19.2399979,9.124 19.656,9.124 Z M28.212,5.056 C27.9479987,4.8959992 27.6580016,4.76800048 27.342,4.672 C27.0259984,4.57599952 26.7240014,4.528 26.436,4.528 C26.0999983,4.528 25.830001,4.58999938 25.626,4.714 C25.421999,4.83800062 25.32,5.02799872 25.32,5.284 C25.32,5.54000128 25.4339989,5.73399934 25.662,5.866 C25.8900011,5.99800066 26.2359977,6.13199932 26.7,6.268 C27.1400022,6.39600064 27.4999986,6.52399936 27.78,6.652 C28.0600014,6.78000064 28.297999,6.96799876 28.494,7.216 C28.690001,7.46400124 28.788,7.79199796 28.788,8.2 C28.788,8.800003 28.5620023,9.25599844 28.11,9.568 C27.6579977,9.88000156 27.0960034,10.036 26.424,10.036 C25.9519976,10.036 25.4940022,9.96000076 25.05,9.808 C24.6059978,9.65599924 24.2320015,9.4400014 23.928,9.16 L24.348,8.344 C24.6120013,8.5840012 24.9379981,8.77599928 25.326,8.92 C25.7140019,9.06400072 26.0919982,9.136 26.46,9.136 C26.8280018,9.136 27.1239989,9.06800068 27.348,8.932 C27.5720011,8.79599932 27.684,8.5880014 27.684,8.308 C27.684,8.01999856 27.5660012,7.80400072 27.33,7.66 C27.0939988,7.51599928 26.7360024,7.37200072 26.256,7.228 C25.8319979,7.1079994 25.4860013,6.98600062 25.218,6.862 C24.9499987,6.73799938 24.7220009,6.5560012 24.534,6.316 C24.3459991,6.0759988 24.252,5.76400192 24.252,5.38 C24.252,4.78799704 24.4679978,4.34400148 24.9,4.048 C25.3320022,3.75199852 25.8719968,3.604 26.52,3.604 C26.9040019,3.604 27.2819981,3.65799946 27.654,3.766 C28.0260019,3.87400054 28.3479986,4.01999908 28.62,4.204 L28.212,5.056 Z M32.808,3.616 C33.7920049,3.616 34.5359975,3.9059971 35.04,4.486 C35.5440025,5.0660029 35.796,5.87199484 35.796,6.904 C35.796,7.0640008 35.792,7.1839996 35.784,7.264 L30.768,7.264 C30.8560004,7.83200284 31.0939981,8.28399832 31.482,8.62 C31.8700019,8.95600168 32.3479972,9.124 32.916,9.124 C33.2920019,9.124 33.6419984,9.05600068 33.966,8.92 C34.2900016,8.78399932 34.5719988,8.59200124 34.812,8.344 L35.424,8.98 C35.1119984,9.31600168 34.7360022,9.57599908 34.296,9.76 C33.8559978,9.94400092 33.3680027,10.036 32.832,10.036 C32.2079969,10.036 31.6540024,9.90200134 31.17,9.634 C30.6859976,9.36599866 30.3100013,8.98800244 30.042,8.5 C29.7739987,8.01199756 29.64,7.45600312 29.64,6.832 C29.64,6.20799688 29.7739987,5.65400242 30.042,5.17 C30.3100013,4.68599758 30.6839976,4.30600138 31.164,4.03 C31.6440024,3.75399862 32.1919969,3.616 32.808,3.616 Z M34.788,6.4 C34.7559998,5.82399712 34.5640018,5.37000166 34.212,5.038 C33.8599982,4.70599834 33.3960029,4.54 32.82,4.54 C32.2599972,4.54 31.7940019,4.70799832 31.422,5.044 C31.0499981,5.38000168 30.8280004,5.83199716 30.756,6.4 L34.788,6.4 Z M43.236,1.096 L43.236,10 L42.12,10 L42.12,8.74 C41.8799988,9.16400212 41.558002,9.48999886 41.154,9.718 C40.749998,9.94600114 40.2800027,10.06 39.744,10.06 C39.143997,10.06 38.6140023,9.92200138 38.154,9.646 C37.6939977,9.36999862 37.3360013,8.98600246 37.08,8.494 C36.8239987,8.00199754 36.696,7.44000316 36.696,6.808 C36.696,6.18399688 36.8239987,5.63000242 37.08,5.146 C37.3360013,4.66199758 37.6939977,4.28400136 38.154,4.012 C38.6140023,3.73999864 39.139997,3.604 39.732,3.604 C40.2760027,3.604 40.751998,3.71599888 41.16,3.94 C41.568002,4.16400112 41.8879988,4.48799788 42.12,4.912 L42.12,1.096 L43.236,1.096 Z M39.972,9.1 C40.3880021,9.1 40.7579984,9.00400096 41.082,8.812 C41.4060016,8.61999904 41.6599991,8.35200172 41.844,8.008 C42.0280009,7.66399828 42.12,7.27600216 42.12,6.844 C42.12,6.4039978 42.0280009,6.01200172 41.844,5.668 C41.6599991,5.32399828 41.4060016,5.05600096 41.082,4.864 C40.7579984,4.67199904 40.3880021,4.576 39.972,4.576 C39.5559979,4.576 39.1860016,4.67399902 38.862,4.87 C38.5379984,5.06600098 38.2840009,5.33599828 38.1,5.68 C37.9159991,6.02400172 37.824,6.41199784 37.824,6.844 C37.824,7.27600216 37.9159991,7.66399828 38.1,8.008 C38.2840009,8.35200172 38.5379984,8.61999904 38.862,8.812 C39.1860016,9.00400096 39.5559979,9.1 39.972,9.1 Z M51.264,3.616 C51.8960032,3.616 52.4579975,3.75199864 52.95,4.024 C53.4420025,4.29600136 53.8259986,4.67399758 54.102,5.158 C54.3780014,5.64200242 54.516,6.19599688 54.516,6.82 C54.516,7.44400312 54.3780014,7.99999756 54.102,8.488 C53.8259986,8.97600244 53.4420025,9.35599864 52.95,9.628 C52.4579975,9.90000136 51.8960032,10.036 51.264,10.036 C50.6239968,10.036 50.0580025,9.90000136 49.566,9.628 C49.0739975,9.35599864 48.6900014,8.97800242 48.414,8.494 C48.1379986,8.00999758 48,7.45200316 48,6.82 C48,6.19599688 48.1379986,5.64200242 48.414,5.158 C48.6900014,4.67399758 49.0739975,4.29600136 49.566,4.024 C50.0580025,3.75199864 50.6239968,3.616 51.264,3.616 Z M51.264,4.588 C50.8479979,4.588 50.4780016,4.68399904 50.154,4.876 C49.8299984,5.06800096 49.5780009,5.3339983 49.398,5.674 C49.2179991,6.0140017 49.128,6.39999784 49.128,6.832 C49.128,7.2720022 49.2179991,7.66399828 49.398,8.008 C49.5780009,8.35200172 49.8299984,8.61799906 50.154,8.806 C50.4780016,8.99400094 50.8479979,9.088 51.264,9.088 C51.672002,9.088 52.0379984,8.99400094 52.362,8.806 C52.6860016,8.61799906 52.9379991,8.35200172 53.118,8.008 C53.2980009,7.66399828 53.388,7.2720022 53.388,6.832 C53.388,6.39999784 53.2980009,6.0140017 53.118,5.674 C52.9379991,5.3339983 52.6860016,5.06800096 52.362,4.876 C52.0379984,4.68399904 51.672002,4.588 51.264,4.588 Z M59.604,3.616 C60.3480037,3.616 60.9319979,3.83399782 61.356,4.27 C61.7800021,4.70600218 61.992,5.30799616 61.992,6.076 L61.992,10 L60.876,10 L60.876,6.376 C60.876,5.83999732 60.7260015,5.4220015 60.426,5.122 C60.1259985,4.8219985 59.7120026,4.672 59.184,4.672 C58.6159972,4.68000004 58.1540018,4.86199822 57.798,5.218 C57.4419982,5.57400178 57.2400002,6.03599716 57.192,6.604 L57.192,10 L56.076,10 L56.076,3.652 L57.192,3.652 L57.192,4.996 C57.6160021,4.09199548 58.4199941,3.63200008 59.604,3.616 Z M72.744,3.652 L72.744,9.352 C72.744,9.96000304 72.6100013,10.4919977 72.342,10.948 C72.0739987,11.4040023 71.6960024,11.7539988 71.208,11.998 C70.7199976,12.2420012 70.1520032,12.364 69.504,12.364 C68.5679953,12.364 67.696004,12.068003 66.888,11.476 L67.38,10.66 C67.6920016,10.9160013 68.0159983,11.1059994 68.352,11.23 C68.6880017,11.3540006 69.055998,11.416 69.456,11.416 C70.1120033,11.416 70.635998,11.2320018 71.028,10.864 C71.420002,10.4959982 71.616,10.0040031 71.616,9.388 L71.616,8.5 C71.3919989,8.88400192 71.0880019,9.18199894 70.704,9.394 C70.3199981,9.60600106 69.8800025,9.712 69.384,9.712 C68.8159972,9.712 68.3140022,9.5820013 67.878,9.322 C67.4419978,9.0619987 67.1040012,8.70000232 66.864,8.236 C66.6239988,7.77199768 66.504,7.240003 66.504,6.64 C66.504,6.04799704 66.6239988,5.52400228 66.864,5.068 C67.1040012,4.61199772 67.4419978,4.25600128 67.878,4 C68.3140022,3.74399872 68.8159972,3.616 69.384,3.616 C69.8880025,3.616 70.3299981,3.71999896 70.71,3.928 C71.0900019,4.13600104 71.3919989,4.43199808 71.616,4.816 L71.616,3.652 L72.744,3.652 Z M69.6,8.812 C69.992002,8.812 70.3399985,8.72000092 70.644,8.536 C70.9480015,8.35199908 71.1859991,8.09800162 71.358,7.774 C71.5300009,7.44999838 71.616,7.08400204 71.616,6.676 C71.616,6.25999792 71.5300009,5.89000162 71.358,5.566 C71.1859991,5.24199838 70.9480015,4.98800092 70.644,4.804 C70.3399985,4.61999908 69.992002,4.528 69.6,4.528 C69.207998,4.528 68.8580015,4.61999908 68.55,4.804 C68.2419985,4.98800092 68.0000009,5.24199838 67.824,5.566 C67.6479991,5.89000162 67.56,6.25999792 67.56,6.676 C67.568,7.30000312 67.7599981,7.811998 68.136,8.212 C68.5120019,8.612002 68.999997,8.812 69.6,8.812 Z M77.424,3.616 C78.0560032,3.616 78.6179975,3.75199864 79.11,4.024 C79.6020025,4.29600136 79.9859986,4.67399758 80.262,5.158 C80.5380014,5.64200242 80.676,6.19599688 80.676,6.82 C80.676,7.44400312 80.5380014,7.99999756 80.262,8.488 C79.9859986,8.97600244 79.6020025,9.35599864 79.11,9.628 C78.6179975,9.90000136 78.0560032,10.036 77.424,10.036 C76.7839968,10.036 76.2180025,9.90000136 75.726,9.628 C75.2339975,9.35599864 74.8500014,8.97800242 74.574,8.494 C74.2979986,8.00999758 74.16,7.45200316 74.16,6.82 C74.16,6.19599688 74.2979986,5.64200242 74.574,5.158 C74.8500014,4.67399758 75.2339975,4.29600136 75.726,4.024 C76.2180025,3.75199864 76.7839968,3.616 77.424,3.616 Z M77.424,4.588 C77.0079979,4.588 76.6380016,4.68399904 76.314,4.876 C75.9899984,5.06800096 75.7380009,5.3339983 75.558,5.674 C75.3779991,6.0140017 75.288,6.39999784 75.288,6.832 C75.288,7.2720022 75.3779991,7.66399828 75.558,8.008 C75.7380009,8.35200172 75.9899984,8.61799906 76.314,8.806 C76.6380016,8.99400094 77.0079979,9.088 77.424,9.088 C77.832002,9.088 78.1979984,8.99400094 78.522,8.806 C78.8460016,8.61799906 79.0979991,8.35200172 79.278,8.008 C79.4580009,7.66399828 79.548,7.2720022 79.548,6.832 C79.548,6.39999784 79.4580009,6.0140017 79.278,5.674 C79.0979991,5.3339983 78.8460016,5.06800096 78.522,4.876 C78.1979984,4.68399904 77.832002,4.588 77.424,4.588 Z M84.876,3.616 C85.5080032,3.616 86.0699975,3.75199864 86.562,4.024 C87.0540025,4.29600136 87.4379986,4.67399758 87.714,5.158 C87.9900014,5.64200242 88.128,6.19599688 88.128,6.82 C88.128,7.44400312 87.9900014,7.99999756 87.714,8.488 C87.4379986,8.97600244 87.0540025,9.35599864 86.562,9.628 C86.0699975,9.90000136 85.5080032,10.036 84.876,10.036 C84.2359968,10.036 83.6700025,9.90000136 83.178,9.628 C82.6859975,9.35599864 82.3020014,8.97800242 82.026,8.494 C81.7499986,8.00999758 81.612,7.45200316 81.612,6.82 C81.612,6.19599688 81.7499986,5.64200242 82.026,5.158 C82.3020014,4.67399758 82.6859975,4.29600136 83.178,4.024 C83.6700025,3.75199864 84.2359968,3.616 84.876,3.616 Z M84.876,4.588 C84.4599979,4.588 84.0900016,4.68399904 83.766,4.876 C83.4419984,5.06800096 83.1900009,5.3339983 83.01,5.674 C82.8299991,6.0140017 82.74,6.39999784 82.74,6.832 C82.74,7.2720022 82.8299991,7.66399828 83.01,8.008 C83.1900009,8.35200172 83.4419984,8.61799906 83.766,8.806 C84.0900016,8.99400094 84.4599979,9.088 84.876,9.088 C85.284002,9.088 85.6499984,8.99400094 85.974,8.806 C86.2980016,8.61799906 86.5499991,8.35200172 86.73,8.008 C86.9100009,7.66399828 87,7.2720022 87,6.832 C87,6.39999784 86.9100009,6.0140017 86.73,5.674 C86.5499991,5.3339983 86.2980016,5.06800096 85.974,4.876 C85.6499984,4.68399904 85.284002,4.588 84.876,4.588 Z M95.604,1.096 L95.604,10 L94.488,10 L94.488,8.74 C94.2479988,9.16400212 93.926002,9.48999886 93.522,9.718 C93.117998,9.94600114 92.6480027,10.06 92.112,10.06 C91.511997,10.06 90.9820023,9.92200138 90.522,9.646 C90.0619977,9.36999862 89.7040013,8.98600246 89.448,8.494 C89.1919987,8.00199754 89.064,7.44000316 89.064,6.808 C89.064,6.18399688 89.1919987,5.63000242 89.448,5.146 C89.7040013,4.66199758 90.0619977,4.28400136 90.522,4.012 C90.9820023,3.73999864 91.507997,3.604 92.1,3.604 C92.6440027,3.604 93.119998,3.71599888 93.528,3.94 C93.936002,4.16400112 94.2559988,4.48799788 94.488,4.912 L94.488,1.096 L95.604,1.096 Z M92.34,9.1 C92.7560021,9.1 93.1259984,9.00400096 93.45,8.812 C93.7740016,8.61999904 94.0279991,8.35200172 94.212,8.008 C94.3960009,7.66399828 94.488,7.27600216 94.488,6.844 C94.488,6.4039978 94.3960009,6.01200172 94.212,5.668 C94.0279991,5.32399828 93.7740016,5.05600096 93.45,4.864 C93.1259984,4.67199904 92.7560021,4.576 92.34,4.576 C91.9239979,4.576 91.5540016,4.67399902 91.23,4.87 C90.9059984,5.06600098 90.6520009,5.33599828 90.468,5.68 C90.2839991,6.02400172 90.192,6.41199784 90.192,6.844 C90.192,7.27600216 90.2839991,7.66399828 90.468,8.008 C90.6520009,8.35200172 90.9059984,8.61999904 91.23,8.812 C91.5540016,9.00400096 91.9239979,9.1 92.34,9.1 Z M105.444,5.344 C104.939997,4.85599756 104.336004,4.612 103.632,4.612 C103.215998,4.612 102.846002,4.70399908 102.522,4.888 C102.197998,5.07200092 101.944001,5.33199832 101.76,5.668 C101.575999,6.00400168 101.484,6.3919978 101.484,6.832 C101.484,7.2720022 101.573999,7.65999832 101.754,7.996 C101.934001,8.33200168 102.181998,8.59399906 102.498,8.782 C102.814002,8.97000094 103.175998,9.064 103.584,9.064 C103.992002,9.064 104.359998,8.99600068 104.688,8.86 C105.016002,8.72399932 105.287999,8.52800128 105.504,8.272 L106.14,8.92 C105.851999,9.2800018 105.486002,9.55599904 105.042,9.748 C104.597998,9.94000096 104.096003,10.036 103.536,10.036 C102.919997,10.036 102.372002,9.90000136 101.892,9.628 C101.411998,9.35599864 101.038001,8.97800242 100.77,8.494 C100.501999,8.00999758 100.368,7.45600312 100.368,6.832 C100.368,6.20799688 100.501999,5.65200244 100.77,5.164 C101.038001,4.67599756 101.411998,4.29600136 101.892,4.024 C102.372002,3.75199864 102.919997,3.616 103.536,3.616 C104.072003,3.616 104.553998,3.69799918 104.982,3.862 C105.410002,4.02600082 105.767999,4.26399844 106.056,4.576 L105.444,5.344 Z M110.376,3.616 C111.008003,3.616 111.569998,3.75199864 112.062,4.024 C112.554002,4.29600136 112.937999,4.67399758 113.214,5.158 C113.490001,5.64200242 113.628,6.19599688 113.628,6.82 C113.628,7.44400312 113.490001,7.99999756 113.214,8.488 C112.937999,8.97600244 112.554002,9.35599864 112.062,9.628 C111.569998,9.90000136 111.008003,10.036 110.376,10.036 C109.735997,10.036 109.170002,9.90000136 108.678,9.628 C108.185998,9.35599864 107.802001,8.97800242 107.526,8.494 C107.249999,8.00999758 107.112,7.45200316 107.112,6.82 C107.112,6.19599688 107.249999,5.64200242 107.526,5.158 C107.802001,4.67399758 108.185998,4.29600136 108.678,4.024 C109.170002,3.75199864 109.735997,3.616 110.376,3.616 Z M110.376,4.588 C109.959998,4.588 109.590002,4.68399904 109.266,4.876 C108.941998,5.06800096 108.690001,5.3339983 108.51,5.674 C108.329999,6.0140017 108.24,6.39999784 108.24,6.832 C108.24,7.2720022 108.329999,7.66399828 108.51,8.008 C108.690001,8.35200172 108.941998,8.61799906 109.266,8.806 C109.590002,8.99400094 109.959998,9.088 110.376,9.088 C110.784002,9.088 111.149998,8.99400094 111.474,8.806 C111.798002,8.61799906 112.049999,8.35200172 112.23,8.008 C112.410001,7.66399828 112.5,7.2720022 112.5,6.832 C112.5,6.39999784 112.410001,6.0140017 112.23,5.674 C112.049999,5.3339983 111.798002,5.06800096 111.474,4.876 C111.149998,4.68399904 110.784002,4.588 110.376,4.588 Z M118.716,3.616 C119.460004,3.616 120.043998,3.83399782 120.468,4.27 C120.892002,4.70600218 121.104,5.30799616 121.104,6.076 L121.104,10 L119.988,10 L119.988,6.376 C119.988,5.83999732 119.838001,5.4220015 119.538,5.122 C119.237998,4.8219985 118.824003,4.672 118.296,4.672 C117.727997,4.68000004 117.266002,4.86199822 116.91,5.218 C116.553998,5.57400178 116.352,6.03599716 116.304,6.604 L116.304,10 L115.188,10 L115.188,3.652 L116.304,3.652 L116.304,4.996 C116.728002,4.09199548 117.531994,3.63200008 118.716,3.616 Z M129.012,1.096 L129.012,10 L127.896,10 L127.896,8.74 C127.655999,9.16400212 127.334002,9.48999886 126.93,9.718 C126.525998,9.94600114 126.056003,10.06 125.52,10.06 C124.919997,10.06 124.390002,9.92200138 123.93,9.646 C123.469998,9.36999862 123.112001,8.98600246 122.856,8.494 C122.599999,8.00199754 122.472,7.44000316 122.472,6.808 C122.472,6.18399688 122.599999,5.63000242 122.856,5.146 C123.112001,4.66199758 123.469998,4.28400136 123.93,4.012 C124.390002,3.73999864 124.915997,3.604 125.508,3.604 C126.052003,3.604 126.527998,3.71599888 126.936,3.94 C127.344002,4.16400112 127.663999,4.48799788 127.896,4.912 L127.896,1.096 L129.012,1.096 Z M125.748,9.1 C126.164002,9.1 126.533998,9.00400096 126.858,8.812 C127.182002,8.61999904 127.435999,8.35200172 127.62,8.008 C127.804001,7.66399828 127.896,7.27600216 127.896,6.844 C127.896,6.4039978 127.804001,6.01200172 127.62,5.668 C127.435999,5.32399828 127.182002,5.05600096 126.858,4.864 C126.533998,4.67199904 126.164002,4.576 125.748,4.576 C125.331998,4.576 124.962002,4.67399902 124.638,4.87 C124.313998,5.06600098 124.060001,5.33599828 123.876,5.68 C123.691999,6.02400172 123.6,6.41199784 123.6,6.844 C123.6,7.27600216 123.691999,7.66399828 123.876,8.008 C124.060001,8.35200172 124.313998,8.61999904 124.638,8.812 C124.962002,9.00400096 125.331998,9.1 125.748,9.1 Z M131.256,3.652 L132.372,3.652 L132.372,10 L131.256,10 L131.256,3.652 Z M131.808,1.12 C132.008001,1.12 132.173999,1.18799932 132.306,1.324 C132.438001,1.46000068 132.504,1.63199896 132.504,1.84 C132.504,2.04800104 132.438001,2.21999932 132.306,2.356 C132.173999,2.49200068 132.008001,2.56 131.808,2.56 C131.607999,2.56 131.442001,2.49200068 131.31,2.356 C131.177999,2.21999932 131.112,2.04800104 131.112,1.84 C131.112,1.63199896 131.177999,1.46000068 131.31,1.324 C131.442001,1.18799932 131.607999,1.12 131.808,1.12 Z M137.952,9.58 C137.463998,9.89200156 136.968003,10.048 136.464,10.048 C135.959997,10.048 135.552002,9.8980015 135.24,9.598 C134.927998,9.2979985 134.772,8.84400304 134.772,8.236 L134.772,4.72 L133.872,4.72 L133.872,3.868 L134.772,3.868 L134.772,2.164 L135.9,2.164 L135.9,3.868 L137.844,3.868 L137.844,4.72 L135.9,4.72 L135.9,8.032 C135.9,8.38400176 135.963999,8.63599924 136.092,8.788 C136.220001,8.94000076 136.411999,9.016 136.668,9.016 C136.972002,9.016 137.299998,8.916001 137.652,8.716 L137.952,9.58 Z M139.308,3.652 L140.424,3.652 L140.424,10 L139.308,10 L139.308,3.652 Z M139.86,1.12 C140.060001,1.12 140.225999,1.18799932 140.358,1.324 C140.490001,1.46000068 140.556,1.63199896 140.556,1.84 C140.556,2.04800104 140.490001,2.21999932 140.358,2.356 C140.225999,2.49200068 140.060001,2.56 139.86,2.56 C139.659999,2.56 139.494001,2.49200068 139.362,2.356 C139.229999,2.21999932 139.164,2.04800104 139.164,1.84 C139.164,1.63199896 139.229999,1.46000068 139.362,1.324 C139.494001,1.18799932 139.659999,1.12 139.86,1.12 Z M145.236,3.616 C145.868003,3.616 146.429998,3.75199864 146.922,4.024 C147.414002,4.29600136 147.797999,4.67399758 148.074,5.158 C148.350001,5.64200242 148.488,6.19599688 148.488,6.82 C148.488,7.44400312 148.350001,7.99999756 148.074,8.488 C147.797999,8.97600244 147.414002,9.35599864 146.922,9.628 C146.429998,9.90000136 145.868003,10.036 145.236,10.036 C144.595997,10.036 144.030002,9.90000136 143.538,9.628 C143.045998,9.35599864 142.662001,8.97800242 142.386,8.494 C142.109999,8.00999758 141.972,7.45200316 141.972,6.82 C141.972,6.19599688 142.109999,5.64200242 142.386,5.158 C142.662001,4.67399758 143.045998,4.29600136 143.538,4.024 C144.030002,3.75199864 144.595997,3.616 145.236,3.616 Z M145.236,4.588 C144.819998,4.588 144.450002,4.68399904 144.126,4.876 C143.801998,5.06800096 143.550001,5.3339983 143.37,5.674 C143.189999,6.0140017 143.1,6.39999784 143.1,6.832 C143.1,7.2720022 143.189999,7.66399828 143.37,8.008 C143.550001,8.35200172 143.801998,8.61799906 144.126,8.806 C144.450002,8.99400094 144.819998,9.088 145.236,9.088 C145.644002,9.088 146.009998,8.99400094 146.334,8.806 C146.658002,8.61799906 146.909999,8.35200172 147.09,8.008 C147.270001,7.66399828 147.36,7.2720022 147.36,6.832 C147.36,6.39999784 147.270001,6.0140017 147.09,5.674 C146.909999,5.3339983 146.658002,5.06800096 146.334,4.876 C146.009998,4.68399904 145.644002,4.588 145.236,4.588 Z M153.576,3.616 C154.320004,3.616 154.903998,3.83399782 155.328,4.27 C155.752002,4.70600218 155.964,5.30799616 155.964,6.076 L155.964,10 L154.848,10 L154.848,6.376 C154.848,5.83999732 154.698001,5.4220015 154.398,5.122 C154.097998,4.8219985 153.684003,4.672 153.156,4.672 C152.587997,4.68000004 152.126002,4.86199822 151.77,5.218 C151.413998,5.57400178 151.212,6.03599716 151.164,6.604 L151.164,10 L150.048,10 L150.048,3.652 L151.164,3.652 L151.164,4.996 C151.588002,4.09199548 152.391994,3.63200008 153.576,3.616 Z" id="Based-on-good-condit" fill="#363A4F"></path>
                                        <polygon id="*" fill="#FF4B52" points="3.01794366 0.348 3.98909859 0.348 3.97005634 2.36647887 5.72194366 1.33819718 6.198 2.2331831 4.42707042 3.22338028 6.198 4.21357746 5.72194366 5.10856338 3.97005634 4.08028169 3.98909859 6.09876056 3.01794366 6.09876056 3.03698592 4.06123944 1.28509859 5.08952113 0.79 4.21357746 2.56092958 3.22338028 0.79 2.2331831 1.28509859 1.31915493 3.03698592 2.36647887"></polygon>
                                        <path d="M3.796,45.8 L5.94,45.8 L5.94,55.064 L10.772,55.064 L10.772,57 L3.796,57 L3.796,45.8 Z M15.94,48.376 C17.3053402,48.376 18.3319966,48.7653294 19.02,49.544 C19.7080034,50.3226706 20.052,51.415993 20.052,52.824 C20.052,53.1013347 20.0466667,53.3093326 20.036,53.448 L13.716,53.448 C13.8546674,54.056003 14.1399978,54.5333316 14.572,54.88 C15.0040022,55.2266684 15.5346635,55.4 16.164,55.4 C16.6013355,55.4 17.019998,55.3173342 17.42,55.152 C17.820002,54.9866658 18.1693318,54.7493349 18.468,54.44 L19.588,55.608 C19.1613312,56.0773357 18.6413364,56.4399987 18.028,56.696 C17.4146636,56.9520013 16.7346704,57.08 15.988,57.08 C15.113329,57.08 14.34267,56.8986685 13.676,56.536 C13.00933,56.1733315 12.4946685,55.6640033 12.132,55.008 C11.7693315,54.3519967 11.588,53.5973376 11.588,52.744 C11.588,51.8906624 11.7719982,51.1333366 12.14,50.472 C12.5080018,49.8106634 13.0226634,49.2960018 13.684,48.928 C14.3453366,48.5599982 15.0973291,48.376 15.94,48.376 Z M18.148,52.056 C18.1266666,51.4266635 17.9186686,50.9253352 17.524,50.552 C17.1293314,50.1786648 16.6066699,49.992 15.956,49.992 C15.347997,49.992 14.8386687,50.1759982 14.428,50.544 C14.0173313,50.9120018 13.7640005,51.4159968 13.668,52.056 L18.148,52.056 Z M26.9,57 L26.9,55.96 C26.6013318,56.3333352 26.2173357,56.615999 25.748,56.808 C25.2786643,57.000001 24.740003,57.096 24.132,57.096 C23.5346637,57.096 23.0093356,56.9813345 22.556,56.752 C22.1026644,56.5226655 21.7533346,56.2053354 21.508,55.8 C21.2626654,55.3946646 21.14,54.9413358 21.14,54.44 C21.14,53.639996 21.4226638,53.0133356 21.988,52.56 C22.5533362,52.1066644 23.3533282,51.8746667 24.388,51.864 L26.884,51.864 L26.884,51.64 C26.884,51.1386642 26.7186683,50.7493347 26.388,50.472 C26.0573317,50.1946653 25.5773365,50.056 24.948,50.056 C24.1373293,50.056 23.2893378,50.322664 22.404,50.856 L21.652,49.416 C22.3240034,49.0426648 22.9346639,48.7733342 23.484,48.608 C24.0333361,48.4426658 24.6759963,48.36 25.412,48.36 C26.5213389,48.36 27.3826636,48.626664 27.996,49.16 C28.6093364,49.693336 28.9213333,50.4399952 28.932,51.4 L28.948,57 L26.9,57 Z M24.628,55.496 C25.2253363,55.496 25.7373312,55.3546681 26.164,55.072 C26.5906688,54.7893319 26.8306664,54.4400021 26.884,54.024 L26.884,53.256 L24.724,53.256 C24.1693306,53.256 23.7613346,53.3386658 23.5,53.504 C23.2386654,53.6693342 23.108,53.9386648 23.108,54.312 C23.108,54.6746685 23.2439986,54.9626656 23.516,55.176 C23.7880014,55.3893344 24.1586643,55.496 24.628,55.496 Z M33.364,50.088 C33.6520014,49.5333306 34.0439975,49.1093348 34.54,48.816 C35.0360025,48.5226652 35.6146634,48.3706667 36.276,48.36 L36.276,50.376 C35.3906622,50.3226664 34.6840026,50.5279977 34.156,50.992 C33.6279974,51.4560023 33.364,52.0826627 33.364,52.872 L33.364,57 L31.284,57 L31.284,48.44 L33.364,48.44 L33.364,50.088 Z M42.884,48.36 C43.8653382,48.36 44.6386638,48.655997 45.204,49.248 C45.7693362,49.840003 46.052,50.6426616 46.052,51.656 L46.052,57 L43.956,57 L43.956,52.264 C43.956,51.6666637 43.785335,51.1946684 43.444,50.848 C43.102665,50.5013316 42.6386696,50.328 42.052,50.328 C41.3586632,50.3386667 40.812002,50.573331 40.412,51.032 C40.011998,51.490669 39.812,52.0773298 39.812,52.792 L39.812,57 L37.732,57 L37.732,48.44 L39.812,48.44 L39.812,50.04 C40.3986696,48.9413278 41.4226594,48.3813334 42.884,48.36 Z M50.996,48.456 L53.14,48.44 L55.236,54.904 L57.268,48.44 L59.364,48.44 L61.428,54.904 L63.476,48.44 L65.572,48.44 L62.468,57 L60.34,57 L58.292,50.968 L56.26,57 L54.132,57 L50.996,48.456 Z M72.036,48.36 C73.0173382,48.36 73.7906638,48.655997 74.356,49.248 C74.9213362,49.840003 75.204,50.6426616 75.204,51.656 L75.204,57 L73.108,57 L73.108,52.264 C73.108,51.6666637 72.937335,51.1946684 72.596,50.848 C72.254665,50.5013316 71.7906696,50.328 71.204,50.328 C70.5106632,50.3386667 69.9613354,50.573331 69.556,51.032 C69.1506646,51.490669 68.948,52.0773298 68.948,52.792 L68.948,57 L66.868,57 L66.868,45.128 L68.948,45.128 L68.948,50.072 C69.5346696,48.9519944 70.5639926,48.3813334 72.036,48.36 Z M82.596,57 L82.596,55.96 C82.2973318,56.3333352 81.9133357,56.615999 81.444,56.808 C80.9746643,57.000001 80.436003,57.096 79.828,57.096 C79.2306637,57.096 78.7053356,56.9813345 78.252,56.752 C77.7986644,56.5226655 77.4493346,56.2053354 77.204,55.8 C76.9586654,55.3946646 76.836,54.9413358 76.836,54.44 C76.836,53.639996 77.1186638,53.0133356 77.684,52.56 C78.2493362,52.1066644 79.0493282,51.8746667 80.084,51.864 L82.58,51.864 L82.58,51.64 C82.58,51.1386642 82.4146683,50.7493347 82.084,50.472 C81.7533317,50.1946653 81.2733365,50.056 80.644,50.056 C79.8333293,50.056 78.9853378,50.322664 78.1,50.856 L77.348,49.416 C78.0200034,49.0426648 78.6306639,48.7733342 79.18,48.608 C79.7293361,48.4426658 80.3719963,48.36 81.108,48.36 C82.2173389,48.36 83.0786636,48.626664 83.692,49.16 C84.3053364,49.693336 84.6173333,50.4399952 84.628,51.4 L84.644,57 L82.596,57 Z M80.324,55.496 C80.9213363,55.496 81.4333312,55.3546681 81.86,55.072 C82.2866688,54.7893319 82.5266664,54.4400021 82.58,54.024 L82.58,53.256 L80.42,53.256 C79.8653306,53.256 79.4573346,53.3386658 79.196,53.504 C78.9346654,53.6693342 78.804,53.9386648 78.804,54.312 C78.804,54.6746685 78.9399986,54.9626656 79.212,55.176 C79.4840014,55.3893344 79.8546643,55.496 80.324,55.496 Z M91.988,56.472 C91.3053299,56.8880021 90.5906704,57.096 89.844,57.096 C89.1079963,57.096 88.5053357,56.8800022 88.036,56.448 C87.5666643,56.0159978 87.332,55.3786709 87.332,54.536 L87.332,50.312 L86.132,50.312 L86.116,48.792 L87.332,48.792 L87.332,46.44 L89.396,46.44 L89.396,48.792 L91.844,48.792 L91.844,50.312 L89.396,50.312 L89.396,54.168 C89.396,54.5626686 89.4706659,54.8426658 89.62,55.008 C89.7693341,55.1733342 89.9933318,55.256 90.292,55.256 C90.6120016,55.256 91.0173309,55.1386678 91.508,54.904 L91.988,56.472 Z M102.596,57 L102.596,55.96 C102.297332,56.3333352 101.913336,56.615999 101.444,56.808 C100.974664,57.000001 100.436003,57.096 99.828,57.096 C99.2306637,57.096 98.7053356,56.9813345 98.252,56.752 C97.7986644,56.5226655 97.4493346,56.2053354 97.204,55.8 C96.9586654,55.3946646 96.836,54.9413358 96.836,54.44 C96.836,53.639996 97.1186638,53.0133356 97.684,52.56 C98.2493362,52.1066644 99.0493282,51.8746667 100.084,51.864 L102.58,51.864 L102.58,51.64 C102.58,51.1386642 102.414668,50.7493347 102.084,50.472 C101.753332,50.1946653 101.273336,50.056 100.644,50.056 C99.8333293,50.056 98.9853378,50.322664 98.1,50.856 L97.348,49.416 C98.0200034,49.0426648 98.6306639,48.7733342 99.18,48.608 C99.7293361,48.4426658 100.371996,48.36 101.108,48.36 C102.217339,48.36 103.078664,48.626664 103.692,49.16 C104.305336,49.693336 104.617333,50.4399952 104.628,51.4 L104.644,57 L102.596,57 Z M100.324,55.496 C100.921336,55.496 101.433331,55.3546681 101.86,55.072 C102.286669,54.7893319 102.526666,54.4400021 102.58,54.024 L102.58,53.256 L100.42,53.256 C99.8653306,53.256 99.4573346,53.3386658 99.196,53.504 C98.9346654,53.6693342 98.804,53.9386648 98.804,54.312 C98.804,54.6746685 98.9399986,54.9626656 99.212,55.176 C99.4840014,55.3893344 99.8546643,55.496 100.324,55.496 Z M110.548,46.824 C110.227998,46.824 109.964001,46.9146658 109.756,47.096 C109.547999,47.2773342 109.444,47.5493315 109.444,47.912 L109.444,48.792 L111.588,48.792 L111.588,50.312 L109.444,50.312 L109.444,57 L107.364,57 L107.364,50.312 L106.244,50.312 L106.244,48.792 L107.364,48.792 L107.364,47.976 C107.364,47.3466635 107.502665,46.8106689 107.78,46.368 C108.057335,45.9253311 108.427998,45.5920011 108.892,45.368 C109.356002,45.1439989 109.859997,45.032 110.404,45.032 C110.937336,45.032 111.459997,45.1546654 111.972,45.4 L111.604,47.08 C111.177331,46.9093325 110.825335,46.824 110.548,46.824 Z M116.388,46.824 C116.067998,46.824 115.804001,46.9146658 115.596,47.096 C115.387999,47.2773342 115.284,47.5493315 115.284,47.912 L115.284,48.792 L117.428,48.792 L117.428,50.312 L115.284,50.312 L115.284,57 L113.204,57 L113.204,50.312 L112.084,50.312 L112.084,48.792 L113.204,48.792 L113.204,47.976 C113.204,47.3466635 113.342665,46.8106689 113.62,46.368 C113.897335,45.9253311 114.267998,45.5920011 114.732,45.368 C115.196002,45.1439989 115.699997,45.032 116.244,45.032 C116.777336,45.032 117.299997,45.1546654 117.812,45.4 L117.444,47.08 C117.017331,46.9093325 116.665335,46.824 116.388,46.824 Z M122.228,48.376 C123.59334,48.376 124.619997,48.7653294 125.308,49.544 C125.996003,50.3226706 126.34,51.415993 126.34,52.824 C126.34,53.1013347 126.334667,53.3093326 126.324,53.448 L120.004,53.448 C120.142667,54.056003 120.427998,54.5333316 120.86,54.88 C121.292002,55.2266684 121.822664,55.4 122.452,55.4 C122.889336,55.4 123.307998,55.3173342 123.708,55.152 C124.108002,54.9866658 124.457332,54.7493349 124.756,54.44 L125.876,55.608 C125.449331,56.0773357 124.929336,56.4399987 124.316,56.696 C123.702664,56.9520013 123.02267,57.08 122.276,57.08 C121.401329,57.08 120.63067,56.8986685 119.964,56.536 C119.29733,56.1733315 118.782668,55.6640033 118.42,55.008 C118.057332,54.3519967 117.876,53.5973376 117.876,52.744 C117.876,51.8906624 118.059998,51.1333366 118.428,50.472 C118.796002,49.8106634 119.310663,49.2960018 119.972,48.928 C120.633337,48.5599982 121.385329,48.376 122.228,48.376 Z M124.436,52.056 C124.414667,51.4266635 124.206669,50.9253352 123.812,50.552 C123.417331,50.1786648 122.89467,49.992 122.244,49.992 C121.635997,49.992 121.126669,50.1759982 120.716,50.544 C120.305331,50.9120018 120.052,51.4159968 119.956,52.056 L124.436,52.056 Z M134.02,51.144 C133.443997,50.5146635 132.697338,50.2 131.78,50.2 C131.086663,50.2 130.524002,50.4346643 130.092,50.904 C129.659998,51.3733357 129.444,51.9813296 129.444,52.728 C129.444,53.4960038 129.659998,54.1146643 130.092,54.584 C130.524002,55.0533357 131.086663,55.288 131.78,55.288 C132.804005,55.288 133.571997,54.9520034 134.084,54.28 L135.38,55.352 C134.995998,55.9066694 134.489336,56.3333318 133.86,56.632 C133.230664,56.9306682 132.500004,57.08 131.668,57.08 C130.825329,57.08 130.076003,56.8986685 129.42,56.536 C128.763997,56.1733315 128.254668,55.6640033 127.892,55.008 C127.529332,54.3519967 127.348,53.5973376 127.348,52.744 C127.348,51.8799957 127.531998,51.1173366 127.9,50.456 C128.268002,49.7946634 128.779997,49.2826685 129.436,48.92 C130.092003,48.5573315 130.846662,48.376 131.7,48.376 C132.478671,48.376 133.174664,48.5119986 133.788,48.784 C134.401336,49.0560014 134.899998,49.4426642 135.284,49.944 L134.02,51.144 Z M142.164,56.472 C141.48133,56.8880021 140.76667,57.096 140.02,57.096 C139.283996,57.096 138.681336,56.8800022 138.212,56.448 C137.742664,56.0159978 137.508,55.3786709 137.508,54.536 L137.508,50.312 L136.308,50.312 L136.292,48.792 L137.508,48.792 L137.508,46.44 L139.572,46.44 L139.572,48.792 L142.02,48.792 L142.02,50.312 L139.572,50.312 L139.572,54.168 C139.572,54.5626686 139.646666,54.8426658 139.796,55.008 C139.945334,55.1733342 140.169332,55.256 140.468,55.256 C140.788002,55.256 141.193331,55.1386678 141.684,54.904 L142.164,56.472 Z M148.868,50.76 C148.451998,50.5146654 148.022669,50.3226674 147.58,50.184 C147.137331,50.0453326 146.729335,49.976 146.356,49.976 C146.003998,49.976 145.724001,50.0373327 145.516,50.16 C145.307999,50.2826673 145.204,50.4719987 145.204,50.728 C145.204,50.994668 145.334665,51.1999993 145.596,51.344 C145.857335,51.4880007 146.270664,51.6399992 146.836,51.8 C147.433336,51.9813342 147.923998,52.1599991 148.308,52.336 C148.692002,52.5120009 149.025332,52.7733316 149.308,53.12 C149.590668,53.4666684 149.732,53.9226638 149.732,54.488 C149.732,55.3200042 149.412003,55.9599978 148.772,56.408 C148.131997,56.8560022 147.326672,57.08 146.356,57.08 C145.694663,57.08 145.049336,56.976001 144.42,56.768 C143.790664,56.559999 143.257336,56.2640019 142.82,55.88 L143.54,54.424 C143.924002,54.7546683 144.382664,55.0133324 144.916,55.2 C145.449336,55.3866676 145.955998,55.48 146.436,55.48 C146.820002,55.48 147.126666,55.413334 147.356,55.28 C147.585334,55.146666 147.7,54.946668 147.7,54.68 C147.7,54.3813318 147.566668,54.1573341 147.3,54.008 C147.033332,53.8586659 146.601336,53.6933342 146.004,53.512 C145.427997,53.3413325 144.958668,53.1733342 144.596,53.008 C144.233332,52.8426658 143.918668,52.5920017 143.652,52.256 C143.385332,51.9199983 143.252,51.4800027 143.252,50.936 C143.252,50.0933291 143.558664,49.4506689 144.172,49.008 C144.785336,48.5653311 145.555995,48.344 146.484,48.344 C147.049336,48.344 147.606664,48.4239992 148.156,48.584 C148.705336,48.7440008 149.193331,48.9679986 149.62,49.256 L148.868,50.76 Z M160.436,56.472 C159.75333,56.8880021 159.03867,57.096 158.292,57.096 C157.555996,57.096 156.953336,56.8800022 156.484,56.448 C156.014664,56.0159978 155.78,55.3786709 155.78,54.536 L155.78,50.312 L154.58,50.312 L154.564,48.792 L155.78,48.792 L155.78,46.44 L157.844,46.44 L157.844,48.792 L160.292,48.792 L160.292,50.312 L157.844,50.312 L157.844,54.168 C157.844,54.5626686 157.918666,54.8426658 158.068,55.008 C158.217334,55.1733342 158.441332,55.256 158.74,55.256 C159.060002,55.256 159.465331,55.1386678 159.956,54.904 L160.436,56.472 Z M167.316,48.36 C168.297338,48.36 169.070664,48.655997 169.636,49.248 C170.201336,49.840003 170.484,50.6426616 170.484,51.656 L170.484,57 L168.388,57 L168.388,52.264 C168.388,51.6666637 168.217335,51.1946684 167.876,50.848 C167.534665,50.5013316 167.07067,50.328 166.484,50.328 C165.790663,50.3386667 165.241335,50.573331 164.836,51.032 C164.430665,51.490669 164.228,52.0773298 164.228,52.792 L164.228,57 L162.148,57 L162.148,45.128 L164.228,45.128 L164.228,50.072 C164.81467,48.9519944 165.843993,48.3813334 167.316,48.36 Z M176.388,48.376 C177.75334,48.376 178.779997,48.7653294 179.468,49.544 C180.156003,50.3226706 180.5,51.415993 180.5,52.824 C180.5,53.1013347 180.494667,53.3093326 180.484,53.448 L174.164,53.448 C174.302667,54.056003 174.587998,54.5333316 175.02,54.88 C175.452002,55.2266684 175.982664,55.4 176.612,55.4 C177.049336,55.4 177.467998,55.3173342 177.868,55.152 C178.268002,54.9866658 178.617332,54.7493349 178.916,54.44 L180.036,55.608 C179.609331,56.0773357 179.089336,56.4399987 178.476,56.696 C177.862664,56.9520013 177.18267,57.08 176.436,57.08 C175.561329,57.08 174.79067,56.8986685 174.124,56.536 C173.45733,56.1733315 172.942668,55.6640033 172.58,55.008 C172.217332,54.3519967 172.036,53.5973376 172.036,52.744 C172.036,51.8906624 172.219998,51.1333366 172.588,50.472 C172.956002,49.8106634 173.470663,49.2960018 174.132,48.928 C174.793337,48.5599982 175.545329,48.376 176.388,48.376 Z M178.596,52.056 C178.574667,51.4266635 178.366669,50.9253352 177.972,50.552 C177.577331,50.1786648 177.05467,49.992 176.404,49.992 C175.795997,49.992 175.286669,50.1759982 174.876,50.544 C174.465331,50.9120018 174.212,51.4159968 174.116,52.056 L178.596,52.056 Z M192.1,51.144 C191.523997,50.5146635 190.777338,50.2 189.86,50.2 C189.166663,50.2 188.604002,50.4346643 188.172,50.904 C187.739998,51.3733357 187.524,51.9813296 187.524,52.728 C187.524,53.4960038 187.739998,54.1146643 188.172,54.584 C188.604002,55.0533357 189.166663,55.288 189.86,55.288 C190.884005,55.288 191.651997,54.9520034 192.164,54.28 L193.46,55.352 C193.075998,55.9066694 192.569336,56.3333318 191.94,56.632 C191.310664,56.9306682 190.580004,57.08 189.748,57.08 C188.905329,57.08 188.156003,56.8986685 187.5,56.536 C186.843997,56.1733315 186.334668,55.6640033 185.972,55.008 C185.609332,54.3519967 185.428,53.5973376 185.428,52.744 C185.428,51.8799957 185.611998,51.1173366 185.98,50.456 C186.348002,49.7946634 186.859997,49.2826685 187.516,48.92 C188.172003,48.5573315 188.926662,48.376 189.78,48.376 C190.558671,48.376 191.254664,48.5119986 191.868,48.784 C192.481336,49.0560014 192.979998,49.4426642 193.364,49.944 L192.1,51.144 Z M200.292,57 L200.292,55.96 C199.993332,56.3333352 199.609336,56.615999 199.14,56.808 C198.670664,57.000001 198.132003,57.096 197.524,57.096 C196.926664,57.096 196.401336,56.9813345 195.948,56.752 C195.494664,56.5226655 195.145335,56.2053354 194.9,55.8 C194.654665,55.3946646 194.532,54.9413358 194.532,54.44 C194.532,53.639996 194.814664,53.0133356 195.38,52.56 C195.945336,52.1066644 196.745328,51.8746667 197.78,51.864 L200.276,51.864 L200.276,51.64 C200.276,51.1386642 200.110668,50.7493347 199.78,50.472 C199.449332,50.1946653 198.969336,50.056 198.34,50.056 C197.529329,50.056 196.681338,50.322664 195.796,50.856 L195.044,49.416 C195.716003,49.0426648 196.326664,48.7733342 196.876,48.608 C197.425336,48.4426658 198.067996,48.36 198.804,48.36 C199.913339,48.36 200.774664,48.626664 201.388,49.16 C202.001336,49.693336 202.313333,50.4399952 202.324,51.4 L202.34,57 L200.292,57 Z M198.02,55.496 C198.617336,55.496 199.129331,55.3546681 199.556,55.072 C199.982669,54.7893319 200.222666,54.4400021 200.276,54.024 L200.276,53.256 L198.116,53.256 C197.561331,53.256 197.153335,53.3386658 196.892,53.504 C196.630665,53.6693342 196.5,53.9386648 196.5,54.312 C196.5,54.6746685 196.635999,54.9626656 196.908,55.176 C197.180001,55.3893344 197.550664,55.496 198.02,55.496 Z M206.756,50.088 C207.044001,49.5333306 207.435998,49.1093348 207.932,48.816 C208.428002,48.5226652 209.006663,48.3706667 209.668,48.36 L209.668,50.376 C208.782662,50.3226664 208.076003,50.5279977 207.548,50.992 C207.019997,51.4560023 206.756,52.0826627 206.756,52.872 L206.756,57 L204.676,57 L204.676,48.44 L206.756,48.44 L206.756,50.088 Z M213.732,48.456 L215.908,48.44 L218.148,54.952 L220.34,48.44 L222.436,48.44 L219.172,57 L217.028,57 L213.732,48.456 Z M228.692,57 L228.692,55.96 C228.393332,56.3333352 228.009336,56.615999 227.54,56.808 C227.070664,57.000001 226.532003,57.096 225.924,57.096 C225.326664,57.096 224.801336,56.9813345 224.348,56.752 C223.894664,56.5226655 223.545335,56.2053354 223.3,55.8 C223.054665,55.3946646 222.932,54.9413358 222.932,54.44 C222.932,53.639996 223.214664,53.0133356 223.78,52.56 C224.345336,52.1066644 225.145328,51.8746667 226.18,51.864 L228.676,51.864 L228.676,51.64 C228.676,51.1386642 228.510668,50.7493347 228.18,50.472 C227.849332,50.1946653 227.369336,50.056 226.74,50.056 C225.929329,50.056 225.081338,50.322664 224.196,50.856 L223.444,49.416 C224.116003,49.0426648 224.726664,48.7733342 225.276,48.608 C225.825336,48.4426658 226.467996,48.36 227.204,48.36 C228.313339,48.36 229.174664,48.626664 229.788,49.16 C230.401336,49.693336 230.713333,50.4399952 230.724,51.4 L230.74,57 L228.692,57 Z M226.42,55.496 C227.017336,55.496 227.529331,55.3546681 227.956,55.072 C228.382669,54.7893319 228.622666,54.4400021 228.676,54.024 L228.676,53.256 L226.516,53.256 C225.961331,53.256 225.553335,53.3386658 225.292,53.504 C225.030665,53.6693342 224.9,53.9386648 224.9,54.312 C224.9,54.6746685 225.035999,54.9626656 225.308,55.176 C225.580001,55.3893344 225.950664,55.496 226.42,55.496 Z M233.156,45.128 L235.236,45.128 L235.236,57 L233.156,57 L233.156,45.128 Z M245.812,48.44 L245.812,57 L243.716,57 L243.716,55.416 C243.139997,56.5253389 242.148007,57.08 240.74,57.08 C239.779995,57.08 239.022669,56.7866696 238.468,56.2 C237.913331,55.6133304 237.636,54.8133384 237.636,53.8 L237.636,48.44 L239.732,48.44 L239.732,53.192 C239.732,53.7893363 239.894665,54.258665 240.22,54.6 C240.545335,54.941335 240.995997,55.112 241.572,55.112 C242.233337,55.1013333 242.755998,54.866669 243.14,54.408 C243.524002,53.949331 243.716,53.3680035 243.716,52.664 L243.716,48.44 L245.812,48.44 Z M251.972,48.376 C253.33734,48.376 254.363997,48.7653294 255.052,49.544 C255.740003,50.3226706 256.084,51.415993 256.084,52.824 C256.084,53.1013347 256.078667,53.3093326 256.068,53.448 L249.748,53.448 C249.886667,54.056003 250.171998,54.5333316 250.604,54.88 C251.036002,55.2266684 251.566664,55.4 252.196,55.4 C252.633336,55.4 253.051998,55.3173342 253.452,55.152 C253.852002,54.9866658 254.201332,54.7493349 254.5,54.44 L255.62,55.608 C255.193331,56.0773357 254.673336,56.4399987 254.06,56.696 C253.446664,56.9520013 252.76667,57.08 252.02,57.08 C251.145329,57.08 250.37467,56.8986685 249.708,56.536 C249.04133,56.1733315 248.526668,55.6640033 248.164,55.008 C247.801332,54.3519967 247.62,53.5973376 247.62,52.744 C247.62,51.8906624 247.803998,51.1333366 248.172,50.472 C248.540002,49.8106634 249.054663,49.2960018 249.716,48.928 C250.377337,48.5599982 251.129329,48.376 251.972,48.376 Z M254.18,52.056 C254.158667,51.4266635 253.950669,50.9253352 253.556,50.552 C253.161331,50.1786648 252.63867,49.992 251.988,49.992 C251.379997,49.992 250.870669,50.1759982 250.46,50.544 C250.049331,50.9120018 249.796,51.4159968 249.7,52.056 L254.18,52.056 Z" id="Learn-what-affects-t" fill="#FF4B52"></path>
                                        <path d="M2.5,61.5 L255.5,61.5" id="Line-6" stroke="#FF4B52" stroke-linecap="square" fill-rule="nonzero"></path>
                                        <rect id="Rectangle-2" stroke="#C6C6C6" fill="#FFFFFF" opacity="0.497042411" x="2.5" y="136.5" width="221" height="48" rx="4"></rect>
                                        <g id="Rectangle-2">
                                            <use fill="black" fill-opacity="1" filter="url(#filter-2)" xlink:href="#path-1"></use>
                                            <use fill="#BCA692" fill-rule="evenodd" xlink:href="#path-1"></use>
                                        </g>
                                        <text id="Submit" font-family="Montserrat-Medium, Montserrat" font-size="16" font-weight="400" fill="#FFFFFF">
                                            <tspan x="240.304" y="166">Submit</tspan>
                                        </text>
                                        <text id="Suggest-your-own-pri" font-family="Montserrat-Regular, Montserrat" font-size="16" font-weight="normal" line-spacing="24" fill="#363A4F">
                                            <tspan x="1" y="120">Suggest your own price:</tspan>
                                        </text>
                                        <path d="M19.16,154.8 L27.912,154.8 L27.912,156.208 L24.296,156.208 L24.296,166 L22.76,166 L22.76,156.208 L19.16,156.208 L19.16,154.8 Z M32.488,167.2 C32.221332,167.85067 31.8666689,168.341332 31.424,168.672 C30.9813311,169.002668 30.4613363,169.168 29.864,169.168 C29.5013315,169.168 29.1706682,169.114667 28.872,169.008 C28.5733318,168.901333 28.2853347,168.736001 28.008,168.512 L28.648,167.344 C29.0213352,167.610668 29.3999981,167.744 29.784,167.744 C30.4240032,167.744 30.9039984,167.381337 31.224,166.656 L31.544,165.904 L28.04,157.536 L29.608,157.536 L32.296,164.32 L34.84,157.536 L36.36,157.536 L32.488,167.2 Z M42.456,157.488 C43.2453373,157.488 43.9493302,157.669332 44.568,158.032 C45.1866698,158.394668 45.666665,158.90133 46.008,159.552 C46.349335,160.20267 46.52,160.949329 46.52,161.792 C46.52,162.624004 46.3520017,163.362663 46.016,164.008 C45.6799983,164.653337 45.2053364,165.154665 44.592,165.512 C43.9786636,165.869335 43.2773373,166.048 42.488,166.048 C41.7733298,166.048 41.1440027,165.898668 40.6,165.6 C40.0559973,165.301332 39.6293349,164.874669 39.32,164.32 L39.32,169.104 L37.832,169.104 L37.832,157.536 L39.32,157.536 L39.32,159.216 C39.6293349,158.661331 40.0533306,158.234668 40.592,157.936 C41.1306694,157.637332 41.7519965,157.488 42.456,157.488 Z M42.168,164.752 C42.7120027,164.752 43.1999978,164.624001 43.632,164.368 C44.0640022,164.111999 44.3999988,163.754669 44.64,163.296 C44.8800012,162.837331 45,162.320003 45,161.744 C45,161.178664 44.8773346,160.666669 44.632,160.208 C44.3866654,159.749331 44.0506688,159.392001 43.624,159.136 C43.1973312,158.879999 42.7120027,158.752 42.168,158.752 C41.6239973,158.752 41.1360022,158.879999 40.704,159.136 C40.2719978,159.392001 39.9333346,159.749331 39.688,160.208 C39.4426654,160.666669 39.32,161.178664 39.32,161.744 C39.32,162.33067 39.4426654,162.850664 39.688,163.304 C39.9333346,163.757336 40.2719978,164.111999 40.704,164.368 C41.1360022,164.624001 41.6239973,164.752 42.168,164.752 Z M51.992,157.488 C53.3040066,157.488 54.2959966,157.874663 54.968,158.648 C55.6400034,159.421337 55.976,160.495993 55.976,161.872 C55.976,162.085334 55.9706667,162.245333 55.96,162.352 L49.272,162.352 C49.3893339,163.109337 49.7066641,163.711998 50.224,164.16 C50.7413359,164.608002 51.3786629,164.832 52.136,164.832 C52.6373358,164.832 53.1039978,164.741334 53.536,164.56 C53.9680022,164.378666 54.3439984,164.122668 54.664,163.792 L55.48,164.64 C55.0639979,165.088002 54.5626696,165.434665 53.976,165.68 C53.3893304,165.925335 52.7386702,166.048 52.024,166.048 C51.1919958,166.048 50.4533366,165.869335 49.808,165.512 C49.1626634,165.154665 48.6613351,164.65067 48.304,164 C47.9466649,163.34933 47.768,162.608004 47.768,161.776 C47.768,160.943996 47.9466649,160.205337 48.304,159.56 C48.6613351,158.914663 49.1599968,158.408002 49.8,158.04 C50.4400032,157.671998 51.1706626,157.488 51.992,157.488 Z M54.632,161.2 C54.5893331,160.431996 54.3333357,159.826669 53.864,159.384 C53.3946643,158.941331 52.7760038,158.72 52.008,158.72 C51.2613296,158.72 50.6400025,158.943998 50.144,159.392 C49.6479975,159.840002 49.3520005,160.442663 49.256,161.2 L54.632,161.2 Z M66.904,157.488 C67.6933373,157.488 68.3973302,157.669332 69.016,158.032 C69.6346698,158.394668 70.114665,158.90133 70.456,159.552 C70.797335,160.20267 70.968,160.949329 70.968,161.792 C70.968,162.624004 70.8000017,163.362663 70.464,164.008 C70.1279983,164.653337 69.6533364,165.154665 69.04,165.512 C68.4266636,165.869335 67.7253373,166.048 66.936,166.048 C66.2213298,166.048 65.5920027,165.898668 65.048,165.6 C64.5039973,165.301332 64.0773349,164.874669 63.768,164.32 L63.768,169.104 L62.28,169.104 L62.28,157.536 L63.768,157.536 L63.768,159.216 C64.0773349,158.661331 64.5013306,158.234668 65.04,157.936 C65.5786694,157.637332 66.1999965,157.488 66.904,157.488 Z M66.616,164.752 C67.1600027,164.752 67.6479978,164.624001 68.08,164.368 C68.5120022,164.111999 68.8479988,163.754669 69.088,163.296 C69.3280012,162.837331 69.448,162.320003 69.448,161.744 C69.448,161.178664 69.3253346,160.666669 69.08,160.208 C68.8346654,159.749331 68.4986688,159.392001 68.072,159.136 C67.6453312,158.879999 67.1600027,158.752 66.616,158.752 C66.0719973,158.752 65.5840022,158.879999 65.152,159.136 C64.7199978,159.392001 64.3813346,159.749331 64.136,160.208 C63.8906654,160.666669 63.768,161.178664 63.768,161.744 C63.768,162.33067 63.8906654,162.850664 64.136,163.304 C64.3813346,163.757336 64.7199978,164.111999 65.152,164.368 C65.5840022,164.624001 66.0719973,164.752 66.616,164.752 Z M74.536,159.36 C74.8133347,158.751997 75.2079974,158.290668 75.72,157.976 C76.2320026,157.661332 76.8399965,157.498667 77.544,157.488 L77.544,158.928 C76.6799957,158.896 75.981336,159.119998 75.448,159.6 C74.914664,160.080002 74.610667,160.725329 74.536,161.536 L74.536,166 L73.048,166 L73.048,157.536 L74.536,157.536 L74.536,159.36 Z M79.16,157.536 L80.648,157.536 L80.648,166 L79.16,166 L79.16,157.536 Z M79.896,154.16 C80.162668,154.16 80.3839991,154.250666 80.56,154.432 C80.7360009,154.613334 80.824,154.842665 80.824,155.12 C80.824,155.397335 80.7360009,155.626666 80.56,155.808 C80.3839991,155.989334 80.162668,156.08 79.896,156.08 C79.629332,156.08 79.4080009,155.989334 79.232,155.808 C79.0559991,155.626666 78.968,155.397335 78.968,155.12 C78.968,154.842665 79.0559991,154.613334 79.232,154.432 C79.4080009,154.250666 79.629332,154.16 79.896,154.16 Z M89.48,159.792 C88.8079966,159.14133 88.0026714,158.816 87.064,158.816 C86.5093306,158.816 86.0160022,158.938665 85.584,159.184 C85.1519978,159.429335 84.8133346,159.775998 84.568,160.224 C84.3226654,160.672002 84.2,161.18933 84.2,161.776 C84.2,162.36267 84.3199988,162.879998 84.56,163.328 C84.8000012,163.776002 85.1306646,164.125332 85.552,164.376 C85.9733354,164.626668 86.4559973,164.752 87,164.752 C87.5440027,164.752 88.0346645,164.661334 88.472,164.48 C88.9093355,164.298666 89.2719986,164.037335 89.56,163.696 L90.408,164.56 C90.0239981,165.040002 89.536003,165.407999 88.944,165.664 C88.351997,165.920001 87.6826704,166.048 86.936,166.048 C86.1146626,166.048 85.3840032,165.866668 84.744,165.504 C84.1039968,165.141332 83.6053351,164.637337 83.248,163.992 C82.8906649,163.346663 82.712,162.608004 82.712,161.776 C82.712,160.943996 82.8906649,160.20267 83.248,159.552 C83.6053351,158.90133 84.1039968,158.394668 84.744,158.032 C85.3840032,157.669332 86.1146626,157.488 86.936,157.488 C87.6506702,157.488 88.2933305,157.597332 88.864,157.816 C89.4346695,158.034668 89.9119981,158.351998 90.296,158.768 L89.48,159.792 Z M95.928,157.488 C97.2400066,157.488 98.2319966,157.874663 98.904,158.648 C99.5760034,159.421337 99.912,160.495993 99.912,161.872 C99.912,162.085334 99.9066667,162.245333 99.896,162.352 L93.208,162.352 C93.3253339,163.109337 93.6426641,163.711998 94.16,164.16 C94.6773359,164.608002 95.3146629,164.832 96.072,164.832 C96.5733358,164.832 97.0399978,164.741334 97.472,164.56 C97.9040022,164.378666 98.2799984,164.122668 98.6,163.792 L99.416,164.64 C98.9999979,165.088002 98.4986696,165.434665 97.912,165.68 C97.3253304,165.925335 96.6746702,166.048 95.96,166.048 C95.1279958,166.048 94.3893366,165.869335 93.744,165.512 C93.0986634,165.154665 92.5973351,164.65067 92.24,164 C91.8826649,163.34933 91.704,162.608004 91.704,161.776 C91.704,160.943996 91.8826649,160.205337 92.24,159.56 C92.5973351,158.914663 93.0959968,158.408002 93.736,158.04 C94.3760032,157.671998 95.1066626,157.488 95.928,157.488 Z M98.568,161.2 C98.5253331,160.431996 98.2693357,159.826669 97.8,159.384 C97.3306643,158.941331 96.7120038,158.72 95.944,158.72 C95.1973296,158.72 94.5760025,158.943998 94.08,159.392 C93.5839975,159.840002 93.2880005,160.442663 93.192,161.2 L98.568,161.2 Z M102.152,164.352 C102.386668,164.352 102.586666,164.431999 102.752,164.592 C102.917334,164.752001 103,164.965332 103,165.232 C103,165.349334 102.976,165.471999 102.928,165.6 C102.88,165.728001 102.829334,165.850666 102.776,165.968 L101.912,167.792 L101.096,167.792 L101.736,165.984 C101.586666,165.909333 101.474667,165.805334 101.4,165.672 C101.325333,165.538666 101.288,165.392001 101.288,165.232 C101.288,164.975999 101.370666,164.765334 101.536,164.6 C101.701334,164.434666 101.906665,164.352 102.152,164.352 Z M108.104,154.8 L116.856,154.8 L116.856,156.208 L113.24,156.208 L113.24,166 L111.704,166 L111.704,156.208 L108.104,156.208 L108.104,154.8 Z M118.616,154.8 L120.152,154.8 L120.152,164.608 L125.048,164.608 L125.048,166 L118.616,166 L118.616,154.8 Z" id="Type-price,-TL" fill="#363A4F" opacity="0.5"></path>
                                        <path d="M2.5,83.25 L321.5,83.25" id="Line-5" stroke="#979797" opacity="0.2" stroke-linecap="square" fill-rule="nonzero"></path>
                                    </g>
                                </g>
                            </g>
                        </g>
                    </g>
                </g>
            </g>
        </g>
    </g>
</svg>