<?xml version="1.0" encoding="UTF-8"?>
<svg width="325px" height="189px" viewBox="0 0 325 189" version="1.1" xmlns="http://www.w3.org/2000/svg" xmlns:xlink="http://www.w3.org/1999/xlink">
    <!-- Generator: Sketch 51.1 (57501) - http://www.bohemiancoding.com/sketch -->
    <title>Group 28</title>
    <desc>Created with Sketch.</desc>
    <defs>
        <path d="M217,135 L317,135 C319.209139,135 321,136.790861 321,139 L321,180 C321,182.209139 319.209139,184 317,184 L217,184 L217,135 Z" id="path-1"></path>
        <filter x="-6.2%" y="-11.2%" width="112.5%" height="126.5%" filterUnits="objectBoundingBox" id="filter-2">
            <feOffset dx="0" dy="1" in="SourceAlpha" result="shadowOffsetOuter1"></feOffset>
            <feGaussianBlur stdDeviation="2" in="shadowOffsetOuter1" result="shadowBlurOuter1"></feGaussianBlur>
            <feColorMatrix values="0 0 0 0 0   0 0 0 0 0   0 0 0 0 0  0 0 0 0.18580163 0" type="matrix" in="shadowBlurOuter1"></feColorMatrix>
        </filter>
    </defs>
    <g id="Page-1" stroke="none" stroke-width="1" fill="none" fill-rule="evenodd">
        <g id="4-copy-6" transform="translate(-337.000000, -360.000000)">
            <g id="Group-24" transform="translate(284.000000, 118.000000)">
                <g id="Group-23">
                    <g id="Group-16">
                        <g id="Navigate-Card" transform="translate(0.000000, 2.000000)">
                            <g id="Group-2">
                                <g id="Group-28" transform="translate(0.000000, 228.000000)">
                                    <g id="Group-29" transform="translate(53.000000, 12.000000)">
                                        <path d="M11.924,0.6 C12.7800043,0.6 13.4539975,0.78599814 13.946,1.158 C14.4380025,1.53000186 14.684,2.04399672 14.684,2.7 C14.684,3.1800024 14.5480014,3.58599834 14.276,3.918 C14.0039986,4.25000166 13.6320024,4.47199944 13.16,4.584 C13.7440029,4.67200044 14.2019983,4.9059981 14.534,5.286 C14.8660017,5.6660019 15.032,6.13999716 15.032,6.708 C15.032,7.4280036 14.7620027,7.98999798 14.222,8.394 C13.6819973,8.79800202 12.9360048,9 11.984,9 L8.336,9 L8.336,0.6 L11.924,0.6 Z M11.864,4.164 C12.3840026,4.164 12.7859986,4.0540011 13.07,3.834 C13.3540014,3.6139989 13.496,3.30000204 13.496,2.892 C13.496,2.491998 13.3540014,2.18400108 13.07,1.968 C12.7859986,1.75199892 12.3840026,1.64799996 11.864,1.656 L9.488,1.656 L9.488,4.164 L11.864,4.164 Z M11.864,7.944 C12.4880031,7.95200004 12.9759982,7.83400122 13.328,7.59 C13.6800018,7.34599878 13.856,7.0040022 13.856,6.564 C13.856,6.13999788 13.6800018,5.8080012 13.328,5.568 C12.9759982,5.3279988 12.4880031,5.208 11.864,5.208 L9.488,5.208 L9.488,7.944 L11.864,7.944 Z M20.648,9 L20.648,8.112 C20.1759976,8.73600312 19.436005,9.048 18.428,9.048 C17.9879978,9.048 17.6020017,8.96400084 17.27,8.796 C16.9379983,8.62799916 16.6820009,8.39600148 16.502,8.1 C16.3219991,7.80399852 16.232,7.47200184 16.232,7.104 C16.232,6.53599716 16.4419979,6.08600166 16.862,5.754 C17.2820021,5.42199834 17.8679962,5.25200004 18.62,5.244 L20.636,5.244 L20.636,4.944 C20.636,4.49599776 20.4980014,4.15000122 20.222,3.906 C19.9459986,3.66199878 19.5440026,3.54 19.016,3.54 C18.3759968,3.54 17.7240033,3.76799772 17.06,4.224 L16.592,3.456 C17.0480023,3.15999852 17.4699981,2.94600066 17.858,2.814 C18.2460019,2.68199934 18.7079973,2.616 19.244,2.616 C20.036004,2.616 20.6479978,2.80999806 21.08,3.198 C21.5120022,3.58600194 21.732,4.12799652 21.74,4.824 L21.752,9 L20.648,9 Z M18.656,8.124 C19.1760026,8.124 19.6179982,7.99800126 19.982,7.746 C20.3460018,7.49399874 20.5639996,7.16000208 20.636,6.744 L20.636,6.108 L18.776,6.108 C18.2719975,6.108 17.8980012,6.18399924 17.654,6.336 C17.4099988,6.48800076 17.288,6.72799836 17.288,7.056 C17.288,7.38400164 17.4119988,7.64399904 17.66,7.836 C17.9080012,8.02800096 18.2399979,8.124 18.656,8.124 Z M27.212,4.056 C26.9479987,3.8959992 26.6580016,3.76800048 26.342,3.672 C26.0259984,3.57599952 25.7240014,3.528 25.436,3.528 C25.0999983,3.528 24.830001,3.58999938 24.626,3.714 C24.421999,3.83800062 24.32,4.02799872 24.32,4.284 C24.32,4.54000128 24.4339989,4.73399934 24.662,4.866 C24.8900011,4.99800066 25.2359977,5.13199932 25.7,5.268 C26.1400022,5.39600064 26.4999986,5.52399936 26.78,5.652 C27.0600014,5.78000064 27.297999,5.96799876 27.494,6.216 C27.690001,6.46400124 27.788,6.79199796 27.788,7.2 C27.788,7.800003 27.5620023,8.25599844 27.11,8.568 C26.6579977,8.88000156 26.0960034,9.036 25.424,9.036 C24.9519976,9.036 24.4940022,8.96000076 24.05,8.808 C23.6059978,8.65599924 23.2320015,8.4400014 22.928,8.16 L23.348,7.344 C23.6120013,7.5840012 23.9379981,7.77599928 24.326,7.92 C24.7140019,8.06400072 25.0919982,8.136 25.46,8.136 C25.8280018,8.136 26.1239989,8.06800068 26.348,7.932 C26.5720011,7.79599932 26.684,7.5880014 26.684,7.308 C26.684,7.01999856 26.5660012,6.80400072 26.33,6.66 C26.0939988,6.51599928 25.7360024,6.37200072 25.256,6.228 C24.8319979,6.1079994 24.4860013,5.98600062 24.218,5.862 C23.9499987,5.73799938 23.7220009,5.5560012 23.534,5.316 C23.3459991,5.0759988 23.252,4.76400192 23.252,4.38 C23.252,3.78799704 23.4679978,3.34400148 23.9,3.048 C24.3320022,2.75199852 24.8719968,2.604 25.52,2.604 C25.9040019,2.604 26.2819981,2.65799946 26.654,2.766 C27.0260019,2.87400054 27.3479986,3.01999908 27.62,3.204 L27.212,4.056 Z M31.808,2.616 C32.7920049,2.616 33.5359975,2.9059971 34.04,3.486 C34.5440025,4.0660029 34.796,4.87199484 34.796,5.904 C34.796,6.0640008 34.792,6.1839996 34.784,6.264 L29.768,6.264 C29.8560004,6.83200284 30.0939981,7.28399832 30.482,7.62 C30.8700019,7.95600168 31.3479972,8.124 31.916,8.124 C32.2920019,8.124 32.6419984,8.05600068 32.966,7.92 C33.2900016,7.78399932 33.5719988,7.59200124 33.812,7.344 L34.424,7.98 C34.1119984,8.31600168 33.7360022,8.57599908 33.296,8.76 C32.8559978,8.94400092 32.3680027,9.036 31.832,9.036 C31.2079969,9.036 30.6540024,8.90200134 30.17,8.634 C29.6859976,8.36599866 29.3100013,7.98800244 29.042,7.5 C28.7739987,7.01199756 28.64,6.45600312 28.64,5.832 C28.64,5.20799688 28.7739987,4.65400242 29.042,4.17 C29.3100013,3.68599758 29.6839976,3.30600138 30.164,3.03 C30.6440024,2.75399862 31.1919969,2.616 31.808,2.616 Z M33.788,5.4 C33.7559998,4.82399712 33.5640018,4.37000166 33.212,4.038 C32.8599982,3.70599834 32.3960029,3.54 31.82,3.54 C31.2599972,3.54 30.7940019,3.70799832 30.422,4.044 C30.0499981,4.38000168 29.8280004,4.83199716 29.756,5.4 L33.788,5.4 Z M42.236,0.096 L42.236,9 L41.12,9 L41.12,7.74 C40.8799988,8.16400212 40.558002,8.48999886 40.154,8.718 C39.749998,8.94600114 39.2800027,9.06 38.744,9.06 C38.143997,9.06 37.6140023,8.92200138 37.154,8.646 C36.6939977,8.36999862 36.3360013,7.98600246 36.08,7.494 C35.8239987,7.00199754 35.696,6.44000316 35.696,5.808 C35.696,5.18399688 35.8239987,4.63000242 36.08,4.146 C36.3360013,3.66199758 36.6939977,3.28400136 37.154,3.012 C37.6140023,2.73999864 38.139997,2.604 38.732,2.604 C39.2760027,2.604 39.751998,2.71599888 40.16,2.94 C40.568002,3.16400112 40.8879988,3.48799788 41.12,3.912 L41.12,0.096 L42.236,0.096 Z M38.972,8.1 C39.3880021,8.1 39.7579984,8.00400096 40.082,7.812 C40.4060016,7.61999904 40.6599991,7.35200172 40.844,7.008 C41.0280009,6.66399828 41.12,6.27600216 41.12,5.844 C41.12,5.4039978 41.0280009,5.01200172 40.844,4.668 C40.6599991,4.32399828 40.4060016,4.05600096 40.082,3.864 C39.7579984,3.67199904 39.3880021,3.576 38.972,3.576 C38.5559979,3.576 38.1860016,3.67399902 37.862,3.87 C37.5379984,4.06600098 37.2840009,4.33599828 37.1,4.68 C36.9159991,5.02400172 36.824,5.41199784 36.824,5.844 C36.824,6.27600216 36.9159991,6.66399828 37.1,7.008 C37.2840009,7.35200172 37.5379984,7.61999904 37.862,7.812 C38.1860016,8.00400096 38.5559979,8.1 38.972,8.1 Z M50.264,2.616 C50.8960032,2.616 51.4579975,2.75199864 51.95,3.024 C52.4420025,3.29600136 52.8259986,3.67399758 53.102,4.158 C53.3780014,4.64200242 53.516,5.19599688 53.516,5.82 C53.516,6.44400312 53.3780014,6.99999756 53.102,7.488 C52.8259986,7.97600244 52.4420025,8.35599864 51.95,8.628 C51.4579975,8.90000136 50.8960032,9.036 50.264,9.036 C49.6239968,9.036 49.0580025,8.90000136 48.566,8.628 C48.0739975,8.35599864 47.6900014,7.97800242 47.414,7.494 C47.1379986,7.00999758 47,6.45200316 47,5.82 C47,5.19599688 47.1379986,4.64200242 47.414,4.158 C47.6900014,3.67399758 48.0739975,3.29600136 48.566,3.024 C49.0580025,2.75199864 49.6239968,2.616 50.264,2.616 Z M50.264,3.588 C49.8479979,3.588 49.4780016,3.68399904 49.154,3.876 C48.8299984,4.06800096 48.5780009,4.3339983 48.398,4.674 C48.2179991,5.0140017 48.128,5.39999784 48.128,5.832 C48.128,6.2720022 48.2179991,6.66399828 48.398,7.008 C48.5780009,7.35200172 48.8299984,7.61799906 49.154,7.806 C49.4780016,7.99400094 49.8479979,8.088 50.264,8.088 C50.672002,8.088 51.0379984,7.99400094 51.362,7.806 C51.6860016,7.61799906 51.9379991,7.35200172 52.118,7.008 C52.2980009,6.66399828 52.388,6.2720022 52.388,5.832 C52.388,5.39999784 52.2980009,5.0140017 52.118,4.674 C51.9379991,4.3339983 51.6860016,4.06800096 51.362,3.876 C51.0379984,3.68399904 50.672002,3.588 50.264,3.588 Z M58.604,2.616 C59.3480037,2.616 59.9319979,2.83399782 60.356,3.27 C60.7800021,3.70600218 60.992,4.30799616 60.992,5.076 L60.992,9 L59.876,9 L59.876,5.376 C59.876,4.83999732 59.7260015,4.4220015 59.426,4.122 C59.1259985,3.8219985 58.7120026,3.672 58.184,3.672 C57.6159972,3.68000004 57.1540018,3.86199822 56.798,4.218 C56.4419982,4.57400178 56.2400002,5.03599716 56.192,5.604 L56.192,9 L55.076,9 L55.076,2.652 L56.192,2.652 L56.192,3.996 C56.6160021,3.09199548 57.4199941,2.63200008 58.604,2.616 Z M71.744,2.652 L71.744,8.352 C71.744,8.96000304 71.6100013,9.49199772 71.342,9.948 C71.0739987,10.4040023 70.6960024,10.7539988 70.208,10.998 C69.7199976,11.2420012 69.1520032,11.364 68.504,11.364 C67.5679953,11.364 66.696004,11.068003 65.888,10.476 L66.38,9.66 C66.6920016,9.91600128 67.0159983,10.1059994 67.352,10.23 C67.6880017,10.3540006 68.055998,10.416 68.456,10.416 C69.1120033,10.416 69.635998,10.2320018 70.028,9.864 C70.420002,9.49599816 70.616,9.00400308 70.616,8.388 L70.616,7.5 C70.3919989,7.88400192 70.0880019,8.18199894 69.704,8.394 C69.3199981,8.60600106 68.8800025,8.712 68.384,8.712 C67.8159972,8.712 67.3140022,8.5820013 66.878,8.322 C66.4419978,8.0619987 66.1040012,7.70000232 65.864,7.236 C65.6239988,6.77199768 65.504,6.240003 65.504,5.64 C65.504,5.04799704 65.6239988,4.52400228 65.864,4.068 C66.1040012,3.61199772 66.4419978,3.25600128 66.878,3 C67.3140022,2.74399872 67.8159972,2.616 68.384,2.616 C68.8880025,2.616 69.3299981,2.71999896 69.71,2.928 C70.0900019,3.13600104 70.3919989,3.43199808 70.616,3.816 L70.616,2.652 L71.744,2.652 Z M68.6,7.812 C68.992002,7.812 69.3399985,7.72000092 69.644,7.536 C69.9480015,7.35199908 70.1859991,7.09800162 70.358,6.774 C70.5300009,6.44999838 70.616,6.08400204 70.616,5.676 C70.616,5.25999792 70.5300009,4.89000162 70.358,4.566 C70.1859991,4.24199838 69.9480015,3.98800092 69.644,3.804 C69.3399985,3.61999908 68.992002,3.528 68.6,3.528 C68.207998,3.528 67.8580015,3.61999908 67.55,3.804 C67.2419985,3.98800092 67.0000009,4.24199838 66.824,4.566 C66.6479991,4.89000162 66.56,5.25999792 66.56,5.676 C66.568,6.30000312 66.7599981,6.811998 67.136,7.212 C67.5120019,7.612002 67.999997,7.812 68.6,7.812 Z M76.424,2.616 C77.0560032,2.616 77.6179975,2.75199864 78.11,3.024 C78.6020025,3.29600136 78.9859986,3.67399758 79.262,4.158 C79.5380014,4.64200242 79.676,5.19599688 79.676,5.82 C79.676,6.44400312 79.5380014,6.99999756 79.262,7.488 C78.9859986,7.97600244 78.6020025,8.35599864 78.11,8.628 C77.6179975,8.90000136 77.0560032,9.036 76.424,9.036 C75.7839968,9.036 75.2180025,8.90000136 74.726,8.628 C74.2339975,8.35599864 73.8500014,7.97800242 73.574,7.494 C73.2979986,7.00999758 73.16,6.45200316 73.16,5.82 C73.16,5.19599688 73.2979986,4.64200242 73.574,4.158 C73.8500014,3.67399758 74.2339975,3.29600136 74.726,3.024 C75.2180025,2.75199864 75.7839968,2.616 76.424,2.616 Z M76.424,3.588 C76.0079979,3.588 75.6380016,3.68399904 75.314,3.876 C74.9899984,4.06800096 74.7380009,4.3339983 74.558,4.674 C74.3779991,5.0140017 74.288,5.39999784 74.288,5.832 C74.288,6.2720022 74.3779991,6.66399828 74.558,7.008 C74.7380009,7.35200172 74.9899984,7.61799906 75.314,7.806 C75.6380016,7.99400094 76.0079979,8.088 76.424,8.088 C76.832002,8.088 77.1979984,7.99400094 77.522,7.806 C77.8460016,7.61799906 78.0979991,7.35200172 78.278,7.008 C78.4580009,6.66399828 78.548,6.2720022 78.548,5.832 C78.548,5.39999784 78.4580009,5.0140017 78.278,4.674 C78.0979991,4.3339983 77.8460016,4.06800096 77.522,3.876 C77.1979984,3.68399904 76.832002,3.588 76.424,3.588 Z M83.876,2.616 C84.5080032,2.616 85.0699975,2.75199864 85.562,3.024 C86.0540025,3.29600136 86.4379986,3.67399758 86.714,4.158 C86.9900014,4.64200242 87.128,5.19599688 87.128,5.82 C87.128,6.44400312 86.9900014,6.99999756 86.714,7.488 C86.4379986,7.97600244 86.0540025,8.35599864 85.562,8.628 C85.0699975,8.90000136 84.5080032,9.036 83.876,9.036 C83.2359968,9.036 82.6700025,8.90000136 82.178,8.628 C81.6859975,8.35599864 81.3020014,7.97800242 81.026,7.494 C80.7499986,7.00999758 80.612,6.45200316 80.612,5.82 C80.612,5.19599688 80.7499986,4.64200242 81.026,4.158 C81.3020014,3.67399758 81.6859975,3.29600136 82.178,3.024 C82.6700025,2.75199864 83.2359968,2.616 83.876,2.616 Z M83.876,3.588 C83.4599979,3.588 83.0900016,3.68399904 82.766,3.876 C82.4419984,4.06800096 82.1900009,4.3339983 82.01,4.674 C81.8299991,5.0140017 81.74,5.39999784 81.74,5.832 C81.74,6.2720022 81.8299991,6.66399828 82.01,7.008 C82.1900009,7.35200172 82.4419984,7.61799906 82.766,7.806 C83.0900016,7.99400094 83.4599979,8.088 83.876,8.088 C84.284002,8.088 84.6499984,7.99400094 84.974,7.806 C85.2980016,7.61799906 85.5499991,7.35200172 85.73,7.008 C85.9100009,6.66399828 86,6.2720022 86,5.832 C86,5.39999784 85.9100009,5.0140017 85.73,4.674 C85.5499991,4.3339983 85.2980016,4.06800096 84.974,3.876 C84.6499984,3.68399904 84.284002,3.588 83.876,3.588 Z M94.604,0.096 L94.604,9 L93.488,9 L93.488,7.74 C93.2479988,8.16400212 92.926002,8.48999886 92.522,8.718 C92.117998,8.94600114 91.6480027,9.06 91.112,9.06 C90.511997,9.06 89.9820023,8.92200138 89.522,8.646 C89.0619977,8.36999862 88.7040013,7.98600246 88.448,7.494 C88.1919987,7.00199754 88.064,6.44000316 88.064,5.808 C88.064,5.18399688 88.1919987,4.63000242 88.448,4.146 C88.7040013,3.66199758 89.0619977,3.28400136 89.522,3.012 C89.9820023,2.73999864 90.507997,2.604 91.1,2.604 C91.6440027,2.604 92.119998,2.71599888 92.528,2.94 C92.936002,3.16400112 93.2559988,3.48799788 93.488,3.912 L93.488,0.096 L94.604,0.096 Z M91.34,8.1 C91.7560021,8.1 92.1259984,8.00400096 92.45,7.812 C92.7740016,7.61999904 93.0279991,7.35200172 93.212,7.008 C93.3960009,6.66399828 93.488,6.27600216 93.488,5.844 C93.488,5.4039978 93.3960009,5.01200172 93.212,4.668 C93.0279991,4.32399828 92.7740016,4.05600096 92.45,3.864 C92.1259984,3.67199904 91.7560021,3.576 91.34,3.576 C90.9239979,3.576 90.5540016,3.67399902 90.23,3.87 C89.9059984,4.06600098 89.6520009,4.33599828 89.468,4.68 C89.2839991,5.02400172 89.192,5.41199784 89.192,5.844 C89.192,6.27600216 89.2839991,6.66399828 89.468,7.008 C89.6520009,7.35200172 89.9059984,7.61999904 90.23,7.812 C90.5540016,8.00400096 90.9239979,8.1 91.34,8.1 Z M104.444,4.344 C103.939997,3.85599756 103.336004,3.612 102.632,3.612 C102.215998,3.612 101.846002,3.70399908 101.522,3.888 C101.197998,4.07200092 100.944001,4.33199832 100.76,4.668 C100.575999,5.00400168 100.484,5.3919978 100.484,5.832 C100.484,6.2720022 100.573999,6.65999832 100.754,6.996 C100.934001,7.33200168 101.181998,7.59399906 101.498,7.782 C101.814002,7.97000094 102.175998,8.064 102.584,8.064 C102.992002,8.064 103.359998,7.99600068 103.688,7.86 C104.016002,7.72399932 104.287999,7.52800128 104.504,7.272 L105.14,7.92 C104.851999,8.2800018 104.486002,8.55599904 104.042,8.748 C103.597998,8.94000096 103.096003,9.036 102.536,9.036 C101.919997,9.036 101.372002,8.90000136 100.892,8.628 C100.411998,8.35599864 100.038001,7.97800242 99.77,7.494 C99.5019987,7.00999758 99.368,6.45600312 99.368,5.832 C99.368,5.20799688 99.5019987,4.65200244 99.77,4.164 C100.038001,3.67599756 100.411998,3.29600136 100.892,3.024 C101.372002,2.75199864 101.919997,2.616 102.536,2.616 C103.072003,2.616 103.553998,2.69799918 103.982,2.862 C104.410002,3.02600082 104.767999,3.26399844 105.056,3.576 L104.444,4.344 Z M109.376,2.616 C110.008003,2.616 110.569998,2.75199864 111.062,3.024 C111.554002,3.29600136 111.937999,3.67399758 112.214,4.158 C112.490001,4.64200242 112.628,5.19599688 112.628,5.82 C112.628,6.44400312 112.490001,6.99999756 112.214,7.488 C111.937999,7.97600244 111.554002,8.35599864 111.062,8.628 C110.569998,8.90000136 110.008003,9.036 109.376,9.036 C108.735997,9.036 108.170002,8.90000136 107.678,8.628 C107.185998,8.35599864 106.802001,7.97800242 106.526,7.494 C106.249999,7.00999758 106.112,6.45200316 106.112,5.82 C106.112,5.19599688 106.249999,4.64200242 106.526,4.158 C106.802001,3.67399758 107.185998,3.29600136 107.678,3.024 C108.170002,2.75199864 108.735997,2.616 109.376,2.616 Z M109.376,3.588 C108.959998,3.588 108.590002,3.68399904 108.266,3.876 C107.941998,4.06800096 107.690001,4.3339983 107.51,4.674 C107.329999,5.0140017 107.24,5.39999784 107.24,5.832 C107.24,6.2720022 107.329999,6.66399828 107.51,7.008 C107.690001,7.35200172 107.941998,7.61799906 108.266,7.806 C108.590002,7.99400094 108.959998,8.088 109.376,8.088 C109.784002,8.088 110.149998,7.99400094 110.474,7.806 C110.798002,7.61799906 111.049999,7.35200172 111.23,7.008 C111.410001,6.66399828 111.5,6.2720022 111.5,5.832 C111.5,5.39999784 111.410001,5.0140017 111.23,4.674 C111.049999,4.3339983 110.798002,4.06800096 110.474,3.876 C110.149998,3.68399904 109.784002,3.588 109.376,3.588 Z M117.716,2.616 C118.460004,2.616 119.043998,2.83399782 119.468,3.27 C119.892002,3.70600218 120.104,4.30799616 120.104,5.076 L120.104,9 L118.988,9 L118.988,5.376 C118.988,4.83999732 118.838002,4.4220015 118.538,4.122 C118.237999,3.8219985 117.824003,3.672 117.296,3.672 C116.727997,3.68000004 116.266002,3.86199822 115.91,4.218 C115.553998,4.57400178 115.352,5.03599716 115.304,5.604 L115.304,9 L114.188,9 L114.188,2.652 L115.304,2.652 L115.304,3.996 C115.728002,3.09199548 116.531994,2.63200008 117.716,2.616 Z M128.012,0.096 L128.012,9 L126.896,9 L126.896,7.74 C126.655999,8.16400212 126.334002,8.48999886 125.93,8.718 C125.525998,8.94600114 125.056003,9.06 124.52,9.06 C123.919997,9.06 123.390002,8.92200138 122.93,8.646 C122.469998,8.36999862 122.112001,7.98600246 121.856,7.494 C121.599999,7.00199754 121.472,6.44000316 121.472,5.808 C121.472,5.18399688 121.599999,4.63000242 121.856,4.146 C122.112001,3.66199758 122.469998,3.28400136 122.93,3.012 C123.390002,2.73999864 123.915997,2.604 124.508,2.604 C125.052003,2.604 125.527998,2.71599888 125.936,2.94 C126.344002,3.16400112 126.663999,3.48799788 126.896,3.912 L126.896,0.096 L128.012,0.096 Z M124.748,8.1 C125.164002,8.1 125.533998,8.00400096 125.858,7.812 C126.182002,7.61999904 126.435999,7.35200172 126.62,7.008 C126.804001,6.66399828 126.896,6.27600216 126.896,5.844 C126.896,5.4039978 126.804001,5.01200172 126.62,4.668 C126.435999,4.32399828 126.182002,4.05600096 125.858,3.864 C125.533998,3.67199904 125.164002,3.576 124.748,3.576 C124.331998,3.576 123.962002,3.67399902 123.638,3.87 C123.313998,4.06600098 123.060001,4.33599828 122.876,4.68 C122.691999,5.02400172 122.6,5.41199784 122.6,5.844 C122.6,6.27600216 122.691999,6.66399828 122.876,7.008 C123.060001,7.35200172 123.313998,7.61999904 123.638,7.812 C123.962002,8.00400096 124.331998,8.1 124.748,8.1 Z M130.256,2.652 L131.372,2.652 L131.372,9 L130.256,9 L130.256,2.652 Z M130.808,0.12 C131.008001,0.12 131.173999,0.18799932 131.306,0.324 C131.438001,0.46000068 131.504,0.63199896 131.504,0.84 C131.504,1.04800104 131.438001,1.21999932 131.306,1.356 C131.173999,1.49200068 131.008001,1.56 130.808,1.56 C130.607999,1.56 130.442001,1.49200068 130.31,1.356 C130.177999,1.21999932 130.112,1.04800104 130.112,0.84 C130.112,0.63199896 130.177999,0.46000068 130.31,0.324 C130.442001,0.18799932 130.607999,0.12 130.808,0.12 Z M136.952,8.58 C136.463998,8.89200156 135.968003,9.048 135.464,9.048 C134.959997,9.048 134.552002,8.8980015 134.24,8.598 C133.927998,8.2979985 133.772,7.84400304 133.772,7.236 L133.772,3.72 L132.872,3.72 L132.872,2.868 L133.772,2.868 L133.772,1.164 L134.9,1.164 L134.9,2.868 L136.844,2.868 L136.844,3.72 L134.9,3.72 L134.9,7.032 C134.9,7.38400176 134.963999,7.63599924 135.092,7.788 C135.220001,7.94000076 135.411999,8.016 135.668,8.016 C135.972002,8.016 136.299998,7.916001 136.652,7.716 L136.952,8.58 Z M138.308,2.652 L139.424,2.652 L139.424,9 L138.308,9 L138.308,2.652 Z M138.86,0.12 C139.060001,0.12 139.225999,0.18799932 139.358,0.324 C139.490001,0.46000068 139.556,0.63199896 139.556,0.84 C139.556,1.04800104 139.490001,1.21999932 139.358,1.356 C139.225999,1.49200068 139.060001,1.56 138.86,1.56 C138.659999,1.56 138.494001,1.49200068 138.362,1.356 C138.229999,1.21999932 138.164,1.04800104 138.164,0.84 C138.164,0.63199896 138.229999,0.46000068 138.362,0.324 C138.494001,0.18799932 138.659999,0.12 138.86,0.12 Z M144.236,2.616 C144.868003,2.616 145.429998,2.75199864 145.922,3.024 C146.414002,3.29600136 146.797999,3.67399758 147.074,4.158 C147.350001,4.64200242 147.488,5.19599688 147.488,5.82 C147.488,6.44400312 147.350001,6.99999756 147.074,7.488 C146.797999,7.97600244 146.414002,8.35599864 145.922,8.628 C145.429998,8.90000136 144.868003,9.036 144.236,9.036 C143.595997,9.036 143.030002,8.90000136 142.538,8.628 C142.045998,8.35599864 141.662001,7.97800242 141.386,7.494 C141.109999,7.00999758 140.972,6.45200316 140.972,5.82 C140.972,5.19599688 141.109999,4.64200242 141.386,4.158 C141.662001,3.67399758 142.045998,3.29600136 142.538,3.024 C143.030002,2.75199864 143.595997,2.616 144.236,2.616 Z M144.236,3.588 C143.819998,3.588 143.450002,3.68399904 143.126,3.876 C142.801998,4.06800096 142.550001,4.3339983 142.37,4.674 C142.189999,5.0140017 142.1,5.39999784 142.1,5.832 C142.1,6.2720022 142.189999,6.66399828 142.37,7.008 C142.550001,7.35200172 142.801998,7.61799906 143.126,7.806 C143.450002,7.99400094 143.819998,8.088 144.236,8.088 C144.644002,8.088 145.009998,7.99400094 145.334,7.806 C145.658002,7.61799906 145.909999,7.35200172 146.09,7.008 C146.270001,6.66399828 146.36,6.2720022 146.36,5.832 C146.36,5.39999784 146.270001,5.0140017 146.09,4.674 C145.909999,4.3339983 145.658002,4.06800096 145.334,3.876 C145.009998,3.68399904 144.644002,3.588 144.236,3.588 Z M152.576,2.616 C153.320004,2.616 153.903998,2.83399782 154.328,3.27 C154.752002,3.70600218 154.964,4.30799616 154.964,5.076 L154.964,9 L153.848,9 L153.848,5.376 C153.848,4.83999732 153.698002,4.4220015 153.398,4.122 C153.097999,3.8219985 152.684003,3.672 152.156,3.672 C151.587997,3.68000004 151.126002,3.86199822 150.77,4.218 C150.413998,4.57400178 150.212,5.03599716 150.164,5.604 L150.164,9 L149.048,9 L149.048,2.652 L150.164,2.652 L150.164,3.996 C150.588002,3.09199548 151.391994,2.63200008 152.576,2.616 Z" id="Based-on-good-condit" fill="#363A4F"></path>
                                        <polygon id="*" fill="#FF4B52" points="2.194 0.348 2.806 0.348 2.794 1.62 3.898 0.972 4.198 1.536 3.082 2.16 4.198 2.784 3.898 3.348 2.794 2.7 2.806 3.972 2.194 3.972 2.206 2.688 1.102 3.336 0.79 2.784 1.906 2.16 0.79 1.536 1.102 0.96 2.206 1.62"></polygon>
                                        <text id="Learn-what-affects-t" font-family="Montserrat-Medium, Montserrat" font-size="16" font-weight="400" line-spacing="24" fill="#FF4B52" text-decoration="underline">
                                            <tspan x="1.42" y="53">Learn what affects the car value</tspan>
                                        </text>
                                        <rect id="Rectangle-2" stroke="#C6C6C6" fill="#FFFFFF" opacity="0.497042411" x="1.5" y="135.5" width="221" height="48" rx="4"></rect>
                                        <g id="Rectangle-2">
                                            <use fill="black" fill-opacity="1" filter="url(#filter-2)" xlink:href="#path-1"></use>
                                            <use fill="#BCA692" fill-rule="evenodd" xlink:href="#path-1"></use>
                                        </g>
                                        <text id="Submit" font-family="Montserrat-Medium, Montserrat" font-size="16" font-weight="400" fill="#FFFFFF">
                                            <tspan x="239.304" y="165">Submit</tspan>
                                        </text>
                                        <text id="Suggest-your-own-pri" font-family="Montserrat-Regular, Montserrat" font-size="16" font-weight="normal" line-spacing="24" fill="#363A4F">
                                            <tspan x="0" y="119">Suggest your own price:</tspan>
                                        </text>
                                        <text id="Type-price,-TL" opacity="0.5" font-family="Montserrat-Regular, Montserrat" font-size="16" font-weight="normal" line-spacing="24" fill="#363A4F">
                                            <tspan x="18" y="162">Type price, TL</tspan>
                                        </text>
                                        <path d="M1.5,82.25 L320.5,82.25" id="Line-5" stroke="#979797" opacity="0.2" stroke-linecap="square" fill-rule="nonzero"></path>
                                    </g>
                                </g>
                            </g>
                        </g>
                    </g>
                </g>
            </g>
        </g>
    </g>
</svg>