<?xml version="1.0" encoding="UTF-8"?>
<svg width="401px" height="309px" viewBox="0 0 401 309" version="1.1" xmlns="http://www.w3.org/2000/svg" xmlns:xlink="http://www.w3.org/1999/xlink">
    <!-- Generator: Sketch 51.1 (57501) - http://www.bohemiancoding.com/sketch -->
    <title>Group 31</title>
    <desc>Created with Sketch.</desc>
    <defs>
        <rect id="path-1" x="0" y="0" width="393" height="49" rx="4"></rect>
        <filter x="-1.7%" y="-11.2%" width="103.3%" height="126.5%" filterUnits="objectBoundingBox" id="filter-2">
            <feOffset dx="0" dy="1" in="SourceAlpha" result="shadowOffsetOuter1"></feOffset>
            <feGaussianBlur stdDeviation="2" in="shadowOffsetOuter1" result="shadowBlurOuter1"></feGaussianBlur>
            <feColorMatrix values="0 0 0 0 0   0 0 0 0 0   0 0 0 0 0  0 0 0 0.18580163 0" type="matrix" in="shadowBlurOuter1"></feColorMatrix>
        </filter>
        <rect id="path-3" x="0" y="0" width="393" height="49" rx="4"></rect>
        <filter x="-1.7%" y="-11.2%" width="103.3%" height="126.5%" filterUnits="objectBoundingBox" id="filter-4">
            <feOffset dx="0" dy="1" in="SourceAlpha" result="shadowOffsetOuter1"></feOffset>
            <feGaussianBlur stdDeviation="2" in="shadowOffsetOuter1" result="shadowBlurOuter1"></feGaussianBlur>
            <feColorMatrix values="0 0 0 0 0   0 0 0 0 0   0 0 0 0 0  0 0 0 0.18580163 0" type="matrix" in="shadowBlurOuter1"></feColorMatrix>
        </filter>
        <rect id="path-5" x="0" y="0.074200237" width="393" height="48.6522512" rx="4"></rect>
        <filter x="-1.7%" y="-11.3%" width="103.3%" height="126.7%" filterUnits="objectBoundingBox" id="filter-6">
            <feOffset dx="0" dy="1" in="SourceAlpha" result="shadowOffsetOuter1"></feOffset>
            <feGaussianBlur stdDeviation="2" in="shadowOffsetOuter1" result="shadowBlurOuter1"></feGaussianBlur>
            <feColorMatrix values="0 0 0 0 0   0 0 0 0 0   0 0 0 0 0  0 0 0 0.18580163 0" type="matrix" in="shadowBlurOuter1"></feColorMatrix>
        </filter>
        <rect id="path-7" x="0" y="57.237263" width="393" height="48.6522512" rx="4"></rect>
        <filter x="-1.7%" y="-11.3%" width="103.3%" height="126.7%" filterUnits="objectBoundingBox" id="filter-8">
            <feOffset dx="0" dy="1" in="SourceAlpha" result="shadowOffsetOuter1"></feOffset>
            <feGaussianBlur stdDeviation="2" in="shadowOffsetOuter1" result="shadowBlurOuter1"></feGaussianBlur>
            <feColorMatrix values="0 0 0 0 0   0 0 0 0 0   0 0 0 0 0  0 0 0 0.18580163 0" type="matrix" in="shadowBlurOuter1"></feColorMatrix>
        </filter>
        <rect id="path-9" x="0" y="114.400326" width="393" height="48.6522512" rx="4"></rect>
        <filter x="-1.7%" y="-11.3%" width="103.3%" height="126.7%" filterUnits="objectBoundingBox" id="filter-10">
            <feOffset dx="0" dy="1" in="SourceAlpha" result="shadowOffsetOuter1"></feOffset>
            <feGaussianBlur stdDeviation="2" in="shadowOffsetOuter1" result="shadowBlurOuter1"></feGaussianBlur>
            <feColorMatrix values="0 0 0 0 0   0 0 0 0 0   0 0 0 0 0  0 0 0 0.18580163 0" type="matrix" in="shadowBlurOuter1"></feColorMatrix>
        </filter>
    </defs>
    <g id="Page-1" stroke="none" stroke-width="1" fill="none" fill-rule="evenodd">
        <g id="4-copy-6" transform="translate(-759.000000, -233.000000)">
            <g id="Group-24" transform="translate(284.000000, 118.000000)">
                <g id="Group-23">
                    <g id="Group-16">
                        <g id="Group-18" transform="translate(479.000000, 0.000000)">
                            <g id="Group-26">
                                <g id="Group-31" transform="translate(0.000000, 118.000000)">
                                    <g id="Group-10">
                                        <g id="Group">
                                            <g id="Group-25" transform="translate(0.000000, 80.000000)">
                                                <g id="Rectangle-2">
                                                    <use fill="black" fill-opacity="1" filter="url(#filter-2)" xlink:href="#path-1"></use>
                                                    <use fill="#FFFFFF" fill-rule="evenodd" xlink:href="#path-1"></use>
                                                </g>
                                            </g>
                                            <g id="Rectangle-2">
                                                <use fill="black" fill-opacity="1" filter="url(#filter-4)" xlink:href="#path-3"></use>
                                                <use fill="#BCA692" fill-rule="evenodd" xlink:href="#path-3"></use>
                                            </g>
                                            <path d="M20.92,98.8 C22.3173403,98.8 23.3973295,99.1306634 24.16,99.792 C24.9226705,100.453337 25.304,101.381327 25.304,102.576 C25.304,103.824006 24.9200038,104.791997 24.152,105.48 C23.3839962,106.168003 22.3066736,106.512 20.92,106.512 L18.136,106.512 L18.136,110 L16.6,110 L16.6,98.8 L20.92,98.8 Z M20.856,105.12 C21.8160048,105.12 22.5519974,104.909335 23.064,104.488 C23.5760026,104.066665 23.832,103.445337 23.832,102.624 C23.832,101.823996 23.5760026,101.218669 23.064,100.808 C22.5519974,100.397331 21.8160048,100.192 20.856,100.192 L18.136,100.208 L18.136,105.12 L20.856,105.12 Z M30.584,101.488 C31.8960066,101.488 32.8879966,101.874663 33.56,102.648 C34.2320034,103.421337 34.568,104.495993 34.568,105.872 C34.568,106.085334 34.5626667,106.245333 34.552,106.352 L27.864,106.352 C27.9813339,107.109337 28.2986641,107.711998 28.816,108.16 C29.3333359,108.608002 29.9706629,108.832 30.728,108.832 C31.2293358,108.832 31.6959978,108.741334 32.128,108.56 C32.5600022,108.378666 32.9359984,108.122668 33.256,107.792 L34.072,108.64 C33.6559979,109.088002 33.1546696,109.434665 32.568,109.68 C31.9813304,109.925335 31.3306702,110.048 30.616,110.048 C29.7839958,110.048 29.0453366,109.869335 28.4,109.512 C27.7546634,109.154665 27.2533351,108.65067 26.896,108 C26.5386649,107.34933 26.36,106.608004 26.36,105.776 C26.36,104.943996 26.5386649,104.205337 26.896,103.56 C27.2533351,102.914663 27.7519968,102.408002 28.392,102.04 C29.0320032,101.671998 29.7626626,101.488 30.584,101.488 Z M33.224,105.2 C33.1813331,104.431996 32.9253357,103.826669 32.456,103.384 C31.9866643,102.941331 31.3680038,102.72 30.6,102.72 C29.8533296,102.72 29.2320025,102.943998 28.736,103.392 C28.2399975,103.840002 27.9440005,104.442663 27.848,105.2 L33.224,105.2 Z M41.144,109.44 C40.4933301,109.856002 39.8320034,110.064 39.16,110.064 C38.4879966,110.064 37.9440021,109.864002 37.528,109.464 C37.1119979,109.063998 36.904,108.458671 36.904,107.648 L36.904,102.96 L35.704,102.96 L35.704,101.824 L36.904,101.824 L36.904,99.552 L38.408,99.552 L38.408,101.824 L41,101.824 L41,102.96 L38.408,102.96 L38.408,107.376 C38.408,107.845336 38.4933325,108.181332 38.664,108.384 C38.8346675,108.586668 39.090665,108.688 39.432,108.688 C39.8373354,108.688 40.2746643,108.554668 40.744,108.288 L41.144,109.44 Z M44.44,103.36 C44.7173347,102.751997 45.1119974,102.290668 45.624,101.976 C46.1360026,101.661332 46.7439965,101.498667 47.448,101.488 L47.448,102.928 C46.5839957,102.896 45.885336,103.119998 45.352,103.6 C44.818664,104.080002 44.514667,104.725329 44.44,105.536 L44.44,110 L42.952,110 L42.952,101.536 L44.44,101.536 L44.44,103.36 Z M52.584,101.488 C53.4266709,101.488 54.1759967,101.669332 54.832,102.032 C55.4880033,102.394668 55.9999982,102.898663 56.368,103.544 C56.7360018,104.189337 56.92,104.927996 56.92,105.76 C56.92,106.592004 56.7360018,107.33333 56.368,107.984 C55.9999982,108.63467 55.4880033,109.141332 54.832,109.504 C54.1759967,109.866668 53.4266709,110.048 52.584,110.048 C51.7306624,110.048 50.9760033,109.866668 50.32,109.504 C49.6639967,109.141332 49.1520018,108.637337 48.784,107.992 C48.4159982,107.346663 48.232,106.602671 48.232,105.76 C48.232,104.927996 48.4159982,104.189337 48.784,103.544 C49.1520018,102.898663 49.6639967,102.394668 50.32,102.032 C50.9760033,101.669332 51.7306624,101.488 52.584,101.488 Z M52.584,102.784 C52.0293306,102.784 51.5360022,102.911999 51.104,103.168 C50.6719978,103.424001 50.3360012,103.778664 50.096,104.232 C49.8559988,104.685336 49.736,105.199997 49.736,105.776 C49.736,106.36267 49.8559988,106.885331 50.096,107.344 C50.3360012,107.802669 50.6719978,108.157332 51.104,108.408 C51.5360022,108.658668 52.0293306,108.784 52.584,108.784 C53.1280027,108.784 53.6159978,108.658668 54.048,108.408 C54.4800022,108.157332 54.8159988,107.802669 55.056,107.344 C55.2960012,106.885331 55.416,106.36267 55.416,105.776 C55.416,105.199997 55.2960012,104.685336 55.056,104.232 C54.8159988,103.778664 54.4800022,103.424001 54.048,103.168 C53.6159978,102.911999 53.1280027,102.784 52.584,102.784 Z M59.08,98.128 L60.568,98.128 L60.568,110 L59.08,110 L59.08,98.128 Z M72.792,98.704 C73.8693387,98.704 74.8586622,98.9546642 75.76,99.456 C76.6613378,99.9573358 77.3733307,100.642662 77.896,101.512 C78.4186693,102.381338 78.68,103.338661 78.68,104.384 C78.68,105.429339 78.4186693,106.391996 77.896,107.272 C77.3733307,108.152004 76.6613378,108.845331 75.76,109.352 C74.8586622,109.858669 73.8693387,110.112 72.792,110.112 C71.7146613,110.112 70.7253378,109.858669 69.824,109.352 C68.9226622,108.845331 68.2106693,108.152004 67.688,107.272 C67.1653307,106.391996 66.904,105.429339 66.904,104.384 C66.904,103.338661 67.1653307,102.381338 67.688,101.512 C68.2106693,100.642662 68.9199955,99.9573358 69.816,99.456 C70.7120045,98.9546642 71.7039946,98.704 72.792,98.704 Z M72.808,100.08 C72.0293294,100.08 71.30667,100.271998 70.64,100.656 C69.97333,101.040002 69.4426686,101.559997 69.048,102.216 C68.6533314,102.872003 68.456,103.594663 68.456,104.384 C68.456,105.173337 68.6533314,105.898663 69.048,106.56 C69.4426686,107.221337 69.97333,107.746665 70.64,108.136 C71.30667,108.525335 72.0293294,108.72 72.808,108.72 C73.5866706,108.72 74.3039967,108.525335 74.96,108.136 C75.6160033,107.746665 76.1386647,107.221337 76.528,106.56 C76.9173353,105.898663 77.112,105.173337 77.112,104.384 C77.112,103.594663 76.9173353,102.872003 76.528,102.216 C76.1386647,101.559997 75.6160033,101.040002 74.96,100.656 C74.3039967,100.271998 73.5866706,100.08 72.808,100.08 Z M83.864,99.36 C83.4799981,99.36 83.1600013,99.4773322 82.904,99.712 C82.6479987,99.9466678 82.52,100.282664 82.52,100.72 L82.52,101.824 L84.856,101.824 L84.856,102.96 L82.52,102.96 L82.52,110 L81.032,110 L81.032,102.96 L79.928,102.96 L79.928,101.824 L81.032,101.824 L81.032,100.912 C81.032,100.29333 81.1626654,99.7680022 81.424,99.336 C81.6853346,98.9039978 82.0293312,98.5786678 82.456,98.36 C82.8826688,98.1413322 83.3413309,98.032 83.832,98.032 C84.3013357,98.032 84.7919974,98.1599987 85.304,98.416 L84.952,99.632 C84.5679981,99.4506658 84.205335,99.36 83.864,99.36 Z M86.216,101.536 L87.704,101.536 L87.704,110 L86.216,110 L86.216,101.536 Z M86.952,98.16 C87.218668,98.16 87.4399991,98.2506658 87.616,98.432 C87.7920009,98.6133342 87.88,98.8426653 87.88,99.12 C87.88,99.3973347 87.7920009,99.6266658 87.616,99.808 C87.4399991,99.9893342 87.218668,100.08 86.952,100.08 C86.685332,100.08 86.4640009,99.9893342 86.288,99.808 C86.1119991,99.6266658 86.024,99.3973347 86.024,99.12 C86.024,98.8426653 86.1119991,98.6133342 86.288,98.432 C86.4640009,98.2506658 86.685332,98.16 86.952,98.16 Z M95.224,103.408 C94.8719982,103.194666 94.4853354,103.024001 94.064,102.896 C93.6426646,102.767999 93.2400019,102.704 92.856,102.704 C92.4079978,102.704 92.0480014,102.786666 91.776,102.952 C91.5039986,103.117334 91.368,103.370665 91.368,103.712 C91.368,104.053335 91.5199985,104.311999 91.824,104.488 C92.1280015,104.664001 92.5893302,104.842666 93.208,105.024 C93.7946696,105.194668 94.2746648,105.365332 94.648,105.536 C95.0213352,105.706668 95.3386654,105.957332 95.6,106.288 C95.8613346,106.618668 95.992,107.055997 95.992,107.6 C95.992,108.400004 95.6906697,109.007998 95.088,109.424 C94.4853303,109.840002 93.7360045,110.048 92.84,110.048 C92.2106635,110.048 91.600003,109.946668 91.008,109.744 C90.415997,109.541332 89.9173354,109.253335 89.512,108.88 L90.072,107.792 C90.4240018,108.112002 90.8586641,108.367999 91.376,108.56 C91.8933359,108.752001 92.3973309,108.848 92.888,108.848 C93.3786691,108.848 93.7733318,108.757334 94.072,108.576 C94.3706682,108.394666 94.52,108.117335 94.52,107.744 C94.52,107.359998 94.3626682,107.072001 94.048,106.88 C93.7333318,106.687999 93.2560032,106.496001 92.616,106.304 C92.0506638,106.143999 91.5893351,105.981334 91.232,105.816 C90.8746649,105.650666 90.5706679,105.408002 90.32,105.088 C90.0693321,104.767998 89.944,104.352003 89.944,103.84 C89.944,103.050663 90.2319971,102.458669 90.808,102.064 C91.3840029,101.669331 92.1039957,101.472 92.968,101.472 C93.4800026,101.472 93.9839975,101.543999 94.48,101.688 C94.9760025,101.832001 95.4053315,102.026665 95.768,102.272 L95.224,103.408 Z M97.96,101.536 L99.448,101.536 L99.448,110 L97.96,110 L97.96,101.536 Z M98.696,98.16 C98.962668,98.16 99.1839991,98.2506658 99.36,98.432 C99.5360009,98.6133342 99.624,98.8426653 99.624,99.12 C99.624,99.3973347 99.5360009,99.6266658 99.36,99.808 C99.1839991,99.9893342 98.962668,100.08 98.696,100.08 C98.429332,100.08 98.2080009,99.9893342 98.032,99.808 C97.8559991,99.6266658 97.768,99.3973347 97.768,99.12 C97.768,98.8426653 97.8559991,98.6133342 98.032,98.432 C98.2080009,98.2506658 98.429332,98.16 98.696,98.16 Z M106.088,104.608 L109.912,104.608 L109.912,105.68 L106.088,105.68 L106.088,104.608 Z M123.96,110 L121.736,106.48 C121.479999,106.501333 121.272001,106.512 121.112,106.512 L118.264,106.512 L118.264,110 L116.728,110 L116.728,98.8 L121.112,98.8 C122.530674,98.8 123.626663,99.1279967 124.4,99.784 C125.173337,100.440003 125.56,101.370661 125.56,102.576 C125.56,103.482671 125.349335,104.24533 124.928,104.864 C124.506665,105.48267 123.901337,105.930665 123.112,106.208 L125.72,110 L123.96,110 Z M121.112,105.12 C122.072005,105.12 122.807997,104.909335 123.32,104.488 C123.832003,104.066665 124.088,103.445337 124.088,102.624 C124.088,101.823996 123.832003,101.218669 123.32,100.808 C122.807997,100.397331 122.072005,100.192 121.112,100.192 L118.264,100.192 L118.264,105.12 L121.112,105.12 Z M133.32,110 L133.32,108.816 C132.690664,109.648004 131.704007,110.064 130.36,110.064 C129.77333,110.064 129.258669,109.952001 128.816,109.728 C128.373331,109.503999 128.032001,109.194669 127.792,108.8 C127.551999,108.405331 127.432,107.962669 127.432,107.472 C127.432,106.714663 127.711997,106.114669 128.272,105.672 C128.832003,105.229331 129.613328,105.002667 130.616,104.992 L133.304,104.992 L133.304,104.592 C133.304,103.994664 133.120002,103.533335 132.752,103.208 C132.383998,102.882665 131.848004,102.72 131.144,102.72 C130.290662,102.72 129.421338,103.023997 128.536,103.632 L127.912,102.608 C128.520003,102.213331 129.082664,101.928001 129.6,101.752 C130.117336,101.575999 130.73333,101.488 131.448,101.488 C132.504005,101.488 133.319997,101.746664 133.896,102.264 C134.472003,102.781336 134.765333,103.503995 134.776,104.432 L134.792,110 L133.32,110 Z M130.664,108.832 C131.357337,108.832 131.946664,108.664002 132.432,108.328 C132.917336,107.991998 133.208,107.546669 133.304,106.992 L133.304,106.144 L130.824,106.144 C130.151997,106.144 129.653335,106.245332 129.328,106.448 C129.002665,106.650668 128.84,106.970664 128.84,107.408 C128.84,107.845336 129.005332,108.191999 129.336,108.448 C129.666668,108.704001 130.109331,108.832 130.664,108.832 Z M137.448,101.536 L138.936,101.536 L138.936,110 L137.448,110 L137.448,101.536 Z M138.184,98.16 C138.450668,98.16 138.671999,98.2506658 138.848,98.432 C139.024001,98.6133342 139.112,98.8426653 139.112,99.12 C139.112,99.3973347 139.024001,99.6266658 138.848,99.808 C138.671999,99.9893342 138.450668,100.08 138.184,100.08 C137.917332,100.08 137.696001,99.9893342 137.52,99.808 C137.343999,99.6266658 137.256,99.3973347 137.256,99.12 C137.256,98.8426653 137.343999,98.6133342 137.52,98.432 C137.696001,98.2506658 137.917332,98.16 138.184,98.16 Z M146.536,101.488 C147.528005,101.488 148.306664,101.778664 148.872,102.36 C149.437336,102.941336 149.72,103.743995 149.72,104.768 L149.72,110 L148.232,110 L148.232,105.168 C148.232,104.45333 148.032002,103.896002 147.632,103.496 C147.231998,103.095998 146.680004,102.896 145.976,102.896 C145.218663,102.906667 144.602669,103.149331 144.128,103.624 C143.653331,104.098669 143.384,104.714663 143.32,105.472 L143.32,110 L141.832,110 L141.832,101.536 L143.32,101.536 L143.32,103.328 C143.885336,102.122661 144.957325,101.509333 146.536,101.488 Z M157.08,101.488 C157.869337,101.488 158.57333,101.669332 159.192,102.032 C159.81067,102.394668 160.290665,102.90133 160.632,103.552 C160.973335,104.20267 161.144,104.949329 161.144,105.792 C161.144,106.624004 160.976002,107.362663 160.64,108.008 C160.303998,108.653337 159.829336,109.154665 159.216,109.512 C158.602664,109.869335 157.901337,110.048 157.112,110.048 C156.39733,110.048 155.768003,109.898668 155.224,109.6 C154.679997,109.301332 154.253335,108.874669 153.944,108.32 L153.944,110 L152.456,110 L152.456,98.128 L153.944,98.128 L153.944,103.216 C154.253335,102.661331 154.677331,102.234668 155.216,101.936 C155.754669,101.637332 156.375996,101.488 157.08,101.488 Z M156.792,108.752 C157.336003,108.752 157.823998,108.624001 158.256,108.368 C158.688002,108.111999 159.023999,107.754669 159.264,107.296 C159.504001,106.837331 159.624,106.320003 159.624,105.744 C159.624,105.178664 159.501335,104.666669 159.256,104.208 C159.010665,103.749331 158.674669,103.392001 158.248,103.136 C157.821331,102.879999 157.336003,102.752 156.792,102.752 C156.247997,102.752 155.760002,102.879999 155.328,103.136 C154.895998,103.392001 154.557335,103.749331 154.312,104.208 C154.066665,104.666669 153.944,105.178664 153.944,105.744 C153.944,106.33067 154.066665,106.850664 154.312,107.304 C154.557335,107.757336 154.895998,108.111999 155.328,108.368 C155.760002,108.624001 156.247997,108.752 156.792,108.752 Z M166.744,101.488 C167.586671,101.488 168.335997,101.669332 168.992,102.032 C169.648003,102.394668 170.159998,102.898663 170.528,103.544 C170.896002,104.189337 171.08,104.927996 171.08,105.76 C171.08,106.592004 170.896002,107.33333 170.528,107.984 C170.159998,108.63467 169.648003,109.141332 168.992,109.504 C168.335997,109.866668 167.586671,110.048 166.744,110.048 C165.890662,110.048 165.136003,109.866668 164.48,109.504 C163.823997,109.141332 163.312002,108.637337 162.944,107.992 C162.575998,107.346663 162.392,106.602671 162.392,105.76 C162.392,104.927996 162.575998,104.189337 162.944,103.544 C163.312002,102.898663 163.823997,102.394668 164.48,102.032 C165.136003,101.669332 165.890662,101.488 166.744,101.488 Z M166.744,102.784 C166.189331,102.784 165.696002,102.911999 165.264,103.168 C164.831998,103.424001 164.496001,103.778664 164.256,104.232 C164.015999,104.685336 163.896,105.199997 163.896,105.776 C163.896,106.36267 164.015999,106.885331 164.256,107.344 C164.496001,107.802669 164.831998,108.157332 165.264,108.408 C165.696002,108.658668 166.189331,108.784 166.744,108.784 C167.288003,108.784 167.775998,108.658668 168.208,108.408 C168.640002,108.157332 168.975999,107.802669 169.216,107.344 C169.456001,106.885331 169.576,106.36267 169.576,105.776 C169.576,105.199997 169.456001,104.685336 169.216,104.232 C168.975999,103.778664 168.640002,103.424001 168.208,103.168 C167.775998,102.911999 167.288003,102.784 166.744,102.784 Z M171.752,101.536 L173.304,101.536 L175.672,108.528 L178.008,101.536 L179.56,101.536 L181.912,108.528 L184.248,101.536 L185.784,101.536 L182.664,110 L181.112,110 L178.776,103.344 L176.44,110 L174.888,110 L171.752,101.536 Z M196.408,98.704 C197.485339,98.704 198.474662,98.9546642 199.376,99.456 C200.277338,99.9573358 200.989331,100.642662 201.512,101.512 C202.034669,102.381338 202.296,103.338661 202.296,104.384 C202.296,105.429339 202.034669,106.391996 201.512,107.272 C200.989331,108.152004 200.277338,108.845331 199.376,109.352 C198.474662,109.858669 197.485339,110.112 196.408,110.112 C195.330661,110.112 194.341338,109.858669 193.44,109.352 C192.538662,108.845331 191.826669,108.152004 191.304,107.272 C190.781331,106.391996 190.52,105.429339 190.52,104.384 C190.52,103.338661 190.781331,102.381338 191.304,101.512 C191.826669,100.642662 192.535996,99.9573358 193.432,99.456 C194.328004,98.9546642 195.319995,98.704 196.408,98.704 Z M196.424,100.08 C195.645329,100.08 194.92267,100.271998 194.256,100.656 C193.58933,101.040002 193.058669,101.559997 192.664,102.216 C192.269331,102.872003 192.072,103.594663 192.072,104.384 C192.072,105.173337 192.269331,105.898663 192.664,106.56 C193.058669,107.221337 193.58933,107.746665 194.256,108.136 C194.92267,108.525335 195.645329,108.72 196.424,108.72 C197.202671,108.72 197.919997,108.525335 198.576,108.136 C199.232003,107.746665 199.754665,107.221337 200.144,106.56 C200.533335,105.898663 200.728,105.173337 200.728,104.384 C200.728,103.594663 200.533335,102.872003 200.144,102.216 C199.754665,101.559997 199.232003,101.040002 198.576,100.656 C197.919997,100.271998 197.202671,100.08 196.424,100.08 Z M204.36,101.536 L205.848,101.536 L205.848,110 L204.36,110 L204.36,101.536 Z M205.096,98.16 C205.362668,98.16 205.583999,98.2506658 205.76,98.432 C205.936001,98.6133342 206.024,98.8426653 206.024,99.12 C206.024,99.3973347 205.936001,99.6266658 205.76,99.808 C205.583999,99.9893342 205.362668,100.08 205.096,100.08 C204.829332,100.08 204.608001,99.9893342 204.432,99.808 C204.255999,99.6266658 204.168,99.3973347 204.168,99.12 C204.168,98.8426653 204.255999,98.6133342 204.432,98.432 C204.608001,98.2506658 204.829332,98.16 205.096,98.16 Z M208.824,98.128 L210.312,98.128 L210.312,110 L208.824,110 L208.824,98.128 Z" id="Petrol-Ofisi---Rainb" fill="#363A4F"></path>
                                            <g id="Group-15" transform="translate(84.000000, 16.000000)" fill="#FFFFFF">
                                                <g id="Group-12">
                                                    <path d="M10.1231878,13.3204047 C8.80858451,14.8806327 7.15178016,16.25 6.5,16.25 C5.84821984,16.25 4.19141549,14.8806327 2.87681222,13.3204047 C1.092695,11.2029372 0,8.87367069 0,6.5 C0,2.91014913 2.91014913,0 6.5,0 C10.0898509,0 13,2.91014913 13,6.5 C13,8.87367069 11.907305,11.2029372 10.1231878,13.3204047 Z M5.95110082,14.1002865 C6.19215377,14.2995195 6.5,14.5229303 6.5,14.5229303 C6.5,14.5229303 6.84236823,14.2709867 7.04889918,14.1002865 C7.64823068,13.6049324 8.29229301,12.9714458 8.88049245,12.2733453 C10.4400599,10.4223832 11.375,8.42939833 11.375,6.5 C11.375,3.80761184 9.19238816,1.625 6.5,1.625 C3.80761184,1.625 1.625,3.80761184 1.625,6.5 C1.625,8.42939833 2.55994006,10.4223832 4.11950755,12.2733453 C4.70770699,12.9714458 5.35176932,13.6049324 5.95110082,14.1002865 Z M4.0625,6.5 C4.0625,5.15380592 5.15380592,4.0625 6.5,4.0625 C7.84619408,4.0625 8.9375,5.15380592 8.9375,6.5 C8.9375,7.84619408 7.84619408,8.9375 6.5,8.9375 C5.15380592,8.9375 4.0625,7.84619408 4.0625,6.5 Z M7.3125,6.5 C7.3125,6.05126864 6.94873136,5.6875 6.5,5.6875 C6.05126864,5.6875 5.6875,6.05126864 5.6875,6.5 C5.6875,6.94873136 6.05126864,7.3125 6.5,7.3125 C6.94873136,7.3125 7.3125,6.94873136 7.3125,6.5 Z" id="Combined-Shape" fill-rule="nonzero"></path>
                                                    <path d="M27.376,2.8 L35.104,2.8 L35.088,4.672 L29.52,4.672 L29.52,7.696 L34.592,7.696 L34.592,9.568 L29.52,9.568 L29.52,14 L27.376,14 L27.376,2.8 Z M36.624,5.44 L38.704,5.44 L38.704,14 L36.624,14 L36.624,5.44 Z M37.648,1.76 C37.989335,1.76 38.2719989,1.87733216 38.496,2.112 C38.7200011,2.34666784 38.832,2.64533152 38.832,3.008 C38.832,3.36000176 38.7200011,3.65333216 38.496,3.888 C38.2719989,4.12266784 37.989335,4.24 37.648,4.24 C37.306665,4.24 37.0240011,4.12266784 36.8,3.888 C36.5759989,3.65333216 36.464,3.36000176 36.464,3.008 C36.464,2.64533152 36.5759989,2.34666784 36.8,2.112 C37.0240011,1.87733216 37.306665,1.76 37.648,1.76 Z M46.432,5.36 C47.4133382,5.36 48.1866638,5.65599704 48.752,6.248 C49.3173362,6.84000296 49.6,7.6426616 49.6,8.656 L49.6,14 L47.504,14 L47.504,9.264 C47.504,8.66666368 47.333335,8.1946684 46.992,7.848 C46.650665,7.5013316 46.1866696,7.328 45.6,7.328 C44.9066632,7.33866672 44.360002,7.57333104 43.96,8.032 C43.559998,8.49066896 43.36,9.07732976 43.36,9.792 L43.36,14 L41.28,14 L41.28,5.44 L43.36,5.44 L43.36,7.04 C43.9466696,5.94132784 44.9706594,5.38133344 46.432,5.36 Z M60.192,2.128 L60.192,14 L58.112,14 L58.112,12.624 C57.8026651,13.1040024 57.4053358,13.4693321 56.92,13.72 C56.4346642,13.9706679 55.8720032,14.096 55.232,14.096 C54.4213293,14.096 53.7093364,13.9120018 53.096,13.544 C52.4826636,13.1759982 52.005335,12.65867 51.664,11.992 C51.322665,11.32533 51.152,10.5600043 51.152,9.696 C51.152,8.8426624 51.3199983,8.08800328 51.656,7.432 C51.9920017,6.77599672 52.4666636,6.26666848 53.08,5.904 C53.6933364,5.54133152 54.3946627,5.36 55.184,5.36 C55.8346699,5.36 56.4053309,5.48799872 56.896,5.744 C57.3866691,6.00000128 57.7919984,6.3679976 58.112,6.848 L58.112,2.128 L60.192,2.128 Z M55.68,12.352 C56.3946702,12.352 56.9786644,12.1093358 57.432,11.624 C57.8853356,11.1386642 58.112,10.5120038 58.112,9.744 C58.112,8.97599616 57.8853356,8.34933576 57.432,7.864 C56.9786644,7.37866424 56.3946702,7.136 55.68,7.136 C54.9653298,7.136 54.3840022,7.37866424 53.936,7.864 C53.4879978,8.34933576 53.2586667,8.97599616 53.248,9.744 C53.2586667,10.5120038 53.4879978,11.1386642 53.936,11.624 C54.3840022,12.1093358 54.9653298,12.352 55.68,12.352 Z M71.792,13.472 C71.1093299,13.8880021 70.3946704,14.096 69.648,14.096 C68.9119963,14.096 68.3093357,13.8800022 67.84,13.448 C67.3706643,13.0159978 67.136,12.3786709 67.136,11.536 L67.136,7.312 L65.936,7.312 L65.92,5.792 L67.136,5.792 L67.136,3.44 L69.2,3.44 L69.2,5.792 L71.648,5.792 L71.648,7.312 L69.2,7.312 L69.2,11.168 C69.2,11.5626686 69.2746659,11.8426658 69.424,12.008 C69.5733341,12.1733342 69.7973318,12.256 70.096,12.256 C70.4160016,12.256 70.8213309,12.1386678 71.312,11.904 L71.792,13.472 Z M78.672,5.36 C79.6533382,5.36 80.4266638,5.65599704 80.992,6.248 C81.5573362,6.84000296 81.84,7.6426616 81.84,8.656 L81.84,14 L79.744,14 L79.744,9.264 C79.744,8.66666368 79.573335,8.1946684 79.232,7.848 C78.890665,7.5013316 78.4266696,7.328 77.84,7.328 C77.1466632,7.33866672 76.5973354,7.57333104 76.192,8.032 C75.7866646,8.49066896 75.584,9.07732976 75.584,9.792 L75.584,14 L73.504,14 L73.504,2.128 L75.584,2.128 L75.584,7.072 C76.1706696,5.9519944 77.1999926,5.38133344 78.672,5.36 Z M87.744,5.376 C89.1093402,5.376 90.1359966,5.76532944 90.824,6.544 C91.5120034,7.32267056 91.856,8.41599296 91.856,9.824 C91.856,10.1013347 91.8506667,10.3093326 91.84,10.448 L85.52,10.448 C85.6586674,11.056003 85.9439978,11.5333316 86.376,11.88 C86.8080022,12.2266684 87.3386635,12.4 87.968,12.4 C88.4053355,12.4 88.823998,12.3173342 89.224,12.152 C89.624002,11.9866658 89.9733318,11.7493349 90.272,11.44 L91.392,12.608 C90.9653312,13.0773357 90.4453364,13.4399987 89.832,13.696 C89.2186636,13.9520013 88.5386704,14.08 87.792,14.08 C86.917329,14.08 86.14667,13.8986685 85.48,13.536 C84.81333,13.1733315 84.2986685,12.6640033 83.936,12.008 C83.5733315,11.3519967 83.392,10.5973376 83.392,9.744 C83.392,8.8906624 83.5759982,8.13333664 83.944,7.472 C84.3120018,6.81066336 84.8266634,6.29600184 85.488,5.928 C86.1493366,5.55999816 86.9013291,5.376 87.744,5.376 Z M89.952,9.056 C89.9306666,8.42666352 89.7226686,7.9253352 89.328,7.552 C88.9333314,7.1786648 88.4106699,6.992 87.76,6.992 C87.151997,6.992 86.6426687,7.17599816 86.232,7.544 C85.8213313,7.91200184 85.5680005,8.4159968 85.472,9.056 L89.952,9.056 Z M102.72,5.36 C103.701338,5.36 104.474664,5.65599704 105.04,6.248 C105.605336,6.84000296 105.888,7.6426616 105.888,8.656 L105.888,14 L103.792,14 L103.792,9.264 C103.792,8.66666368 103.621335,8.1946684 103.28,7.848 C102.938665,7.5013316 102.47467,7.328 101.888,7.328 C101.194663,7.33866672 100.648002,7.57333104 100.248,8.032 C99.847998,8.49066896 99.648,9.07732976 99.648,9.792 L99.648,14 L97.568,14 L97.568,5.44 L99.648,5.44 L99.648,7.04 C100.23467,5.94132784 101.258659,5.38133344 102.72,5.36 Z M111.792,5.376 C113.15734,5.376 114.183997,5.76532944 114.872,6.544 C115.560003,7.32267056 115.904,8.41599296 115.904,9.824 C115.904,10.1013347 115.898667,10.3093326 115.888,10.448 L109.568,10.448 C109.706667,11.056003 109.991998,11.5333316 110.424,11.88 C110.856002,12.2266684 111.386664,12.4 112.016,12.4 C112.453336,12.4 112.871998,12.3173342 113.272,12.152 C113.672002,11.9866658 114.021332,11.7493349 114.32,11.44 L115.44,12.608 C115.013331,13.0773357 114.493336,13.4399987 113.88,13.696 C113.266664,13.9520013 112.58667,14.08 111.84,14.08 C110.965329,14.08 110.19467,13.8986685 109.528,13.536 C108.86133,13.1733315 108.346668,12.6640033 107.984,12.008 C107.621332,11.3519967 107.44,10.5973376 107.44,9.744 C107.44,8.8906624 107.623998,8.13333664 107.992,7.472 C108.360002,6.81066336 108.874663,6.29600184 109.536,5.928 C110.197337,5.55999816 110.949329,5.376 111.792,5.376 Z M114,9.056 C113.978667,8.42666352 113.770669,7.9253352 113.376,7.552 C112.981331,7.1786648 112.45867,6.992 111.808,6.992 C111.199997,6.992 110.690669,7.17599816 110.28,7.544 C109.869331,7.91200184 109.616,8.4159968 109.52,9.056 L114,9.056 Z M122.752,14 L122.752,12.96 C122.453332,13.3333352 122.069336,13.615999 121.6,13.808 C121.130664,14.000001 120.592003,14.096 119.984,14.096 C119.386664,14.096 118.861336,13.9813345 118.408,13.752 C117.954664,13.5226655 117.605335,13.2053354 117.36,12.8 C117.114665,12.3946646 116.992,11.9413358 116.992,11.44 C116.992,10.639996 117.274664,10.0133356 117.84,9.56 C118.405336,9.1066644 119.205328,8.87466672 120.24,8.864 L122.736,8.864 L122.736,8.64 C122.736,8.13866416 122.570668,7.74933472 122.24,7.472 C121.909332,7.19466528 121.429336,7.056 120.8,7.056 C119.989329,7.056 119.141338,7.322664 118.256,7.856 L117.504,6.416 C118.176003,6.0426648 118.786664,5.77333416 119.336,5.608 C119.885336,5.44266584 120.527996,5.36 121.264,5.36 C122.373339,5.36 123.234664,5.626664 123.848,6.16 C124.461336,6.693336 124.773333,7.4399952 124.784,8.4 L124.8,14 L122.752,14 Z M120.48,12.496 C121.077336,12.496 121.589331,12.3546681 122.016,12.072 C122.442669,11.7893319 122.682666,11.4400021 122.736,11.024 L122.736,10.256 L120.576,10.256 C120.021331,10.256 119.613335,10.3386658 119.352,10.504 C119.090665,10.6693342 118.96,10.9386648 118.96,11.312 C118.96,11.6746685 119.095999,11.9626656 119.368,12.176 C119.640001,12.3893344 120.010664,12.496 120.48,12.496 Z M129.216,7.088 C129.504001,6.53333056 129.895998,6.1093348 130.392,5.816 C130.888002,5.5226652 131.466663,5.37066672 132.128,5.36 L132.128,7.376 C131.242662,7.3226664 130.536003,7.52799768 130.008,7.992 C129.479997,8.45600232 129.216,9.08266272 129.216,9.872 L129.216,14 L127.136,14 L127.136,5.44 L129.216,5.44 L129.216,7.088 Z M137.152,5.376 C138.51734,5.376 139.543997,5.76532944 140.232,6.544 C140.920003,7.32267056 141.264,8.41599296 141.264,9.824 C141.264,10.1013347 141.258667,10.3093326 141.248,10.448 L134.928,10.448 C135.066667,11.056003 135.351998,11.5333316 135.784,11.88 C136.216002,12.2266684 136.746664,12.4 137.376,12.4 C137.813336,12.4 138.231998,12.3173342 138.632,12.152 C139.032002,11.9866658 139.381332,11.7493349 139.68,11.44 L140.8,12.608 C140.373331,13.0773357 139.853336,13.4399987 139.24,13.696 C138.626664,13.9520013 137.94667,14.08 137.2,14.08 C136.325329,14.08 135.55467,13.8986685 134.888,13.536 C134.22133,13.1733315 133.706668,12.6640033 133.344,12.008 C132.981332,11.3519967 132.8,10.5973376 132.8,9.744 C132.8,8.8906624 132.983998,8.13333664 133.352,7.472 C133.720002,6.81066336 134.234663,6.29600184 134.896,5.928 C135.557337,5.55999816 136.309329,5.376 137.152,5.376 Z M139.36,9.056 C139.338667,8.42666352 139.130669,7.9253352 138.736,7.552 C138.341331,7.1786648 137.81867,6.992 137.168,6.992 C136.559997,6.992 136.050669,7.17599816 135.64,7.544 C135.229331,7.91200184 134.976,8.4159968 134.88,9.056 L139.36,9.056 Z M148.128,7.76 C147.711998,7.51466544 147.282669,7.32266736 146.84,7.184 C146.397331,7.04533264 145.989335,6.976 145.616,6.976 C145.263998,6.976 144.984001,7.03733272 144.776,7.16 C144.567999,7.28266728 144.464,7.47199872 144.464,7.728 C144.464,7.994668 144.594665,8.19999928 144.856,8.344 C145.117335,8.48800072 145.530664,8.6399992 146.096,8.8 C146.693336,8.98133424 147.183998,9.15999912 147.568,9.336 C147.952002,9.51200088 148.285332,9.7733316 148.568,10.12 C148.850668,10.4666684 148.992,10.9226638 148.992,11.488 C148.992,12.3200042 148.672003,12.9599978 148.032,13.408 C147.391997,13.8560022 146.586672,14.08 145.616,14.08 C144.954663,14.08 144.309336,13.976001 143.68,13.768 C143.050664,13.559999 142.517336,13.2640019 142.08,12.88 L142.8,11.424 C143.184002,11.7546683 143.642664,12.0133324 144.176,12.2 C144.709336,12.3866676 145.215998,12.48 145.696,12.48 C146.080002,12.48 146.386666,12.413334 146.616,12.28 C146.845334,12.146666 146.96,11.946668 146.96,11.68 C146.96,11.3813318 146.826668,11.1573341 146.56,11.008 C146.293332,10.8586659 145.861336,10.6933342 145.264,10.512 C144.687997,10.3413325 144.218668,10.1733342 143.856,10.008 C143.493332,9.84266584 143.178668,9.59200168 142.912,9.256 C142.645332,8.91999832 142.512,8.48000272 142.512,7.936 C142.512,7.09332912 142.818664,6.45066888 143.432,6.008 C144.045336,5.56533112 144.815995,5.344 145.744,5.344 C146.309336,5.344 146.866664,5.4239992 147.416,5.584 C147.965336,5.7440008 148.453331,5.96799856 148.88,6.256 L148.128,7.76 Z M155.776,13.472 C155.09333,13.8880021 154.37867,14.096 153.632,14.096 C152.895996,14.096 152.293336,13.8800022 151.824,13.448 C151.354664,13.0159978 151.12,12.3786709 151.12,11.536 L151.12,7.312 L149.92,7.312 L149.904,5.792 L151.12,5.792 L151.12,3.44 L153.184,3.44 L153.184,5.792 L155.632,5.792 L155.632,7.312 L153.184,7.312 L153.184,11.168 C153.184,11.5626686 153.258666,11.8426658 153.408,12.008 C153.557334,12.1733342 153.781332,12.256 154.08,12.256 C154.400002,12.256 154.805331,12.1386678 155.296,11.904 L155.776,13.472 Z M161.408,2.128 L163.488,2.128 L163.488,14 L161.408,14 L161.408,2.128 Z M169.904,5.376 C170.789338,5.376 171.570663,5.55733152 172.248,5.92 C172.925337,6.28266848 173.453331,6.79199672 173.832,7.448 C174.210669,8.10400328 174.4,8.8586624 174.4,9.712 C174.4,10.5760043 174.210669,11.3386634 173.832,12 C173.453331,12.6613366 172.925337,13.1733315 172.248,13.536 C171.570663,13.8986685 170.789338,14.08 169.904,14.08 C169.007996,14.08 168.21867,13.8986685 167.536,13.536 C166.85333,13.1733315 166.322669,12.6613366 165.944,12 C165.565331,11.3386634 165.376,10.5760043 165.376,9.712 C165.376,8.8586624 165.565331,8.10400328 165.944,7.448 C166.322669,6.79199672 166.85333,6.28266848 167.536,5.92 C168.21867,5.55733152 169.007996,5.376 169.904,5.376 Z M169.904,7.152 C169.178663,7.152 168.592002,7.3919976 168.144,7.872 C167.695998,8.3520024 167.472,8.97599616 167.472,9.744 C167.472,10.5120038 167.695998,11.1359976 168.144,11.616 C168.592002,12.0960024 169.178663,12.336 169.904,12.336 C170.608004,12.336 171.183998,12.0960024 171.632,11.616 C172.080002,11.1359976 172.304,10.5120038 172.304,9.744 C172.304,8.97599616 172.080002,8.3520024 171.632,7.872 C171.183998,7.3919976 170.608004,7.152 169.904,7.152 Z M182.096,8.144 C181.519997,7.51466352 180.773338,7.2 179.856,7.2 C179.162663,7.2 178.600002,7.43466432 178.168,7.904 C177.735998,8.37333568 177.52,8.9813296 177.52,9.728 C177.52,10.4960038 177.735998,11.1146643 178.168,11.584 C178.600002,12.0533357 179.162663,12.288 179.856,12.288 C180.880005,12.288 181.647997,11.9520034 182.16,11.28 L183.456,12.352 C183.071998,12.9066694 182.565336,13.3333318 181.936,13.632 C181.306664,13.9306682 180.576004,14.08 179.744,14.08 C178.901329,14.08 178.152003,13.8986685 177.496,13.536 C176.839997,13.1733315 176.330668,12.6640033 175.968,12.008 C175.605332,11.3519967 175.424,10.5973376 175.424,9.744 C175.424,8.87999568 175.607998,8.11733664 175.976,7.456 C176.344002,6.79466336 176.855997,6.28266848 177.512,5.92 C178.168003,5.55733152 178.922662,5.376 179.776,5.376 C180.554671,5.376 181.250664,5.51199864 181.864,5.784 C182.477336,6.05600136 182.975998,6.44266416 183.36,6.944 L182.096,8.144 Z M190.288,14 L190.288,12.96 C189.989332,13.3333352 189.605336,13.615999 189.136,13.808 C188.666664,14.000001 188.128003,14.096 187.52,14.096 C186.922664,14.096 186.397336,13.9813345 185.944,13.752 C185.490664,13.5226655 185.141335,13.2053354 184.896,12.8 C184.650665,12.3946646 184.528,11.9413358 184.528,11.44 C184.528,10.639996 184.810664,10.0133356 185.376,9.56 C185.941336,9.1066644 186.741328,8.87466672 187.776,8.864 L190.272,8.864 L190.272,8.64 C190.272,8.13866416 190.106668,7.74933472 189.776,7.472 C189.445332,7.19466528 188.965336,7.056 188.336,7.056 C187.525329,7.056 186.677338,7.322664 185.792,7.856 L185.04,6.416 C185.712003,6.0426648 186.322664,5.77333416 186.872,5.608 C187.421336,5.44266584 188.063996,5.36 188.8,5.36 C189.909339,5.36 190.770664,5.626664 191.384,6.16 C191.997336,6.693336 192.309333,7.4399952 192.32,8.4 L192.336,14 L190.288,14 Z M188.016,12.496 C188.613336,12.496 189.125331,12.3546681 189.552,12.072 C189.978669,11.7893319 190.218666,11.4400021 190.272,11.024 L190.272,10.256 L188.112,10.256 C187.557331,10.256 187.149335,10.3386658 186.888,10.504 C186.626665,10.6693342 186.496,10.9386648 186.496,11.312 C186.496,11.6746685 186.631999,11.9626656 186.904,12.176 C187.176001,12.3893344 187.546664,12.496 188.016,12.496 Z M199.68,13.472 C198.99733,13.8880021 198.28267,14.096 197.536,14.096 C196.799996,14.096 196.197336,13.8800022 195.728,13.448 C195.258664,13.0159978 195.024,12.3786709 195.024,11.536 L195.024,7.312 L193.824,7.312 L193.808,5.792 L195.024,5.792 L195.024,3.44 L197.088,3.44 L197.088,5.792 L199.536,5.792 L199.536,7.312 L197.088,7.312 L197.088,11.168 C197.088,11.5626686 197.162666,11.8426658 197.312,12.008 C197.461334,12.1733342 197.685332,12.256 197.984,12.256 C198.304002,12.256 198.709331,12.1386678 199.2,11.904 L199.68,13.472 Z M201.312,5.44 L203.392,5.44 L203.392,14 L201.312,14 L201.312,5.44 Z M202.336,1.76 C202.677335,1.76 202.959999,1.87733216 203.184,2.112 C203.408001,2.34666784 203.52,2.64533152 203.52,3.008 C203.52,3.36000176 203.408001,3.65333216 203.184,3.888 C202.959999,4.12266784 202.677335,4.24 202.336,4.24 C201.994665,4.24 201.712001,4.12266784 201.488,3.888 C201.263999,3.65333216 201.152,3.36000176 201.152,3.008 C201.152,2.64533152 201.263999,2.34666784 201.488,2.112 C201.712001,1.87733216 201.994665,1.76 202.336,1.76 Z M209.712,5.376 C210.597338,5.376 211.378663,5.55733152 212.056,5.92 C212.733337,6.28266848 213.261331,6.79199672 213.64,7.448 C214.018669,8.10400328 214.208,8.8586624 214.208,9.712 C214.208,10.5760043 214.018669,11.3386634 213.64,12 C213.261331,12.6613366 212.733337,13.1733315 212.056,13.536 C211.378663,13.8986685 210.597338,14.08 209.712,14.08 C208.815996,14.08 208.02667,13.8986685 207.344,13.536 C206.66133,13.1733315 206.130669,12.6613366 205.752,12 C205.373331,11.3386634 205.184,10.5760043 205.184,9.712 C205.184,8.8586624 205.373331,8.10400328 205.752,7.448 C206.130669,6.79199672 206.66133,6.28266848 207.344,5.92 C208.02667,5.55733152 208.815996,5.376 209.712,5.376 Z M209.712,7.152 C208.986663,7.152 208.400002,7.3919976 207.952,7.872 C207.503998,8.3520024 207.28,8.97599616 207.28,9.744 C207.28,10.5120038 207.503998,11.1359976 207.952,11.616 C208.400002,12.0960024 208.986663,12.336 209.712,12.336 C210.416004,12.336 210.991998,12.0960024 211.44,11.616 C211.888002,11.1359976 212.112,10.5120038 212.112,9.744 C212.112,8.97599616 211.888002,8.3520024 211.44,7.872 C210.991998,7.3919976 210.416004,7.152 209.712,7.152 Z M221.168,5.36 C222.149338,5.36 222.922664,5.65599704 223.488,6.248 C224.053336,6.84000296 224.336,7.6426616 224.336,8.656 L224.336,14 L222.24,14 L222.24,9.264 C222.24,8.66666368 222.069335,8.1946684 221.728,7.848 C221.386665,7.5013316 220.92267,7.328 220.336,7.328 C219.642663,7.33866672 219.096002,7.57333104 218.696,8.032 C218.295998,8.49066896 218.096,9.07732976 218.096,9.792 L218.096,14 L216.016,14 L216.016,5.44 L218.096,5.44 L218.096,7.04 C218.68267,5.94132784 219.706659,5.38133344 221.168,5.36 Z" id="Find-the-nearest-loc"></path>
                                                </g>
                                            </g>
                                        </g>
                                        <g id="Group-6" transform="translate(0.000000, 137.436611)">
                                            <g id="Group-19">
                                                <g id="Rectangle-2">
                                                    <use fill="black" fill-opacity="1" filter="url(#filter-6)" xlink:href="#path-5"></use>
                                                    <use fill="#FFFFFF" fill-rule="evenodd" xlink:href="#path-5"></use>
                                                </g>
                                                <path d="M15.16,18.6909953 L23.912,18.6909953 L23.912,20.0989953 L20.296,20.0989953 L20.296,29.8909953 L18.76,29.8909953 L18.76,20.0989953 L15.16,20.0989953 L15.16,18.6909953 Z M33.016,21.4269953 L33.016,29.8909953 L31.512,29.8909953 L31.512,28.0989953 C30.9573306,29.3043346 29.9120077,29.9176618 28.376,29.9389953 C27.3946618,29.9389953 26.6266694,29.6483315 26.072,29.0669953 C25.5173306,28.485659 25.24,27.6830004 25.24,26.6589953 L25.24,21.4269953 L26.744,21.4269953 L26.744,26.2589953 C26.744,26.9736655 26.9386647,27.5309933 27.328,27.9309953 C27.7173353,28.3309973 28.2533299,28.5309953 28.936,28.5309953 C29.7253373,28.5203285 30.3519977,28.2403313 30.816,27.6909953 C31.2800023,27.1416592 31.512,26.4403329 31.512,25.5869953 L31.512,21.4269953 L33.016,21.4269953 Z M39.304,21.3789953 C40.6160066,21.3789953 41.6079966,21.7656581 42.28,22.5389953 C42.9520034,23.3123325 43.288,24.3869884 43.288,25.7629953 C43.288,25.9763297 43.2826667,26.1363281 43.272,26.2429953 L36.584,26.2429953 C36.7013339,27.0003324 37.0186641,27.602993 37.536,28.0509953 C38.0533359,28.4989975 38.6906629,28.7229953 39.448,28.7229953 C39.9493358,28.7229953 40.4159978,28.6323295 40.848,28.4509953 C41.2800022,28.269661 41.6559984,28.0136636 41.976,27.6829953 L42.792,28.5309953 C42.3759979,28.9789975 41.8746696,29.3256607 41.288,29.5709953 C40.7013304,29.8163298 40.0506702,29.9389953 39.336,29.9389953 C38.5039958,29.9389953 37.7653366,29.7603304 37.12,29.4029953 C36.4746634,29.0456601 35.9733351,28.5416652 35.616,27.8909953 C35.2586649,27.2403253 35.08,26.4989994 35.08,25.6669953 C35.08,24.8349911 35.2586649,24.0963318 35.616,23.4509953 C35.9733351,22.8056587 36.4719968,22.2989971 37.112,21.9309953 C37.7520032,21.5629934 38.4826626,21.3789953 39.304,21.3789953 Z M41.944,25.0909953 C41.9013331,24.3229914 41.6453357,23.7176641 41.176,23.2749953 C40.7066643,22.8323264 40.0880038,22.6109953 39.32,22.6109953 C38.5733296,22.6109953 37.9520025,22.834993 37.456,23.2829953 C36.9599975,23.7309975 36.6640005,24.3336581 36.568,25.0909953 L41.944,25.0909953 Z M45.528,28.2429953 C45.7626678,28.2429953 45.9626658,28.3229945 46.128,28.4829953 C46.2933342,28.6429961 46.376,28.8563273 46.376,29.1229953 C46.376,29.2403292 46.3520002,29.3629946 46.304,29.4909953 C46.2559998,29.6189959 46.2053336,29.7416613 46.152,29.8589953 L45.288,31.6829953 L44.472,31.6829953 L45.112,29.8749953 C44.9626659,29.8003282 44.850667,29.6963293 44.776,29.5629953 C44.701333,29.4296613 44.664,29.2829961 44.664,29.1229953 C44.664,28.866994 44.7466658,28.6563294 44.912,28.4909953 C45.0773342,28.3256611 45.2826654,28.2429953 45.528,28.2429953 Z M60.024,28.4989953 L60.024,29.8909953 L51.928,29.8909953 L51.928,28.7069953 L56.264,24.2109953 C56.7333357,23.7416596 57.1066653,23.2749976 57.384,22.8109953 C57.6613347,22.3469929 57.8,21.9443303 57.8,21.6029953 C57.8,21.1016594 57.6053353,20.7069967 57.216,20.4189953 C56.8266647,20.1309938 56.2906701,19.9869953 55.608,19.9869953 C55.0853307,19.9869953 54.5413362,20.1069941 53.976,20.3469953 C53.4106638,20.5869965 52.898669,20.9203265 52.44,21.3469953 L51.784,20.1789953 C52.392003,19.6883261 53.0399966,19.3069966 53.728,19.0349953 C54.4160034,18.7629939 55.1066632,18.6269953 55.8,18.6269953 C56.8880054,18.6269953 57.7599967,18.8776594 58.416,19.3789953 C59.0720033,19.8803311 59.4,20.5523244 59.4,21.3949953 C59.4,22.3870002 58.7066736,23.6029881 57.32,25.0429953 L53.944,28.4989953 L60.024,28.4989953 Z M65.672,18.6269953 C66.8026723,18.6269953 67.6933301,18.8803261 68.344,19.3869953 C68.9946699,19.8936645 69.32,20.5896575 69.32,21.4749953 C69.32,22.0296647 69.1680015,22.5176598 68.864,22.9389953 C68.5599985,23.3603307 68.1360027,23.6829941 67.592,23.9069953 C68.3066702,24.1309964 68.8666646,24.4909928 69.272,24.9869953 C69.6773354,25.4829977 69.88,26.0723252 69.88,26.7549953 C69.88,27.7470002 69.5040038,28.5309924 68.752,29.1069953 C67.9999962,29.6829981 66.9786731,29.9709953 65.688,29.9709953 C64.3973269,29.9709953 63.3760038,29.6856648 62.624,29.1149953 C61.8719962,28.5443257 61.496,27.7683335 61.496,26.7869953 C61.496,26.0936585 61.7039979,25.4963311 62.12,24.9949953 C62.5360021,24.4936594 63.1119963,24.1309964 63.848,23.9069953 C63.2719971,23.6616607 62.8266682,23.3283307 62.512,22.9069953 C62.1973318,22.4856598 62.04,21.9923314 62.04,21.4269953 C62.04,20.5629909 62.3653301,19.8803311 63.016,19.3789953 C63.6666699,18.8776594 64.5519944,18.6269953 65.672,18.6269953 Z M65.688,19.7469953 C64.9519963,19.7469953 64.3786687,19.9069937 63.968,20.2269953 C63.5573313,20.5469969 63.352,20.9896591 63.352,21.5549953 C63.352,22.1309981 63.5573313,22.5789937 63.968,22.8989953 C64.3786687,23.2189969 64.9519963,23.3789953 65.688,23.3789953 C66.4240037,23.3789953 66.9946646,23.2189969 67.4,22.8989953 C67.8053354,22.5789937 68.008,22.1309981 68.008,21.5549953 C68.008,20.9896591 67.8053354,20.5469969 67.4,20.2269953 C66.9946646,19.9069937 66.4240037,19.7469953 65.688,19.7469953 Z M65.672,24.5949953 C64.8186624,24.5949953 64.1520024,24.7736601 63.672,25.1309953 C63.1919976,25.4883304 62.952,25.9816588 62.952,26.6109953 C62.952,27.2829986 63.1919976,27.8056601 63.672,28.1789953 C64.1520024,28.5523305 64.8239957,28.7389953 65.688,28.7389953 C66.5413376,28.7389953 67.2106642,28.5523305 67.696,28.1789953 C68.1813358,27.8056601 68.424,27.2883319 68.424,26.6269953 C68.424,25.9976588 68.1813358,25.5016637 67.696,25.1389953 C67.2106642,24.7763268 66.5360043,24.5949953 65.672,24.5949953 Z M83.08,21.0269953 C82.5573307,20.6963269 82.0160028,20.4483294 81.456,20.2829953 C80.8959972,20.1176611 80.3813357,20.0349953 79.912,20.0349953 C79.2613301,20.0349953 78.7413353,20.1603273 78.352,20.4109953 C77.9626647,20.6616632 77.768,21.0056597 77.768,21.4429953 C77.768,21.8376639 77.8853322,22.1603273 78.12,22.4109953 C78.3546678,22.6616632 78.642665,22.8589945 78.984,23.0029953 C79.325335,23.146996 79.799997,23.3149943 80.408,23.5069953 C81.1653371,23.7416631 81.7786643,23.9656609 82.248,24.1789953 C82.7173357,24.3923297 83.1173317,24.7096598 83.448,25.1309953 C83.7786683,25.5523307 83.944,26.1096585 83.944,26.8029953 C83.944,27.4429985 83.7706684,28.0029929 83.424,28.4829953 C83.0773316,28.9629977 82.5920031,29.3336606 81.968,29.5949953 C81.3439969,29.8563299 80.6266707,29.9869953 79.816,29.9869953 C78.9946626,29.9869953 78.1946706,29.8269969 77.416,29.5069953 C76.6373294,29.1869937 75.9653362,28.7603313 75.4,28.2269953 L76.088,26.8989953 C76.621336,27.4216645 77.22133,27.8243272 77.888,28.1069953 C78.55467,28.3896633 79.2026635,28.5309953 79.832,28.5309953 C80.5786704,28.5309953 81.1679978,28.3843301 81.6,28.0909953 C82.0320022,27.7976605 82.248,27.4003311 82.248,26.8989953 C82.248,26.5043266 82.1306678,26.1789965 81.896,25.9229953 C81.6613322,25.666994 81.3653351,25.4643293 81.008,25.3149953 C80.6506649,25.1656612 80.168003,25.0003295 79.56,24.8189953 C78.8133296,24.5949941 78.2053357,24.3763297 77.736,24.1629953 C77.2666643,23.9496609 76.869335,23.6349973 76.544,23.2189953 C76.218665,22.8029932 76.056,22.2536653 76.056,21.5709953 C76.056,20.9736589 76.2213317,20.4456642 76.552,19.9869953 C76.8826683,19.5283263 77.3466637,19.1763298 77.944,18.9309953 C78.5413363,18.6856607 79.2346627,18.5629953 80.024,18.5629953 C80.6960034,18.5629953 81.3546634,18.6616609 82,18.8589953 C82.6453366,19.0563296 83.2186642,19.3203269 83.72,19.6509953 L83.08,21.0269953 Z M89.64,21.3789953 C90.9520066,21.3789953 91.9439966,21.7656581 92.616,22.5389953 C93.2880034,23.3123325 93.624,24.3869884 93.624,25.7629953 C93.624,25.9763297 93.6186667,26.1363281 93.608,26.2429953 L86.92,26.2429953 C87.0373339,27.0003324 87.3546641,27.602993 87.872,28.0509953 C88.3893359,28.4989975 89.0266629,28.7229953 89.784,28.7229953 C90.2853358,28.7229953 90.7519978,28.6323295 91.184,28.4509953 C91.6160022,28.269661 91.9919984,28.0136636 92.312,27.6829953 L93.128,28.5309953 C92.7119979,28.9789975 92.2106696,29.3256607 91.624,29.5709953 C91.0373304,29.8163298 90.3866702,29.9389953 89.672,29.9389953 C88.8399958,29.9389953 88.1013366,29.7603304 87.456,29.4029953 C86.8106634,29.0456601 86.3093351,28.5416652 85.952,27.8909953 C85.5946649,27.2403253 85.416,26.4989994 85.416,25.6669953 C85.416,24.8349911 85.5946649,24.0963318 85.952,23.4509953 C86.3093351,22.8056587 86.8079968,22.2989971 87.448,21.9309953 C88.0880032,21.5629934 88.8186626,21.3789953 89.64,21.3789953 Z M92.28,25.0909953 C92.2373331,24.3229914 91.9813357,23.7176641 91.512,23.2749953 C91.0426643,22.8323264 90.4240038,22.6109953 89.656,22.6109953 C88.9093296,22.6109953 88.2880025,22.834993 87.792,23.2829953 C87.2959975,23.7309975 87.0000005,24.3336581 86.904,25.0909953 L92.28,25.0909953 Z M100.36,21.3789953 C101.149337,21.3789953 101.85333,21.5603268 102.472,21.9229953 C103.09067,22.2856637 103.570665,22.7923253 103.912,23.4429953 C104.253335,24.0936652 104.424,24.8403244 104.424,25.6829953 C104.424,26.5149994 104.256002,27.2536587 103.92,27.8989953 C103.583998,28.5443318 103.109336,29.0456601 102.496,29.4029953 C101.882664,29.7603304 101.181337,29.9389953 100.392,29.9389953 C99.6773298,29.9389953 99.0480027,29.7896634 98.504,29.4909953 C97.9599973,29.1923271 97.5333349,28.7656647 97.224,28.2109953 L97.224,32.9949953 L95.736,32.9949953 L95.736,21.4269953 L97.224,21.4269953 L97.224,23.1069953 C97.5333349,22.5523258 97.9573306,22.1256634 98.496,21.8269953 C99.0346694,21.5283271 99.6559965,21.3789953 100.36,21.3789953 Z M100.072,28.6429953 C100.616003,28.6429953 101.103998,28.5149965 101.536,28.2589953 C101.968002,28.002994 102.303999,27.6456642 102.544,27.1869953 C102.784001,26.7283263 102.904,26.2109981 102.904,25.6349953 C102.904,25.0696591 102.781335,24.5576642 102.536,24.0989953 C102.290665,23.6403263 101.954669,23.2829965 101.528,23.0269953 C101.101331,22.770994 100.616003,22.6429953 100.072,22.6429953 C99.5279973,22.6429953 99.0400022,22.770994 98.608,23.0269953 C98.1759978,23.2829965 97.8373346,23.6403263 97.592,24.0989953 C97.3466654,24.5576642 97.224,25.0696591 97.224,25.6349953 C97.224,26.2216649 97.3466654,26.7416597 97.592,27.1949953 C97.8373346,27.6483309 98.1759978,28.002994 98.608,28.2589953 C99.0400022,28.5149965 99.5279973,28.6429953 100.072,28.6429953 Z M111.048,29.3309953 C110.39733,29.7469973 109.736003,29.9549953 109.064,29.9549953 C108.391997,29.9549953 107.848002,29.7549973 107.432,29.3549953 C107.015998,28.9549933 106.808,28.349666 106.808,27.5389953 L106.808,22.8509953 L105.608,22.8509953 L105.608,21.7149953 L106.808,21.7149953 L106.808,19.4429953 L108.312,19.4429953 L108.312,21.7149953 L110.904,21.7149953 L110.904,22.8509953 L108.312,22.8509953 L108.312,27.2669953 C108.312,27.7363309 108.397332,28.0723276 108.568,28.2749953 C108.738668,28.4776629 108.994665,28.5789953 109.336,28.5789953 C109.741335,28.5789953 110.178664,28.4456633 110.648,28.1789953 L111.048,29.3309953 Z M116.248,21.3789953 C117.560007,21.3789953 118.551997,21.7656581 119.224,22.5389953 C119.896003,23.3123325 120.232,24.3869884 120.232,25.7629953 C120.232,25.9763297 120.226667,26.1363281 120.216,26.2429953 L113.528,26.2429953 C113.645334,27.0003324 113.962664,27.602993 114.48,28.0509953 C114.997336,28.4989975 115.634663,28.7229953 116.392,28.7229953 C116.893336,28.7229953 117.359998,28.6323295 117.792,28.4509953 C118.224002,28.269661 118.599998,28.0136636 118.92,27.6829953 L119.736,28.5309953 C119.319998,28.9789975 118.81867,29.3256607 118.232,29.5709953 C117.64533,29.8163298 116.99467,29.9389953 116.28,29.9389953 C115.447996,29.9389953 114.709337,29.7603304 114.064,29.4029953 C113.418663,29.0456601 112.917335,28.5416652 112.56,27.8909953 C112.202665,27.2403253 112.024,26.4989994 112.024,25.6669953 C112.024,24.8349911 112.202665,24.0963318 112.56,23.4509953 C112.917335,22.8056587 113.415997,22.2989971 114.056,21.9309953 C114.696003,21.5629934 115.426663,21.3789953 116.248,21.3789953 Z M118.888,25.0909953 C118.845333,24.3229914 118.589336,23.7176641 118.12,23.2749953 C117.650664,22.8323264 117.032004,22.6109953 116.264,22.6109953 C115.51733,22.6109953 114.896002,22.834993 114.4,23.2829953 C113.903998,23.7309975 113.608,24.3336581 113.512,25.0909953 L118.888,25.0909953 Z M133.192,21.3789953 C134.162672,21.3789953 134.925331,21.6723257 135.48,22.2589953 C136.034669,22.8456649 136.312,23.6456569 136.312,24.6589953 L136.312,29.8909953 L134.808,29.8909953 L134.808,25.0589953 C134.808,24.344325 134.613335,23.7843306 134.224,23.3789953 C133.834665,22.9736599 133.29867,22.7709953 132.616,22.7709953 C131.815996,22.7923287 131.186669,23.0749925 130.728,23.6189953 C130.269331,24.162998 130.04,24.8616577 130.04,25.7149953 L130.04,29.8909953 L128.536,29.8909953 L128.536,25.0589953 C128.536,24.344325 128.344002,23.7843306 127.96,23.3789953 C127.575998,22.9736599 127.037337,22.7709953 126.344,22.7709953 C125.543996,22.7923287 124.912002,23.0749925 124.448,23.6189953 C123.983998,24.162998 123.752,24.8616577 123.752,25.7149953 L123.752,29.8909953 L122.264,29.8909953 L122.264,21.4269953 L123.752,21.4269953 L123.752,23.2029953 C124.306669,22.0083226 125.357326,21.4003287 126.904,21.3789953 C127.682671,21.3789953 128.330664,21.5656601 128.848,21.9389953 C129.365336,22.3123305 129.714666,22.8349919 129.896,23.5069953 C130.418669,22.1096549 131.517325,21.4003287 133.192,21.3789953 Z M143.672,21.3789953 C144.461337,21.3789953 145.16533,21.5603268 145.784,21.9229953 C146.40267,22.2856637 146.882665,22.7923253 147.224,23.4429953 C147.565335,24.0936652 147.736,24.8403244 147.736,25.6829953 C147.736,26.5149994 147.568002,27.2536587 147.232,27.8989953 C146.895998,28.5443318 146.421336,29.0456601 145.808,29.4029953 C145.194664,29.7603304 144.493337,29.9389953 143.704,29.9389953 C142.98933,29.9389953 142.360003,29.7896634 141.816,29.4909953 C141.271997,29.1923271 140.845335,28.7656647 140.536,28.2109953 L140.536,29.8909953 L139.048,29.8909953 L139.048,18.0189953 L140.536,18.0189953 L140.536,23.1069953 C140.845335,22.5523258 141.269331,22.1256634 141.808,21.8269953 C142.346669,21.5283271 142.967996,21.3789953 143.672,21.3789953 Z M143.384,28.6429953 C143.928003,28.6429953 144.415998,28.5149965 144.848,28.2589953 C145.280002,28.002994 145.615999,27.6456642 145.856,27.1869953 C146.096001,26.7283263 146.216,26.2109981 146.216,25.6349953 C146.216,25.0696591 146.093335,24.5576642 145.848,24.0989953 C145.602665,23.6403263 145.266669,23.2829965 144.84,23.0269953 C144.413331,22.770994 143.928003,22.6429953 143.384,22.6429953 C142.839997,22.6429953 142.352002,22.770994 141.92,23.0269953 C141.487998,23.2829965 141.149335,23.6403263 140.904,24.0989953 C140.658665,24.5576642 140.536,25.0696591 140.536,25.6349953 C140.536,26.2216649 140.658665,26.7416597 140.904,27.1949953 C141.149335,27.6483309 141.487998,28.002994 141.92,28.2589953 C142.352002,28.5149965 142.839997,28.6429953 143.384,28.6429953 Z M153.208,21.3789953 C154.520007,21.3789953 155.511997,21.7656581 156.184,22.5389953 C156.856003,23.3123325 157.192,24.3869884 157.192,25.7629953 C157.192,25.9763297 157.186667,26.1363281 157.176,26.2429953 L150.488,26.2429953 C150.605334,27.0003324 150.922664,27.602993 151.44,28.0509953 C151.957336,28.4989975 152.594663,28.7229953 153.352,28.7229953 C153.853336,28.7229953 154.319998,28.6323295 154.752,28.4509953 C155.184002,28.269661 155.559998,28.0136636 155.88,27.6829953 L156.696,28.5309953 C156.279998,28.9789975 155.77867,29.3256607 155.192,29.5709953 C154.60533,29.8163298 153.95467,29.9389953 153.24,29.9389953 C152.407996,29.9389953 151.669337,29.7603304 151.024,29.4029953 C150.378663,29.0456601 149.877335,28.5416652 149.52,27.8909953 C149.162665,27.2403253 148.984,26.4989994 148.984,25.6669953 C148.984,24.8349911 149.162665,24.0963318 149.52,23.4509953 C149.877335,22.8056587 150.375997,22.2989971 151.016,21.9309953 C151.656003,21.5629934 152.386663,21.3789953 153.208,21.3789953 Z M155.848,25.0909953 C155.805333,24.3229914 155.549336,23.7176641 155.08,23.2749953 C154.610664,22.8323264 153.992004,22.6109953 153.224,22.6109953 C152.47733,22.6109953 151.856002,22.834993 151.36,23.2829953 C150.863998,23.7309975 150.568,24.3336581 150.472,25.0909953 L155.848,25.0909953 Z M160.712,23.2509953 C160.989335,22.6429922 161.383997,22.1816635 161.896,21.8669953 C162.408003,21.552327 163.015996,21.389662 163.72,21.3789953 L163.72,22.8189953 C162.855996,22.7869951 162.157336,23.0109929 161.624,23.4909953 C161.090664,23.9709977 160.786667,24.6163245 160.712,25.4269953 L160.712,29.8909953 L159.224,29.8909953 L159.224,21.4269953 L160.712,21.4269953 L160.712,23.2509953 Z M169.08,24.4989953 L172.904,24.4989953 L172.904,25.5709953 L169.08,25.5709953 L169.08,24.4989953 Z M178.216,18.6909953 L182.296,18.6909953 L182.296,29.8909953 L180.76,29.8909953 L180.76,20.0829953 L178.216,20.0829953 L178.216,18.6909953 Z M189.096,22.8669953 C189.917337,22.8669953 190.639997,23.0109938 191.264,23.2989953 C191.888003,23.5869967 192.367998,23.9869927 192.704,24.4989953 C193.040002,25.0109978 193.208,25.5869921 193.208,26.2269953 C193.208,26.9736657 193.034668,27.6296591 192.688,28.1949953 C192.341332,28.7603314 191.848003,29.1976604 191.208,29.5069953 C190.567997,29.8163301 189.826671,29.9709953 188.984,29.9709953 C188.322663,29.9709953 187.62667,29.8563297 186.896,29.6269953 C186.16533,29.3976608 185.512003,29.0909972 184.936,28.7069953 L185.56,27.4749953 C186.040002,27.8376637 186.567997,28.1149943 187.144,28.3069953 C187.720003,28.4989962 188.285331,28.5949953 188.84,28.5949953 C189.682671,28.5949953 190.349331,28.3923306 190.84,27.9869953 C191.330669,27.5816599 191.576,27.0323321 191.576,26.3389953 C191.576,25.6883253 191.330669,25.1789971 190.84,24.8109953 C190.349331,24.4429934 189.650671,24.2589953 188.744,24.2589953 C188.413332,24.2589953 187.933336,24.2803284 187.304,24.3229953 C186.674664,24.3656621 186.168002,24.4189949 185.784,24.4829953 L185.784,18.6909953 L192.744,18.6909953 L192.744,20.0829953 L187.224,20.0829953 L187.224,22.9309953 C187.725336,22.8883284 188.34933,22.8669953 189.096,22.8669953 Z M195.528,23.4429953 C195.773335,23.4429953 195.978666,23.5283277 196.144,23.6989953 C196.309334,23.8696628 196.392,24.0883273 196.392,24.3549953 C196.392,24.6216633 196.309334,24.8429944 196.144,25.0189953 C195.978666,25.1949961 195.773335,25.2829953 195.528,25.2829953 C195.282665,25.2829953 195.074668,25.1949961 194.904,25.0189953 C194.733332,24.8429944 194.648,24.6216633 194.648,24.3549953 C194.648,24.0883273 194.733332,23.8696628 194.904,23.6989953 C195.074668,23.5283277 195.282665,23.4429953 195.528,23.4429953 Z M195.528,28.1949953 C195.773335,28.1949953 195.978666,28.2803277 196.144,28.4509953 C196.309334,28.6216628 196.392,28.8403273 196.392,29.1069953 C196.392,29.3736633 196.309334,29.5949944 196.144,29.7709953 C195.978666,29.9469961 195.773335,30.0349953 195.528,30.0349953 C195.282665,30.0349953 195.074668,29.9469961 194.904,29.7709953 C194.733332,29.5949944 194.648,29.3736633 194.648,29.1069953 C194.648,28.8403273 194.733332,28.6216628 194.904,28.4509953 C195.074668,28.2803277 195.282665,28.1949953 195.528,28.1949953 Z M202.968,18.6269953 C204.472008,18.6269953 205.629329,19.1149904 206.44,20.0909953 C207.250671,21.0670001 207.656,22.4669861 207.656,24.2909953 C207.656,26.1150044 207.250671,27.517657 206.44,28.4989953 C205.629329,29.4803335 204.472008,29.9709953 202.968,29.9709953 C201.453326,29.9709953 200.293337,29.4803335 199.488,28.4989953 C198.682663,27.517657 198.28,26.1150044 198.28,24.2909953 C198.28,22.4669861 198.682663,21.0670001 199.488,20.0909953 C200.293337,19.1149904 201.453326,18.6269953 202.968,18.6269953 Z M202.968,19.8429953 C200.898656,19.8429953 199.864,21.3256471 199.864,24.2909953 C199.864,25.7630026 200.125331,26.8723249 200.648,27.6189953 C201.170669,28.3656657 201.943995,28.7389953 202.968,28.7389953 C203.992005,28.7389953 204.765331,28.3656657 205.288,27.6189953 C205.810669,26.8723249 206.072,25.7630026 206.072,24.2909953 C206.072,21.3256471 205.037344,19.8429953 202.968,19.8429953 Z M214.344,18.6269953 C215.848008,18.6269953 217.005329,19.1149904 217.816,20.0909953 C218.626671,21.0670001 219.032,22.4669861 219.032,24.2909953 C219.032,26.1150044 218.626671,27.517657 217.816,28.4989953 C217.005329,29.4803335 215.848008,29.9709953 214.344,29.9709953 C212.829326,29.9709953 211.669337,29.4803335 210.864,28.4989953 C210.058663,27.517657 209.656,26.1150044 209.656,24.2909953 C209.656,22.4669861 210.058663,21.0670001 210.864,20.0909953 C211.669337,19.1149904 212.829326,18.6269953 214.344,18.6269953 Z M214.344,19.8429953 C212.274656,19.8429953 211.24,21.3256471 211.24,24.2909953 C211.24,25.7630026 211.501331,26.8723249 212.024,27.6189953 C212.546669,28.3656657 213.319995,28.7389953 214.344,28.7389953 C215.368005,28.7389953 216.141331,28.3656657 216.664,27.6189953 C217.186669,26.8723249 217.448,25.7630026 217.448,24.2909953 C217.448,21.3256471 216.413344,19.8429953 214.344,19.8429953 Z" id="Tue,-28-September--" fill="#363A4F"></path>
                                                <g id="Rectangle-2">
                                                    <use fill="black" fill-opacity="1" filter="url(#filter-8)" xlink:href="#path-7"></use>
                                                    <use fill="#FFFFFF" fill-rule="evenodd" xlink:href="#path-7"></use>
                                                </g>
                                                <path d="M25.992,86.3276066 L24.136,86.3276066 L20.2,81.1596066 L18.136,83.3996066 L18.136,86.3276066 L16.6,86.3276066 L16.6,75.1276066 L18.136,75.1276066 L18.136,81.4156066 L23.864,75.1276066 L25.704,75.1276066 L21.272,79.9596066 L25.992,86.3276066 Z M32.936,86.3276066 L32.936,85.1436066 C32.3066635,85.9756108 31.3200067,86.3916066 29.976,86.3916066 C29.3893304,86.3916066 28.8746689,86.2796078 28.432,86.0556066 C27.9893311,85.8316055 27.6480012,85.5222753 27.408,85.1276066 C27.1679988,84.732938 27.048,84.2902758 27.048,83.7996066 C27.048,83.0422695 27.3279972,82.4422755 27.888,81.9996066 C28.4480028,81.5569378 29.2293283,81.3302734 30.232,81.3196066 L32.92,81.3196066 L32.92,80.9196066 C32.92,80.3222703 32.7360018,79.8609416 32.368,79.5356066 C31.9999982,79.2102717 31.4640035,79.0476066 30.76,79.0476066 C29.9066624,79.0476066 29.0373378,79.3516036 28.152,79.9596066 L27.528,78.9356066 C28.136003,78.540938 28.6986641,78.2556075 29.216,78.0796066 C29.7333359,77.9036058 30.3493298,77.8156066 31.064,77.8156066 C32.1200053,77.8156066 32.9359971,78.0742707 33.512,78.5916066 C34.0880029,79.1089426 34.3813333,79.831602 34.392,80.7596066 L34.408,86.3276066 L32.936,86.3276066 Z M30.28,85.1596066 C30.9733368,85.1596066 31.5626642,84.9916083 32.048,84.6556066 C32.5333358,84.319605 32.8239995,83.8742761 32.92,83.3196066 L32.92,82.4716066 L30.44,82.4716066 C29.7679966,82.4716066 29.269335,82.572939 28.944,82.7756066 C28.618665,82.9782743 28.456,83.2982711 28.456,83.7356066 C28.456,84.1729422 28.6213317,84.5196054 28.952,84.7756066 C29.2826683,85.0316079 29.7253306,85.1596066 30.28,85.1596066 Z M41.608,85.7676066 C40.9573301,86.1836087 40.2960034,86.3916066 39.624,86.3916066 C38.9519966,86.3916066 38.4080021,86.1916086 37.992,85.7916066 C37.5759979,85.3916046 37.368,84.7862774 37.368,83.9756066 L37.368,79.2876066 L36.168,79.2876066 L36.168,78.1516066 L37.368,78.1516066 L37.368,75.8796066 L38.872,75.8796066 L38.872,78.1516066 L41.464,78.1516066 L41.464,79.2876066 L38.872,79.2876066 L38.872,83.7036066 C38.872,84.1729423 38.9573325,84.508939 39.128,84.7116066 C39.2986675,84.9142743 39.554665,85.0156066 39.896,85.0156066 C40.3013354,85.0156066 40.7386643,84.8822746 41.208,84.6156066 L41.608,85.7676066 Z M46.376,87.5276066 C46.109332,88.1782766 45.7546689,88.6689383 45.312,88.9996066 C44.8693311,89.330275 44.3493363,89.4956066 43.752,89.4956066 C43.3893315,89.4956066 43.0586682,89.4422738 42.76,89.3356066 C42.4613318,89.2289394 42.1733347,89.0636078 41.896,88.8396066 L42.536,87.6716066 C42.9093352,87.9382746 43.2879981,88.0716066 43.672,88.0716066 C44.3120032,88.0716066 44.7919984,87.7089436 45.112,86.9836066 L45.432,86.2316066 L41.928,77.8636066 L43.496,77.8636066 L46.184,84.6476066 L48.728,77.8636066 L50.248,77.8636066 L46.376,87.5276066 Z M56.808,86.3276066 L56.808,85.1436066 C56.1786635,85.9756108 55.1920067,86.3916066 53.848,86.3916066 C53.2613304,86.3916066 52.7466689,86.2796078 52.304,86.0556066 C51.8613311,85.8316055 51.5200012,85.5222753 51.28,85.1276066 C51.0399988,84.732938 50.92,84.2902758 50.92,83.7996066 C50.92,83.0422695 51.1999972,82.4422755 51.76,81.9996066 C52.3200028,81.5569378 53.1013283,81.3302734 54.104,81.3196066 L56.792,81.3196066 L56.792,80.9196066 C56.792,80.3222703 56.6080018,79.8609416 56.24,79.5356066 C55.8719982,79.2102717 55.3360035,79.0476066 54.632,79.0476066 C53.7786624,79.0476066 52.9093378,79.3516036 52.024,79.9596066 L51.4,78.9356066 C52.008003,78.540938 52.5706641,78.2556075 53.088,78.0796066 C53.6053359,77.9036058 54.2213298,77.8156066 54.936,77.8156066 C55.9920053,77.8156066 56.8079971,78.0742707 57.384,78.5916066 C57.9600029,79.1089426 58.2533333,79.831602 58.264,80.7596066 L58.28,86.3276066 L56.808,86.3276066 Z M54.152,85.1596066 C54.8453368,85.1596066 55.4346642,84.9916083 55.92,84.6556066 C56.4053358,84.319605 56.6959995,83.8742761 56.792,83.3196066 L56.792,82.4716066 L54.312,82.4716066 C53.6399966,82.4716066 53.141335,82.572939 52.816,82.7756066 C52.490665,82.9782743 52.328,83.2982711 52.328,83.7356066 C52.328,84.1729422 52.4933317,84.5196054 52.824,84.7756066 C53.1546683,85.0316079 53.5973306,85.1596066 54.152,85.1596066 Z" id="Katya" fill="#363A4F"></path>
                                                <g id="Rectangle-2">
                                                    <use fill="black" fill-opacity="1" filter="url(#filter-10)" xlink:href="#path-9"></use>
                                                    <use fill="#FFFFFF" fill-rule="evenodd" xlink:href="#path-9"></use>
                                                </g>
                                                <path d="M22.328,138.052218 L22.328,139.124218 L19.464,139.124218 L19.464,141.972218 L18.456,141.972218 L18.456,139.124218 L15.576,139.124218 L15.576,138.052218 L18.456,138.052218 L18.456,135.204218 L19.464,135.204218 L19.464,138.052218 L22.328,138.052218 Z M24.808,141.844218 C25.1706685,142.068219 25.5733311,142.241551 26.016,142.364218 C26.4586689,142.486885 26.8986645,142.548218 27.336,142.548218 C28.402672,142.548218 29.2213305,142.172222 29.792,141.420218 C30.3626695,140.668214 30.648,139.641558 30.648,138.340218 C30.648,138.13755 30.6426667,137.982885 30.632,137.876218 C30.365332,138.494888 29.9573361,138.964216 29.408,139.284218 C28.8586639,139.60422 28.1946706,139.764218 27.416,139.764218 C26.3066611,139.764218 25.4320032,139.444221 24.792,138.804218 C24.1519968,138.164215 23.832,137.300223 23.832,136.212218 C23.832,135.454881 23.9919984,134.796221 24.312,134.236218 C24.6320016,133.676215 25.0826638,133.246886 25.664,132.948218 C26.2453362,132.64955 26.9199962,132.500218 27.688,132.500218 C28.6053379,132.500218 29.3999966,132.713549 30.072,133.140218 C30.7440034,133.566887 31.2586649,134.185547 31.616,134.996218 C31.9733351,135.806889 32.152,136.777546 32.152,137.908218 C32.152,139.092224 31.9600019,140.132214 31.576,141.028218 C31.1919981,141.924222 30.6426702,142.617549 29.928,143.108218 C29.2133298,143.598887 28.3813381,143.844218 27.432,143.844218 C26.9093307,143.844218 26.3546696,143.766885 25.768,143.612218 C25.1813304,143.457551 24.658669,143.257553 24.2,143.012218 L24.808,141.844218 Z M27.784,133.828218 C27.0266629,133.828218 26.418669,134.041549 25.96,134.468218 C25.501331,134.894887 25.272,135.481548 25.272,136.228218 C25.272,136.932222 25.4906645,137.492216 25.928,137.908218 C26.3653355,138.32422 26.9519963,138.532218 27.688,138.532218 C28.2320027,138.532218 28.703998,138.422886 29.104,138.204218 C29.504002,137.98555 29.8106656,137.69222 30.024,137.324218 C30.2373344,136.956216 30.344,136.558887 30.344,136.132218 C30.344,135.76955 30.2506676,135.409553 30.064,135.052218 C29.8773324,134.694883 29.5920019,134.401552 29.208,134.172218 C28.8239981,133.942884 28.3493362,133.828218 27.784,133.828218 Z M38.84,132.500218 C40.3440075,132.500218 41.5013293,132.988213 42.312,133.964218 C43.1226707,134.940223 43.528,136.340209 43.528,138.164218 C43.528,139.988227 43.1226707,141.39088 42.312,142.372218 C41.5013293,143.353556 40.3440075,143.844218 38.84,143.844218 C37.3253258,143.844218 36.1653374,143.353556 35.36,142.372218 C34.5546626,141.39088 34.152,139.988227 34.152,138.164218 C34.152,136.340209 34.5546626,134.940223 35.36,133.964218 C36.1653374,132.988213 37.3253258,132.500218 38.84,132.500218 Z M38.84,133.716218 C36.7706563,133.716218 35.736,135.19887 35.736,138.164218 C35.736,139.636225 35.9973307,140.745548 36.52,141.492218 C37.0426693,142.238888 37.8159949,142.612218 38.84,142.612218 C39.8640051,142.612218 40.6373307,142.238888 41.16,141.492218 C41.6826693,140.745548 41.944,139.636225 41.944,138.164218 C41.944,135.19887 40.9093437,133.716218 38.84,133.716218 Z M53.688,136.740218 C54.5093374,136.740218 55.2319969,136.884217 55.856,137.172218 C56.4800031,137.460219 56.9599983,137.860215 57.296,138.372218 C57.6320017,138.884221 57.8,139.460215 57.8,140.100218 C57.8,140.846888 57.6266684,141.502882 57.28,142.068218 C56.9333316,142.633554 56.4400032,143.070883 55.8,143.380218 C55.1599968,143.689553 54.4186709,143.844218 53.576,143.844218 C52.9146634,143.844218 52.2186703,143.729552 51.488,143.500218 C50.7573297,143.270884 50.1040029,142.96422 49.528,142.580218 L50.152,141.348218 C50.6320024,141.710886 51.1599971,141.988217 51.736,142.180218 C52.3120029,142.372219 52.8773306,142.468218 53.432,142.468218 C54.2746709,142.468218 54.9413309,142.265553 55.432,141.860218 C55.9226691,141.454883 56.168,140.905555 56.168,140.212218 C56.168,139.561548 55.9226691,139.05222 55.432,138.684218 C54.9413309,138.316216 54.2426712,138.132218 53.336,138.132218 C53.0053317,138.132218 52.5253365,138.153551 51.896,138.196218 C51.2666635,138.238885 50.7600019,138.292218 50.376,138.356218 L50.376,132.564218 L57.336,132.564218 L57.336,133.956218 L51.816,133.956218 L51.816,136.804218 C52.3173358,136.761551 52.9413296,136.740218 53.688,136.740218 Z M67.432,139.508218 L67.432,140.884218 L65.704,140.884218 L65.704,143.764218 L64.264,143.764218 L64.264,140.884218 L58.712,140.884218 L58.712,139.700218 L62.712,132.564218 L64.216,132.564218 L60.376,139.508218 L64.264,139.508218 L64.264,136.644218 L65.704,136.644218 L65.704,139.508218 L67.432,139.508218 Z M76.616,142.372218 L76.616,143.764218 L68.52,143.764218 L68.52,142.580218 L72.856,138.084218 C73.3253357,137.614882 73.6986653,137.14822 73.976,136.684218 C74.2533347,136.220216 74.392,135.817553 74.392,135.476218 C74.392,134.974882 74.1973353,134.580219 73.808,134.292218 C73.4186647,134.004217 72.8826701,133.860218 72.2,133.860218 C71.6773307,133.860218 71.1333362,133.980217 70.568,134.220218 C70.0026638,134.460219 69.490669,134.793549 69.032,135.220218 L68.376,134.052218 C68.984003,133.561549 69.6319966,133.180219 70.32,132.908218 C71.0080034,132.636217 71.6986632,132.500218 72.392,132.500218 C73.4800054,132.500218 74.3519967,132.750882 75.008,133.252218 C75.6640033,133.753554 75.992,134.425547 75.992,135.268218 C75.992,136.260223 75.2986736,137.476211 73.912,138.916218 L70.536,142.372218 L76.616,142.372218 Z M86.424,136.740218 C87.2453374,136.740218 87.9679969,136.884217 88.592,137.172218 C89.2160031,137.460219 89.6959983,137.860215 90.032,138.372218 C90.3680017,138.884221 90.536,139.460215 90.536,140.100218 C90.536,140.846888 90.3626684,141.502882 90.016,142.068218 C89.6693316,142.633554 89.1760032,143.070883 88.536,143.380218 C87.8959968,143.689553 87.1546709,143.844218 86.312,143.844218 C85.6506634,143.844218 84.9546703,143.729552 84.224,143.500218 C83.4933297,143.270884 82.8400029,142.96422 82.264,142.580218 L82.888,141.348218 C83.3680024,141.710886 83.8959971,141.988217 84.472,142.180218 C85.0480029,142.372219 85.6133306,142.468218 86.168,142.468218 C87.0106709,142.468218 87.6773309,142.265553 88.168,141.860218 C88.6586691,141.454883 88.904,140.905555 88.904,140.212218 C88.904,139.561548 88.6586691,139.05222 88.168,138.684218 C87.6773309,138.316216 86.9786712,138.132218 86.072,138.132218 C85.7413317,138.132218 85.2613365,138.153551 84.632,138.196218 C84.0026635,138.238885 83.4960019,138.292218 83.112,138.356218 L83.112,132.564218 L90.072,132.564218 L90.072,133.956218 L84.552,133.956218 L84.552,136.804218 C85.0533358,136.761551 85.6773296,136.740218 86.424,136.740218 Z M96.264,136.740218 C97.0853374,136.740218 97.8079969,136.884217 98.432,137.172218 C99.0560031,137.460219 99.5359983,137.860215 99.872,138.372218 C100.208002,138.884221 100.376,139.460215 100.376,140.100218 C100.376,140.846888 100.202668,141.502882 99.856,142.068218 C99.5093316,142.633554 99.0160032,143.070883 98.376,143.380218 C97.7359968,143.689553 96.9946709,143.844218 96.152,143.844218 C95.4906634,143.844218 94.7946703,143.729552 94.064,143.500218 C93.3333297,143.270884 92.6800029,142.96422 92.104,142.580218 L92.728,141.348218 C93.2080024,141.710886 93.7359971,141.988217 94.312,142.180218 C94.8880029,142.372219 95.4533306,142.468218 96.008,142.468218 C96.8506709,142.468218 97.5173309,142.265553 98.008,141.860218 C98.4986691,141.454883 98.744,140.905555 98.744,140.212218 C98.744,139.561548 98.4986691,139.05222 98.008,138.684218 C97.5173309,138.316216 96.8186712,138.132218 95.912,138.132218 C95.5813317,138.132218 95.1013365,138.153551 94.472,138.196218 C93.8426635,138.238885 93.3360019,138.292218 92.952,138.356218 L92.952,132.564218 L99.912,132.564218 L99.912,133.956218 L94.392,133.956218 L94.392,136.804218 C94.8933358,136.761551 95.5173296,136.740218 96.264,136.740218 Z M109.736,142.372218 L109.736,143.764218 L101.64,143.764218 L101.64,142.580218 L105.976,138.084218 C106.445336,137.614882 106.818665,137.14822 107.096,136.684218 C107.373335,136.220216 107.512,135.817553 107.512,135.476218 C107.512,134.974882 107.317335,134.580219 106.928,134.292218 C106.538665,134.004217 106.00267,133.860218 105.32,133.860218 C104.797331,133.860218 104.253336,133.980217 103.688,134.220218 C103.122664,134.460219 102.610669,134.793549 102.152,135.220218 L101.496,134.052218 C102.104003,133.561549 102.751997,133.180219 103.44,132.908218 C104.128003,132.636217 104.818663,132.500218 105.512,132.500218 C106.600005,132.500218 107.471997,132.750882 108.128,133.252218 C108.784003,133.753554 109.112,134.425547 109.112,135.268218 C109.112,136.260223 108.418674,137.476211 107.032,138.916218 L103.656,142.372218 L109.736,142.372218 Z M119.544,136.740218 C120.365337,136.740218 121.087997,136.884217 121.712,137.172218 C122.336003,137.460219 122.815998,137.860215 123.152,138.372218 C123.488002,138.884221 123.656,139.460215 123.656,140.100218 C123.656,140.846888 123.482668,141.502882 123.136,142.068218 C122.789332,142.633554 122.296003,143.070883 121.656,143.380218 C121.015997,143.689553 120.274671,143.844218 119.432,143.844218 C118.770663,143.844218 118.07467,143.729552 117.344,143.500218 C116.61333,143.270884 115.960003,142.96422 115.384,142.580218 L116.008,141.348218 C116.488002,141.710886 117.015997,141.988217 117.592,142.180218 C118.168003,142.372219 118.733331,142.468218 119.288,142.468218 C120.130671,142.468218 120.797331,142.265553 121.288,141.860218 C121.778669,141.454883 122.024,140.905555 122.024,140.212218 C122.024,139.561548 121.778669,139.05222 121.288,138.684218 C120.797331,138.316216 120.098671,138.132218 119.192,138.132218 C118.861332,138.132218 118.381336,138.153551 117.752,138.196218 C117.122664,138.238885 116.616002,138.292218 116.232,138.356218 L116.232,132.564218 L123.192,132.564218 L123.192,133.956218 L117.672,133.956218 L117.672,136.804218 C118.173336,136.761551 118.79733,136.740218 119.544,136.740218 Z M124.408,132.564218 L128.488,132.564218 L128.488,143.764218 L126.952,143.764218 L126.952,133.956218 L124.408,133.956218 L124.408,132.564218 Z M139.48,136.740218 C140.301337,136.740218 141.023997,136.884217 141.648,137.172218 C142.272003,137.460219 142.751998,137.860215 143.088,138.372218 C143.424002,138.884221 143.592,139.460215 143.592,140.100218 C143.592,140.846888 143.418668,141.502882 143.072,142.068218 C142.725332,142.633554 142.232003,143.070883 141.592,143.380218 C140.951997,143.689553 140.210671,143.844218 139.368,143.844218 C138.706663,143.844218 138.01067,143.729552 137.28,143.500218 C136.54933,143.270884 135.896003,142.96422 135.32,142.580218 L135.944,141.348218 C136.424002,141.710886 136.951997,141.988217 137.528,142.180218 C138.104003,142.372219 138.669331,142.468218 139.224,142.468218 C140.066671,142.468218 140.733331,142.265553 141.224,141.860218 C141.714669,141.454883 141.96,140.905555 141.96,140.212218 C141.96,139.561548 141.714669,139.05222 141.224,138.684218 C140.733331,138.316216 140.034671,138.132218 139.128,138.132218 C138.797332,138.132218 138.317336,138.153551 137.688,138.196218 C137.058664,138.238885 136.552002,138.292218 136.168,138.356218 L136.168,132.564218 L143.128,132.564218 L143.128,133.956218 L137.608,133.956218 L137.608,136.804218 C138.109336,136.761551 138.73333,136.740218 139.48,136.740218 Z M152.952,142.372218 L152.952,143.764218 L144.856,143.764218 L144.856,142.580218 L149.192,138.084218 C149.661336,137.614882 150.034665,137.14822 150.312,136.684218 C150.589335,136.220216 150.728,135.817553 150.728,135.476218 C150.728,134.974882 150.533335,134.580219 150.144,134.292218 C149.754665,134.004217 149.21867,133.860218 148.536,133.860218 C148.013331,133.860218 147.469336,133.980217 146.904,134.220218 C146.338664,134.460219 145.826669,134.793549 145.368,135.220218 L144.712,134.052218 C145.320003,133.561549 145.967997,133.180219 146.656,132.908218 C147.344003,132.636217 148.034663,132.500218 148.728,132.500218 C149.816005,132.500218 150.687997,132.750882 151.344,133.252218 C152.000003,133.753554 152.328,134.425547 152.328,135.268218 C152.328,136.260223 151.634674,137.476211 150.248,138.916218 L146.872,142.372218 L152.952,142.372218 Z" id="+90-542-552-51-52" fill="#363A4F"></path>
                                            </g>
                                        </g>
                                    </g>
                                    <g id="tick" transform="translate(360.000000, 96.000000)">
                                        <g>
                                            <path d="M9,18 C4.02943725,18 0,13.9705627 0,9 C0,4.02943725 4.02943725,0 9,0 C13.9705627,0 18,4.02943725 18,9 C18,13.9705627 13.9705627,18 9,18 Z" id="Combined-Shape" fill="#16B880"></path>
                                            <path d="M7.0136039,12.3363961 C7.36507576,12.687868 7.93492424,12.687868 8.2863961,12.3363961 L13.2363961,7.3863961 C13.587868,7.03492424 13.587868,6.46507576 13.2363961,6.1136039 C12.8849242,5.76213203 12.3150758,5.76213203 11.9636039,6.1136039 L7.65,10.4398826 L5.5863961,8.3636039 C5.23492424,8.01213203 4.66507576,8.01213203 4.3136039,8.3636039 C3.96213203,8.71507576 3.96213203,9.28492424 4.3136039,9.6363961 L7.0136039,12.3363961 Z" id="Path-1065-Copy" fill="#FFFFFF"></path>
                                        </g>
                                    </g>
                                    <g id="tick" transform="translate(360.000000, 153.000000)">
                                        <g>
                                            <path d="M9,18 C4.02943725,18 0,13.9705627 0,9 C0,4.02943725 4.02943725,0 9,0 C13.9705627,0 18,4.02943725 18,9 C18,13.9705627 13.9705627,18 9,18 Z" id="Combined-Shape" fill="#16B880"></path>
                                            <path d="M7.0136039,12.3363961 C7.36507576,12.687868 7.93492424,12.687868 8.2863961,12.3363961 L13.2363961,7.3863961 C13.587868,7.03492424 13.587868,6.46507576 13.2363961,6.1136039 C12.8849242,5.76213203 12.3150758,5.76213203 11.9636039,6.1136039 L7.65,10.4398826 L5.5863961,8.3636039 C5.23492424,8.01213203 4.66507576,8.01213203 4.3136039,8.3636039 C3.96213203,8.71507576 3.96213203,9.28492424 4.3136039,9.6363961 L7.0136039,12.3363961 Z" id="Path-1065-Copy" fill="#FFFFFF"></path>
                                        </g>
                                    </g>
                                    <g id="tick" transform="translate(360.000000, 209.000000)">
                                        <g>
                                            <path d="M9,18 C4.02943725,18 0,13.9705627 0,9 C0,4.02943725 4.02943725,0 9,0 C13.9705627,0 18,4.02943725 18,9 C18,13.9705627 13.9705627,18 9,18 Z" id="Combined-Shape" fill="#16B880"></path>
                                            <path d="M7.0136039,12.3363961 C7.36507576,12.687868 7.93492424,12.687868 8.2863961,12.3363961 L13.2363961,7.3863961 C13.587868,7.03492424 13.587868,6.46507576 13.2363961,6.1136039 C12.8849242,5.76213203 12.3150758,5.76213203 11.9636039,6.1136039 L7.65,10.4398826 L5.5863961,8.3636039 C5.23492424,8.01213203 4.66507576,8.01213203 4.3136039,8.3636039 C3.96213203,8.71507576 3.96213203,9.28492424 4.3136039,9.6363961 L7.0136039,12.3363961 Z" id="Path-1065-Copy" fill="#FFFFFF"></path>
                                        </g>
                                    </g>
                                    <g id="tick" transform="translate(360.000000, 266.000000)">
                                        <g>
                                            <path d="M9,18 C4.02943725,18 0,13.9705627 0,9 C0,4.02943725 4.02943725,0 9,0 C13.9705627,0 18,4.02943725 18,9 C18,13.9705627 13.9705627,18 9,18 Z" id="Combined-Shape" fill="#16B880"></path>
                                            <path d="M7.0136039,12.3363961 C7.36507576,12.687868 7.93492424,12.687868 8.2863961,12.3363961 L13.2363961,7.3863961 C13.587868,7.03492424 13.587868,6.46507576 13.2363961,6.1136039 C12.8849242,5.76213203 12.3150758,5.76213203 11.9636039,6.1136039 L7.65,10.4398826 L5.5863961,8.3636039 C5.23492424,8.01213203 4.66507576,8.01213203 4.3136039,8.3636039 C3.96213203,8.71507576 3.96213203,9.28492424 4.3136039,9.6363961 L7.0136039,12.3363961 Z" id="Path-1065-Copy" fill="#FFFFFF"></path>
                                        </g>
                                    </g>
                                </g>
                            </g>
                        </g>
                    </g>
                </g>
            </g>
        </g>
    </g>
</svg>