<?xml version="1.0" encoding="UTF-8"?>
<svg width="756px" height="340px" viewBox="0 0 756 340" version="1.1" xmlns="http://www.w3.org/2000/svg" xmlns:xlink="http://www.w3.org/1999/xlink">
    <!-- Generator: Sketch 51.1 (57501) - http://www.bohemiancoding.com/sketch -->
    <title>Group 19</title>
    <desc>Created with Sketch.</desc>
    <defs>
        <rect id="path-1" x="274" y="166" width="478" height="83" rx="4"></rect>
        <filter x="-1.4%" y="-6.6%" width="102.7%" height="115.7%" filterUnits="objectBoundingBox" id="filter-2">
            <feOffset dx="0" dy="1" in="SourceAlpha" result="shadowOffsetOuter1"></feOffset>
            <feGaussianBlur stdDeviation="2" in="shadowOffsetOuter1" result="shadowBlurOuter1"></feGaussianBlur>
            <feColorMatrix values="0 0 0 0 0   0 0 0 0 0   0 0 0 0 0  0 0 0 0.18580163 0" type="matrix" in="shadowBlurOuter1"></feColorMatrix>
        </filter>
        <path d="M57.8983036,36.2076111 L33.1417968,21.5428475 C32.8394544,21.3658437 32.5282196,21.2596415 32.1725227,21.2596415 C31.2032485,21.2596415 30.4118228,22.0561585 30.4118228,23.0296793 L30.4029304,23.0296793 L30.4029304,53.4743304 L30.4118228,53.4743304 C30.4118228,54.4478512 31.2032485,55.2443682 32.1725227,55.2443682 C32.537112,55.2443682 32.8394544,55.1204656 33.1684741,54.9434618 L57.8983036,40.2963986 C58.4852036,39.8096382 58.8586853,39.0750724 58.8586853,38.2520048 C58.8586853,37.4289372 58.4852036,36.7032217 57.8983036,36.2076111 Z" id="path-3"></path>
        <filter x="-22.8%" y="-16.2%" width="145.7%" height="138.3%" filterUnits="objectBoundingBox" id="filter-4">
            <feOffset dx="0" dy="1" in="SourceAlpha" result="shadowOffsetOuter1"></feOffset>
            <feGaussianBlur stdDeviation="2" in="shadowOffsetOuter1" result="shadowBlurOuter1"></feGaussianBlur>
            <feColorMatrix values="0 0 0 0 0   0 0 0 0 0   0 0 0 0 0  0 0 0 0.0724637681 0" type="matrix" in="shadowBlurOuter1"></feColorMatrix>
        </filter>
    </defs>
    <g id="Page-1" stroke="none" stroke-width="1" fill="none" fill-rule="evenodd">
        <g id="2" transform="translate(-337.000000, -816.000000)">
            <g id="Group-19" transform="translate(337.000000, 812.000000)">
                <text id="How-it-works?" font-family="Montserrat-Medium, Montserrat" font-size="44" font-weight="400" line-spacing="44" letter-spacing="-0.5641026" fill="#363A4F">
                    <tspan x="215" y="43">How it works?</tspan>
                </text>
                <g id="Group-12" transform="translate(0.000000, 90.000000)">
                    <g id="Group-13">
                        <g id="Group-14">
                            <g id="Group-16">
                                <g id="Group-15">
                                    <g id="Rectangle-2">
                                        <use fill="black" fill-opacity="1" filter="url(#filter-2)" xlink:href="#path-1"></use>
                                        <use fill="#FFFFFF" fill-rule="evenodd" xlink:href="#path-1"></use>
                                    </g>
                                    <text id="Get-your-car-evaluat" opacity="0.9" font-family="Montserrat-Medium, Montserrat" font-size="20" font-weight="400" line-spacing="37" letter-spacing="-0.2564102" fill="#363A4F">
                                        <tspan x="328" y="19">Get your car evaluated</tspan>
                                    </text>
                                    <text id="Our-pricing-engine-w" opacity="0.9" font-family="Montserrat-Regular, Montserrat" font-size="16" font-weight="normal" line-spacing="23" letter-spacing="-0.2051282" fill="#363A4F">
                                        <tspan x="328" y="49">Our pricing engine will calculate the fairest price for it</tspan>
                                    </text>
                                    <text id="Sell-your-car" font-family="Montserrat-Medium, Montserrat" font-size="20" font-weight="400" line-spacing="37" letter-spacing="-0.2564102" fill="#363A4F">
                                        <tspan x="328" y="193">Sell your car</tspan>
                                    </text>
                                    <g id="Group-18" transform="translate(292.000000, 175.000000)">
                                        <circle id="Oval-2" stroke="#FF4B52" stroke-width="2" fill-rule="nonzero" cx="11.5" cy="18.5" r="11.5"></circle>
                                        <path d="M12.6427436,18.288 C13.5480815,18.3720004 14.2690743,18.647331 14.8057436,19.114 C15.3424129,19.580669 15.6107436,20.1919962 15.6107436,20.948 C15.6107436,21.5640031 15.4520785,22.1076643 15.1347436,22.579 C14.8174087,23.0503357 14.3647465,23.4189987 13.7767436,23.685 C13.1887407,23.9510013 12.5027475,24.084 11.7187436,24.084 C11.0560736,24.084 10.4004135,23.9836677 9.7517436,23.783 C9.10307369,23.5823323 8.55007922,23.3140017 8.0927436,22.978 L8.8347436,21.522 C9.22674556,21.8486683 9.66074122,22.0983325 10.1367436,22.271 C10.612746,22.4436675 11.0980745,22.53 11.5927436,22.53 C12.2740803,22.53 12.8084083,22.3900014 13.1957436,22.11 C13.5830789,21.8299986 13.7767436,21.4520024 13.7767436,20.976 C13.7767436,20.4906642 13.5854122,20.119668 13.2027436,19.863 C12.820075,19.606332 12.2740805,19.478 11.5647436,19.478 L10.0807436,19.478 L10.0807436,18.344 L12.7127436,15.796 L8.5827436,15.796 L8.5687436,14.2 L15.1207436,14.2 L15.1207436,15.362 L12.1247436,18.232 L12.6427436,18.288 Z" id="3" fill="#FF4B52"></path>
                                    </g>
                                    <g id="Group-18" transform="translate(292.000000, 77.000000)">
                                        <circle id="Oval-2" stroke="#7C85B3" stroke-width="2" fill-rule="nonzero" cx="11.5" cy="18.5" r="11.5"></circle>
                                        <path d="M15.7437436,22.362 L15.7437436,24 L8.4917436,24 L8.4917436,22.642 L12.1877436,18.834 C12.542412,18.4793316 12.8270759,18.1293351 13.0417436,17.784 C13.2564113,17.4386649 13.3637436,17.1400013 13.3637436,16.888 C13.3637436,16.5333316 13.223745,16.2556677 12.9437436,16.055 C12.6637422,15.8543323 12.2764127,15.754 11.7817436,15.754 C11.3524081,15.754 10.8950794,15.8613323 10.4097436,16.076 C9.92440784,16.2906677 9.46707908,16.5893314 9.0377436,16.972 L8.2957436,15.53 C8.87441316,15.0819978 9.48340707,14.7343346 10.1227436,14.487 C10.7620801,14.2396654 11.4037404,14.116 12.0477436,14.116 C12.6917468,14.116 13.2610745,14.2186656 13.7557436,14.424 C14.2504127,14.6293344 14.6354089,14.9209981 14.9107436,15.299 C15.1860783,15.6770019 15.3237436,16.1133309 15.3237436,16.608 C15.3237436,17.0840024 15.1604119,17.5879973 14.8337436,18.12 C14.5070753,18.6520027 14.0497465,19.2259969 13.4617436,19.842 L10.9697436,22.362 L15.7437436,22.362 Z" id="2-copy" fill="#7C85B3"></path>
                                    </g>
                                    <g id="Group-18" transform="translate(292.000000, 2.000000)">
                                        <circle id="Oval-2" stroke="#7C85B3" stroke-width="2" fill-rule="nonzero" cx="11.5" cy="18.5" r="11.5"></circle>
                                        <polygon id="1-copy" fill="#7C85B3" points="9.4297436 14.2 13.3637436 14.2 13.3637436 24 11.4877436 24 11.4877436 15.852 9.4297436 15.852"></polygon>
                                    </g>
                                    <text id="Get-a-secure-payment" font-family="Montserrat-Regular, Montserrat" font-size="16" font-weight="normal" line-spacing="23" letter-spacing="-0.2051282" fill="#363A4F">
                                        <tspan x="328" y="223">Get a secure payment for your car the same day</tspan>
                                    </text>
                                    <g id="Group-21" transform="translate(0.000000, 8.000000)">
                                        <circle id="Oval" fill="#E4E5EA" fill-rule="nonzero" cx="120.5" cy="120.5" r="120.5"></circle>
                                        <g id="Group-20" transform="translate(0.000000, 60.000000)">
                                            <g id="if_shop-25_730788" fill-rule="nonzero">
                                                <g id="Group" transform="translate(0.000000, 0.723471)">
                                                    <g>
                                                        <path d="M158.571819,89.3930406 C158.571819,73.359947 145.422918,60.4175703 129.133981,60.4175703 L0,60.4175703 C0,72.5872678 1.76627026,84.1774559 5.29881078,95.1881346 L158.571819,118.368511 L158.571819,89.3930406 Z" id="Shape" fill="#7C85B3"></path>
                                                        <g opacity="0.2" transform="translate(0.000000, 60.417570)" fill="#7C85B3" id="Shape">
                                                            <path d="M158.571819,28.9754703 C158.571819,12.9423767 145.422918,0 129.133981,0 L0,0 C0,12.1696975 1.76627026,23.7598856 5.29881078,34.7705643 L158.571819,57.9509405 L158.571819,28.9754703 Z"></path>
                                                        </g>
                                                        <path d="M158.571819,120.686548 C159.160576,120.686548 159.749332,120.493379 160.141837,120.107039 C160.730594,119.720699 160.926846,118.94802 160.926846,118.368511 L160.926846,89.3930406 C160.926846,72.0077584 146.600432,58.0995327 129.133981,58.0995327 L0,58.0995327 C0,58.8722119 0,59.6448911 0,60.4175703 C0,61.1902495 0,61.9629287 0,62.7356079 L128.937729,62.7356079 C143.8529,62.7356079 156.02054,74.7121356 156.02054,89.3930406 L156.02054,115.470964 L4.51380177,92.6769272 C4.90630628,94.4154554 5.49506303,96.1539836 6.08381978,97.8925118 L158.179314,120.879718 C158.179314,120.686548 158.375567,120.686548 158.571819,120.686548 Z" id="Shape" fill="#2D2E2D"></path>
                                                        <path d="M158.571819,103.880776 L143.067891,103.880776 L143.067891,132.856246 L158.571819,132.856246 C166.618161,132.856246 173.290738,126.288473 173.290738,118.368511 C173.290738,110.448549 166.618161,103.880776 158.571819,103.880776 Z" id="Shape" fill="#7C85B3"></path>
                                                        <g opacity="0.2" transform="translate(142.714637, 103.834227)" fill="#04080A" id="Shape">
                                                            <path d="M15.8571819,0.046548767 L0.353254052,0.046548767 L0.353254052,29.022019 L15.8571819,29.022019 C23.9035242,29.022019 30.5761007,22.4542458 30.5761007,14.5342839 C30.5761007,6.61432203 23.9035242,0.046548767 15.8571819,0.046548767 Z"></path>
                                                        </g>
                                                        <path d="M158.571819,101.369568 L143.067891,101.369568 C141.694125,101.369568 140.712864,102.528587 140.712864,103.687606 L140.712864,132.663076 C140.712864,134.015265 141.890378,134.981114 143.067891,134.981114 L158.571819,134.981114 C167.991927,134.981114 175.842017,127.447491 175.842017,117.982171 C175.842017,108.516851 167.991927,101.369568 158.571819,101.369568 Z M158.571819,130.345039 L145.422918,130.345039 L145.422918,106.391983 L158.571819,106.391983 C165.244395,106.391983 170.739458,111.800738 170.739458,118.368511 C170.739458,124.936284 165.244395,130.345039 158.571819,130.345039 Z" id="Shape" fill="#2D2E2D"></path>
                                                        <g transform="translate(0.929616, 0.000000)">
                                                            <ellipse id="Oval" fill="#F5A623" cx="54.4135189" cy="53.0771178" rx="51.4180898" ry="50.6104881"></ellipse>
                                                            <ellipse id="Oval" fill="#F5A623" cx="54.4135189" cy="53.0771178" rx="51.4180898" ry="50.6104881"></ellipse>
                                                            <path d="M54.4135189,0.148592155 C24.5831767,0.148592155 0.444149831,23.9084778 0.444149831,53.2702876 C0.444149831,82.6320975 24.5831767,106.391983 54.4135189,106.391983 C84.243861,106.391983 108.382888,82.6320975 108.382888,53.2702876 C108.382888,23.9084778 84.243861,0.148592155 54.4135189,0.148592155 Z M54.4135189,101.369568 C27.3307082,101.369568 5.35045611,79.7345505 5.35045611,53.0771178 C5.35045611,26.4196852 27.3307082,4.7846674 54.4135189,4.7846674 C81.4963295,4.7846674 103.476582,26.4196852 103.476582,53.0771178 C103.476582,79.7345505 81.4963295,101.369568 54.4135189,101.369568 Z" id="Shape" fill="#2D2E2D"></path>
                                                            <g opacity="0.3" transform="translate(14.221058, 13.521886)" fill="#F8F9F7" id="Shape">
                                                                <path d="M40.192461,0.341761957 C18.2122089,0.341761957 0.353254052,17.9202139 0.353254052,39.5552317 C0.353254052,61.1902495 18.2122089,78.7687015 40.192461,78.7687015 C62.1727131,78.7687015 80.031668,61.1902495 80.031668,39.5552317 C80.2279202,17.9202139 62.3689654,0.341761957 40.192461,0.341761957 Z"></path>
                                                            </g>
                                                            <path d="M54.4135189,11.5456105 C31.059501,11.5456105 12.0230326,30.2830812 12.0230326,53.2702876 C12.0230326,76.257494 31.059501,94.9949648 54.4135189,94.9949648 C77.7675367,94.9949648 96.8040051,76.257494 96.8040051,53.2702876 C96.8040051,30.2830812 77.963789,11.5456105 54.4135189,11.5456105 Z M54.4135189,89.97255 C33.8070325,89.97255 16.9293389,73.359947 16.9293389,53.0771178 C16.9293389,32.7942886 33.8070325,16.1816857 54.4135189,16.1816857 C75.0200052,16.1816857 91.8976988,32.7942886 91.8976988,53.0771178 C91.8976988,73.359947 75.2162575,89.97255 54.4135189,89.97255 Z" id="Shape" fill="#2D2E2D"></path>
                                                            <path d="M62.6561134,53.4634574 C61.2823477,52.6907782 59.9085819,51.918099 58.1423116,51.5317594 C56.7685459,51.1454198 55.3947801,50.7590802 53.8247621,50.3727406 C52.4509964,49.986401 51.2734829,49.6000614 50.0959693,49.2137218 C49.1147081,48.8273822 48.3296991,48.2478728 47.5446901,47.6683634 C46.9559333,47.088854 46.3671766,46.5093446 45.9746721,45.5434956 C45.7784198,44.9639862 45.3859153,43.8049673 45.3859153,42.0664391 C45.3859153,41.1005901 45.5821676,40.1347411 45.9746721,39.1688921 C46.3671766,38.2030431 46.7596811,37.4303639 47.5446901,36.8508545 C48.1334468,36.0781753 49.1147081,35.4986659 50.2922216,35.1123263 C51.4697351,34.7259867 52.8435009,34.3396471 54.4135189,34.3396471 C55.9835369,34.3396471 57.3573026,34.5328169 58.3385639,35.1123263 C59.3198251,35.4986659 60.3010864,36.2713451 60.8898432,36.8508545 C61.4785999,37.6235337 62.0673567,38.5893827 62.4598612,39.5552317 C62.8523657,40.7142505 64.0298792,41.2937599 65.4036449,40.9074203 C66.5811584,40.5210807 67.1699152,39.3620619 66.7774107,38.0098733 C66.1886539,36.4645149 65.4036449,34.9191565 64.4223837,33.7601377 C63.2448702,32.407949 61.8711044,31.4421 60.3010864,30.6694208 C59.3198251,30.2830812 57.9460594,29.8967416 56.7685459,29.7035718 L56.7685459,28.1582134 C56.7685459,26.9991946 55.7872846,25.8401758 54.4135189,25.8401758 C53.2360054,25.8401758 52.0584919,26.8060248 52.0584919,28.1582134 L52.0584919,29.7035718 C50.6847261,29.8967416 49.5072126,30.0899114 48.5259513,30.6694208 C46.7596811,31.4421 45.3859153,32.2147792 44.4046541,33.3737981 C43.2271406,34.5328169 42.4421316,35.8850055 41.8533748,37.2371941 C41.264618,38.5893827 41.0683658,40.1347411 41.0683658,41.6800995 C41.0683658,43.8049673 41.4608703,45.7366654 42.0496271,47.088854 C42.6383838,48.6342124 43.6196451,49.7932312 44.7971586,50.7590802 C45.9746721,51.7249292 47.1521856,52.4976084 48.7222036,53.0771178 C50.0959693,53.6566272 51.4697351,54.0429668 53.0397531,54.4293064 C54.4135189,54.815646 55.7872846,55.2019856 57.1610504,55.5883253 C58.3385639,55.9746649 59.5160774,56.5541743 60.4973387,57.1336837 C61.4785999,57.7131931 62.2636089,58.4858723 62.8523657,59.4517213 C63.4411224,60.4175703 63.8336269,61.7697589 63.8336269,63.3151173 C63.8336269,64.4741361 63.6373747,65.6331549 63.2448702,66.5990039 C62.8523657,67.564853 62.4598612,68.530702 61.6748522,69.3033812 C61.0860954,70.0760604 60.1048341,70.6555698 59.1235729,71.0419094 C58.1423116,71.428249 56.7685459,71.6214188 55.1985279,71.6214188 C53.8247621,71.6214188 52.6472486,71.428249 51.6659874,71.0419094 C50.4884738,70.6555698 49.7034648,70.0760604 48.7222036,69.3033812 C47.9371946,68.530702 47.1521856,67.564853 46.5634288,66.2126643 C45.9746721,65.0536455 44.7971586,64.4741361 43.6196451,65.0536455 C42.4421316,65.6331549 41.8533748,66.7921738 42.4421316,67.9511926 C43.2271406,69.8828906 44.4046541,71.428249 45.7784198,72.5872678 C47.1521856,73.7462866 48.7222036,74.7121356 50.2922216,75.291645 C50.8809784,75.4848148 51.6659874,75.6779846 52.4509964,75.8711544 L52.4509964,77.6096826 C52.4509964,78.7687015 53.4322576,79.9277203 54.8060234,79.9277203 C55.9835369,79.9277203 57.1610504,78.9618713 57.1610504,77.6096826 L57.1610504,76.0643242 C58.5348161,75.8711544 59.9085819,75.6779846 61.0860954,75.0984752 C62.8523657,74.325796 64.2261314,73.359947 65.4036449,72.2009282 C66.5811584,71.0419094 67.3661674,69.496551 67.9549242,67.9511926 C68.5436809,66.4058341 68.7399332,64.8604757 68.7399332,63.3151173 C68.7399332,60.8039099 68.1511764,58.6790421 67.1699152,57.1336837 C65.4036449,55.7814951 64.2261314,54.4293064 62.6561134,53.4634574 Z" id="Shape" fill="#2D2E2D"></path>
                                                        </g>
                                                        <g opacity="0.1" transform="translate(7.300584, 72.007758)" fill="#04080A" id="Shape">
                                                            <path d="M48.0425511,31.8730173 C69.6302987,31.8730173 88.2742625,18.7374708 95.9281003,0 L0.353254052,0 C8.00709184,18.7374708 26.4548034,31.8730173 48.0425511,31.8730173 Z"></path>
                                                        </g>
                                                        <path d="M129.133981,89.3930406 L3.53254052,89.3930406 C16.6814413,141.548887 64.5669906,180.182847 121.676396,180.182847 C134.432792,180.182847 146.796684,178.251149 158.571819,174.580923 L158.571819,118.368511 C158.571819,102.335417 145.226666,89.3930406 129.133981,89.3930406 Z" id="Shape" fill="#4B506A"></path>
                                                        <path d="M129.133981,87.0750029 L2.94378377,87.0750029 C3.33628827,88.6203613 3.72879277,90.3588896 4.12129727,91.904248 L128.937729,91.904248 C143.8529,91.904248 156.02054,103.880776 156.02054,118.561681 L156.02054,175.546772 C157.590558,175.160433 159.356828,174.580923 160.926846,174.001414 L160.926846,118.368511 C160.926846,100.983229 146.600432,87.0750029 129.133981,87.0750029 Z" id="Shape" fill="#2D2E2D"></path>
                                                        <path d="M173.094485,118.368511 C173.094485,126.288473 166.421909,132.856246 158.375567,132.856246 L142.871639,132.856246 L129.722738,132.856246 C114.022558,132.856246 100.481153,144.446434 99.4998913,159.900018 C99.1073868,167.047301 101.266162,173.808244 105.191207,179.023829 C110.490017,179.796508 115.98508,180.182847 121.676396,180.182847 C140.124107,180.182847 157.590558,176.126282 173.094485,168.978999 L173.094485,132.856246 L173.094485,118.368511 Z" id="Shape" fill="#2AA590"></path>
                                                        <path d="M173.094485,118.368511 C173.094485,126.288473 166.421909,132.856246 158.375567,132.856246 L142.871639,132.856246 L129.722738,132.856246 C114.022558,132.856246 100.481153,144.446434 99.4998913,159.900018 C99.1073868,166.274622 100.677405,172.262885 103.817441,177.092131 C104.209945,177.86481 104.798702,178.444319 105.191207,179.023829 C110.490017,179.796508 115.98508,180.182847 121.676396,180.182847 C140.124107,180.182847 157.590558,176.126282 173.094485,168.978999 L173.094485,132.856246 L173.094485,118.368511 Z" id="Shape" fill="#7C85B3"></path>
                                                        <path d="M173.094485,116.050473 C171.72072,116.050473 170.739458,117.209492 170.739458,118.368511 C170.739458,124.936284 165.244395,130.345039 158.571819,130.345039 L129.722738,130.345039 C112.45254,130.345039 98.1261255,143.287415 96.948612,159.706848 C96.5561075,166.274622 98.1261255,172.842395 101.658666,178.251149 C101.658666,178.251149 101.658666,178.444319 101.854918,178.444319 C104.209945,178.830659 106.564972,179.216998 108.919999,179.410168 C107.742486,178.251149 106.761225,177.092131 105.976216,175.739942 C103.032432,171.103867 101.658666,165.501942 102.051171,159.900018 C103.032432,145.991792 115.200071,134.981114 129.91899,134.981114 L158.571819,134.981114 C163.281873,134.981114 167.795675,133.049416 170.739458,129.958699 L170.739458,169.751678 C172.309476,168.978999 174.075747,168.20632 175.645765,167.43364 L175.645765,118.368511 C175.645765,117.016322 174.468251,116.050473 173.094485,116.050473 Z" id="Shape" fill="#2D2E2D"></path>
                                                    </g>
                                                    <ellipse id="Oval" fill="#CDAF31" cx="128.937729" cy="161.831716" rx="14.7189188" ry="14.4877351"></ellipse>
                                                    <ellipse id="Oval" fill="#DBD1CA" cx="128.937729" cy="161.831716" rx="14.7189188" ry="14.4877351"></ellipse>
                                                    <path d="M128.937729,145.025943 C119.517621,145.025943 111.667531,152.559566 111.667531,162.024886 C111.667531,171.490206 119.321369,179.023829 128.937729,179.023829 C138.554089,179.023829 146.207927,171.490206 146.207927,162.024886 C146.207927,152.559566 138.357837,145.025943 128.937729,145.025943 Z M128.937729,174.001414 C122.265152,174.001414 116.770089,168.592659 116.770089,162.024886 C116.770089,155.457113 122.265152,150.048358 128.937729,150.048358 C135.610305,150.048358 141.105369,155.457113 141.105369,162.024886 C141.105369,168.592659 135.610305,174.001414 128.937729,174.001414 Z" id="Shape" fill="#2D2E2D"></path>
                                                </g>
                                            </g>
                                            <g id="Group-17" transform="translate(82.417582, 22.322440)">
                                                <ellipse id="Oval-3" fill="#363A4F" fill-rule="nonzero" opacity="0.6" cx="39.010989" cy="38.8257081" rx="39.010989" ry="38.8257081"></ellipse>
                                                <g id="Shape">
                                                    <use fill="black" fill-opacity="1" filter="url(#filter-4)" xlink:href="#path-3"></use>
                                                    <use fill="#FFFFFF" fill-rule="evenodd" xlink:href="#path-3"></use>
                                                </g>
                                            </g>
                                        </g>
                                    </g>
                                    <text id="Discuss-the-price-du" opacity="0.9" font-family="Montserrat-Medium, Montserrat" font-size="20" font-weight="400" line-spacing="37" letter-spacing="-0.2564102" fill="#363A4F">
                                        <tspan x="328" y="94.5">Discuss the price during inspection</tspan>
                                    </text>
                                    <text id="Visit-us-at-one-of-o" opacity="0.9" font-family="Montserrat-Regular, Montserrat" font-size="16" font-weight="normal" line-spacing="23" letter-spacing="-0.2051282" fill="#363A4F">
                                        <tspan x="328" y="124.5">Visit us at one of our petrol stations for physical </tspan>
                                        <tspan x="328" y="147.5">inspection and price discussion</tspan>
                                    </text>
                                </g>
                            </g>
                        </g>
                    </g>
                </g>
                <ellipse id="Oval" stroke-opacity="0.144927536" stroke="#4B506A" stroke-width="5" opacity="0.241071429" fill-rule="nonzero" cx="121.5" cy="218" rx="118" ry="116.5"></ellipse>
            </g>
        </g>
    </g>
</svg>