<?xml version="1.0" encoding="UTF-8"?>
<svg width="61px" height="61px" viewBox="0 0 61 61" version="1.1" xmlns="http://www.w3.org/2000/svg" xmlns:xlink="http://www.w3.org/1999/xlink">
    <!-- Generator: Sketch 51.1 (57501) - http://www.bohemiancoding.com/sketch -->
    <title>Group 20</title>
    <desc>Created with Sketch.</desc>
    <defs></defs>
    <g id="Page-1" stroke="none" stroke-width="1" fill="none" fill-rule="evenodd">
        <g id="3-copy" transform="translate(-336.000000, -171.000000)" fill-rule="nonzero">
            <g id="Group-16" transform="translate(284.000000, 118.000000)">
                <g id="Navigate-Card" transform="translate(0.000000, 2.000000)">
                    <g id="Group-2">
                        <g id="Group-11" transform="translate(34.000000, 31.000000)">
                            <g id="Group-3" transform="translate(17.000000, 19.000000)">
                                <g id="Group-22">
                                    <g id="Group-20" transform="translate(1.000000, 1.000000)">
                                        <g id="if_shop-28_730787">
                                            <ellipse id="Oval" fill="#E4E5EA" cx="30.2975797" cy="30.8505747" rx="30.2975797" ry="30.1494253"></ellipse>
                                            <g id="Group" transform="translate(9.284742, 0.000000)">
                                                <path d="M8.30740089,47.58769 L33.9137425,47.58769 C37.9697088,47.58769 41.2438021,44.329607 41.2438021,40.2934742 L41.2438021,8.33302309 C35.9172921,3.56746877 28.8315678,0.69841056 21.1105717,0.69841056 C13.3895755,0.69841056 6.30385126,3.56746877 0.977341281,8.33302309 L0.977341281,40.2934742 C0.977341281,44.329607 4.25143457,47.58769 8.30740089,47.58769 Z" id="Shape" fill="#FFBA49"></path>
                                                <g transform="translate(10.750754, 19.496478)" id="Shape">
                                                    <path d="M18.6392944,1.16707453 C17.4245988,0.375131098 15.7910427,0.708580963 14.9952077,1.87565549 L8.62852731,11.3372954 L5.5708453,7.08580963 C4.7331242,5.9187351 3.05768201,5.62696647 1.88487247,6.46059113 C0.712062933,7.2942158 0.418860549,8.96146512 1.25658165,10.1285396 L6.53422456,17.4644367 C7.03685722,18.1730176 7.83269227,18.5481487 8.67041336,18.5481487 C8.67041336,18.5481487 8.71229942,18.5481487 8.71229942,18.5481487 C9.59190657,18.5481487 10.3877416,18.0896552 10.8484882,17.3810742 L19.3094713,4.75166058 C20.1471924,3.58458605 19.85399,1.95901796 18.6392944,1.16707453 Z" fill="#F4FF00"></path>
                                                    <path d="M18.8906108,0.708580963 C18.3879781,0.375131098 17.7596873,0.166724932 17.1313965,0.166724932 C16.0842451,0.166724932 15.0789798,0.708580963 14.492575,1.58388686 L8.62852731,10.4203083 L6.03159191,6.794041 C5.44518714,5.96041634 4.48180787,5.46024154 3.4346565,5.46024154 C2.76447962,5.46024154 2.1361888,5.6686477 1.59167009,6.0437788 C0.921493208,6.5439536 0.460746604,7.25253456 0.293202384,8.08615922 C0.16754422,8.91978389 0.335088439,9.75340855 0.837721098,10.4203083 L6.11536402,17.7562053 C6.70176878,18.58983 7.66514805,19.0900048 8.67041336,19.0900048 L8.71229942,19.0900048 C9.75945079,19.0900048 10.7228301,18.5481487 11.3092348,17.6728428 L19.7702179,5.04342921 C20.2309645,4.33484824 20.3985087,3.50122358 20.2309645,2.66759892 C20.0634203,1.83397426 19.6026737,1.20875576 18.8906108,0.708580963 Z M18.9324968,4.50157318 L10.4715137,17.1309868 C10.0945392,17.7145241 9.42436235,18.0479739 8.75418547,18.0479739 L8.71229942,18.0479739 C8.04212254,18.0479739 7.37194566,17.7145241 6.99497117,17.172668 L1.71732825,9.83677102 C1.38223981,9.37827745 1.25658165,8.83642142 1.34035376,8.25288416 C1.42412587,7.71102813 1.71732825,7.21085333 2.17807485,6.87740346 C2.55504935,6.62731607 2.9739099,6.50227237 3.39277045,6.50227237 C4.06294733,6.50227237 4.7331242,6.83572223 5.1100987,7.37757826 L8.16778071,11.629064 C8.25155282,11.7541077 8.41909704,11.8374702 8.58664125,11.8374702 C8.75418547,11.8374702 8.92172969,11.7541077 9.0055018,11.5873828 L15.3302961,2.12574289 C15.7072706,1.54220563 16.3774475,1.20875576 17.0895104,1.20875576 C17.5083709,1.20875576 17.9272315,1.33379946 18.2623199,1.54220563 C18.7230665,1.83397426 19.058155,2.33414905 19.1838131,2.87600509 C19.3513574,3.45954235 19.2256992,4.04307961 18.9324968,4.50157318 Z" stroke="#2D2E2D" fill="#2D2E2D"></path>
                                                </g>
                                                <path d="M8.20966676,48.1712273 L33.8160083,48.1712273 C38.2140441,48.1712273 41.7324727,44.6213756 41.7324727,40.2934742 L41.7324727,9.25188578 C41.3415362,8.86286093 40.9505997,8.5224642 40.5107961,8.18206746 L40.5107961,40.2934742 C40.5107961,43.9892102 37.4810381,47.0041528 33.7671413,47.0041528 L8.20966676,47.0041528 C4.49576989,47.0041528 1.46601192,43.9892102 1.46601192,40.2934742 L1.46601192,8.50200222 C1.02620835,8.84239896 0.635271833,9.2314238 0.24433532,9.57182054 L0.24433532,40.2934742 C0.24433532,44.6700037 3.811631,48.1712273 8.20966676,48.1712273 Z" id="Shape" stroke="#000000" fill="#2D2E2D"></path>
                                                <path d="M30.8338842,12.7937152 L11.1917908,12.7937152 C10.9371711,12.7937152 10.7552999,13.0854839 10.7552999,13.3772525 C10.7552999,13.6690211 10.9735453,13.9607898 11.1917908,13.9607898 L30.8338842,13.9607898 C31.088504,13.9607898 31.2703752,13.6690211 31.2703752,13.3772525 C31.2703752,13.0854839 31.088504,12.7937152 30.8338842,12.7937152 Z" id="Shape" stroke="#2D2E2D" fill="#2D2E2D"></path>
                                                <path d="M30.8338842,7.18451984 L11.1917908,7.18451984 C10.9371711,7.18451984 10.7552999,7.47628847 10.7552999,7.7680571 C10.7552999,8.05982573 10.9735453,8.35159436 11.1917908,8.35159436 L30.8338842,8.35159436 C31.088504,8.35159436 31.2703752,8.05982573 31.2703752,7.7680571 C31.2703752,7.47628847 31.088504,7.18451984 30.8338842,7.18451984 Z" id="Shape" stroke="#2D2E2D" fill="#2D2E2D"></path>
                                            </g>
                                        </g>
                                        <ellipse id="Oval" stroke-opacity="0.144927536" stroke="#4B506A" stroke-width="3" opacity="0.241071429" cx="30.5" cy="30.9236111" rx="29" ry="28.5763889"></ellipse>
                                    </g>
                                </g>
                            </g>
                        </g>
                    </g>
                </g>
            </g>
        </g>
    </g>
</svg>